<svg id="Layer_1" data-name="Layer 1" xmlns="http://www.w3.org/2000/svg" width="121.63" height="42.5" viewBox="0 0 121.63 42.5"><title>Artboard 9</title><path d="M117.67,23a11.67,11.67,0,0,0,.91-4.47C118.58,8.3,104.71,0,87.6,0,76,0,65.9,3.81,60.59,9.46,55.28,3.81,45.17,0,33.58,0c-17.11,0-31,8.3-31,18.53a11.9,11.9,0,0,0,1.45,5.62c.11,6.19-.47,14.35-4,16.08,4.86-1,15.7-3.3,15.7-5.64a2.26,2.26,0,0,1,.17-.85h0l1.41,4.31a29.84,29.84,0,0,1,4-2.5c.81.21,1.64.4,2.48.56a7.62,7.62,0,0,1-.14,2.44,24.76,24.76,0,0,1,3.92-1.84c1.07.13,2.15.22,3.25.28a13.92,13.92,0,0,1,2.36,1.56L35.93,37a53,53,0,0,0,5.47-.54L41.92,41a55.68,55.68,0,0,0,5.82-6c.52-.16,1-.32,1.53-.5,1.2,1.21,3,3.05,3,3.05l1.8-5.12.25-.13c.58.62,2.71,3,2.71,4.26,0,.89,2.36-1.68,3.53-4.12.63,2.7,4.08,6.68,4.08,5.6,0-1.48,2.86-4.42,2.86-4.42L69.39,39s3.5-3.63,4-4h0a.28.28,0,0,0-.06.08c-.8,1,6.35,7.41,6.35,7.41l.69-5.94c.77.11,1.55.2,2.35.28L88.45,40s2.38-2,4-2.11S98,40,98,40s-.79-3.46.8-3.46,5.56,3,5.56,3l1.42-4.31a2.27,2.27,0,0,1,.17.86c0,2.33,10.84,4.66,15.7,5.63C117.51,39.73,117.37,29.21,117.67,23Z"/></svg>