<svg id="Layer_1" data-name="Layer 1" xmlns="http://www.w3.org/2000/svg" width="207.91" height="207.91" viewBox="0 0 207.91 207.91"><defs><style>.cls-1{fill:none;}.cls-2{fill:#ff8500;}</style></defs><title>Artboard 11</title><path d="M104,207.41A103.46,103.46,0,1,1,207.41,104,103.57,103.57,0,0,1,104,207.41ZM104,9.35A94.61,94.61,0,1,0,198.57,104,94.71,94.71,0,0,0,104,9.35Z"/><path class="cls-1" d="M104,207.41A103.46,103.46,0,1,1,207.41,104,103.57,103.57,0,0,1,104,207.41ZM104,9.35A94.61,94.61,0,1,0,198.57,104,94.71,94.71,0,0,0,104,9.35Z"/><path class="cls-2" d="M5.13,88.15c-.19.85-.28,1.71-.42,2.57a88.68,88.68,0,0,1,7.1-25A87.71,87.71,0,0,0,5.94,79.37,75.87,75.87,0,0,0,2.69,94.21a62,62,0,0,0,.05,14.36c.12,1.13.35,2.23.55,3.3S3.7,114,4,115a34.66,34.66,0,0,0,2.05,5.62c-.45.48-.67,2-.66,4a44.05,44.05,0,0,0,.79,7c.87,4.89,2.56,9.43,2.88,9.5l1.35,2.62c.48.86,1,1.72,1.45,2.58.92,1.74,2,3.4,3,5.11-.69-1.18-1.38-2.35-2.08-3.52l-1.93-3.59,1.93,3.59c.7,1.17,1.39,2.34,2.08,3.52A124.33,124.33,0,0,0,40,180.7a105.77,105.77,0,0,0,35.61,20l3.08,1,3.67.94c1.29.36,2.7.6,4.16.89l2.24.44,2.34.34a102.84,102.84,0,0,0,41.84-2.64,120.87,120.87,0,0,0,15.35-5.46c2.12-1,4.28-1.95,6.34-3.13-1.74.92-2.64,1.32-3.54,1.72s-1.78.85-3.6,1.59c1.1-.56,2.13-1.23,3.17-1.82s2.07-1.21,3-1.88l2.92-1.92,2.77-2c.93-.64,1.8-1.34,2.67-2s1.74-1.36,2.58-2.07c1.64-1.45,3.31-2.81,4.83-4.31-.67.37-1.1.55-1.73.88a31.74,31.74,0,0,0-3,1.68c1.16-.85,2.37-1.64,3.49-2.55a30,30,0,0,1,2.49-2.83c1-1.11,2.09-2.29,3.22-3.47l3.16-3.59c.93-1.17,1.77-2.23,2.38-3.09-.12.49.4.14,1.15-.65s1.75-2,2.69-3.15l-1,.73a85.74,85.74,0,0,0,9.39-14.71,105.74,105.74,0,0,0,6.3-15.31,16.94,16.94,0,0,1,1.2-2.84c.39-1.55.77-3.1,1-4.67s.62-3.13.81-4.71c.24.42.73-1.51,1.09-3s.51-2.49.41-.19c.34-7.2,1-14.49-.16-21.26a93.1,93.1,0,0,0-3-18.2,94.28,94.28,0,0,0-6.7-17.55,93.26,93.26,0,0,0-23.11-29.34l.28.58a80.44,80.44,0,0,0-10.34-7.25c-3.63-2.24-7.52-4.42-12-7A109.14,109.14,0,0,0,136,15a49.58,49.58,0,0,0-5.16-1,14.51,14.51,0,0,0-3.48-.13c-2-.43-3.76-.79-5.35-1s-3-.37-4.47-.46l-4.44-.21c-1.58,0-3.3-.09-5.31-.07,1,.35-.94.49-2.65.62s-3.27.32-1.21.55c5.23,1,5.55.29,9.91,1.41l-.11-.23A94.21,94.21,0,0,1,143,24.13a92.76,92.76,0,0,1,24.4,18.6c10,9.49,17.55,23,21.56,36.66a92.39,92.39,0,0,1,2.73,11.4c.26,1.95.63,3.9.78,5.87.09,1,.21,2,.28,2.93l.15,2.93a93,93,0,0,1-1.65,21.93,18.27,18.27,0,0,1-.51,2.2c-.22.67-.46,1.3-.71,1.91l-.78,1.8-.87,1.79A82.28,82.28,0,0,1,180,150.52a101.53,101.53,0,0,1-13.13,16.92l.5-.46c-1.31,1.3-2.56,2.5-3.83,3.57s-2.51,2.1-3.83,3-2.57,1.88-4,2.77l-2.06,1.41-2.19,1.42c.12.13-.8.74-1.21,1.12a7.83,7.83,0,0,0-2,.94l-1.9,1.11L144,183.65a99.15,99.15,0,0,1-13.46,6.1,87,87,0,0,1-14.62,3.86c-1,.17-2,.35-2.93.46l-2.39.24a13.1,13.1,0,0,1-2.64.12l-2.34.16A79,79,0,0,1,83,191a120.69,120.69,0,0,1-19.45-8l-2.05-.73-2-.84-2-.8c-.62-.28-1.22-.54-1.79-.77a7.77,7.77,0,0,0-2.19-1.39,13.82,13.82,0,0,1-2.55-1.54,54.34,54.34,0,0,0-5.43-5.7c-1.13-.92-1.45-.76-.26.67A79.27,79.27,0,0,1,33.47,159.8c-1.62-1.79-3.09-3.68-4.61-5.6A8.83,8.83,0,0,1,27,150.34c-2.83-4.44-1.75-3.29-4-8.28a9.38,9.38,0,0,0-1-2.54c-.64-1.22-1.33-2.81-2.13-4.37s-1.42-3.2-2-4.51a26,26,0,0,1-.91-2.74l.34.84c-.21-.77-.39-1.52-.56-2.24s-.23-1.44-.33-2.13a38.16,38.16,0,0,1-.4-4c-.2-2.64-.25-5.25-.52-8.32a109.5,109.5,0,0,1,0-13.07,102.9,102.9,0,0,1,1.72-13.11,95.63,95.63,0,0,1,3.54-12.5,86.07,86.07,0,0,1,5.12-11.22c-.48-.43-1.47,3.17-2.3,3a75.43,75.43,0,0,1,7.6-11.92,107,107,0,0,1,9.35-10.58,25.94,25.94,0,0,1,3.71-2.7c2.33-1.87,1.11-1.39,2.8-2.79l.58.24A9.9,9.9,0,0,1,50.6,35a20.19,20.19,0,0,0,3.17-2c0-.26.86-.94,1.76-1.52.37.47,2.72-1.79,2.88-1.25v-.06a9.1,9.1,0,0,1,1.63-.89l2-1.58c1-.78,2.32-1.67,3.62-2.61s2.7-1.74,3.78-2.46,2-1.14,2.21-1.31l.58-.13c1.6-.67,2.17-1.28,1.17-1.06l2-.66-.22.12,2-.66c.39-.08.9.08.4.49a15.09,15.09,0,0,1,3.55-1.23c-1.65.3-3.54.53-5.42.95l-2.84.55-2.73.61a17.42,17.42,0,0,1,2.6-1.05c1-.31,2-.58,2.76-.87.48-.06,1.07-.16,1.74-.29l2.21-.35c.78-.13,1.59-.3,2.4-.43L84.25,17c.64-.16.93-1,2.47-.94.81.32,1.67-.32,3-.21a27,27,0,0,1-4.18.88c.35.44,3.52-.26,4.66-.33.5-.26,3.28-.43,5-.78-.71.57,1.43.22,2.48.42,1.17,0,1.9-.29,1.42-.44.35-.59-4.7,0-3.11-.69.46.25,2.76-.07,4-.13,0-.31-.86-.21-.06-.52,1.4,0,2.87-.38,3.68-.08a5.41,5.41,0,0,1-1.25,0c.91,0-1.55.51-3.89,1.15s-4.55,1.3-3.41,1.1c-.31-.11,2.17-.77,4.64-1.36s4.91-.95,4.31-.94c-1.12-.13.8-.58-.36-.66l-1.28.41c-1.57-.08-2.24-.6-1.69-.83,1.33,0-.56.51-2.43,1.16s-3.77,1.2-2.68,1c-.3,0-.61-.06-.91-.06a12,12,0,0,1,4.43-.4c0-.33,1.27-.46,2.33-.6l.38,0c1.09-.18,2.64-.15,1.92-.53-3.24.11-2.21-.7-1.11-1.53s2.27-1.69-1-1.7c1.37.31,1.14.48.22.61s-2.54.14-4,.33a9.15,9.15,0,0,0-3.64-.46c-1.77.28-1,.38-1.33.59-1,0-2.88.09-2.69-.29-1.31.61-2.24.11-3.86.54-1.42.45.13.16-.86.54-2.16.43-5.19,1-6.89,1.49-.74-.13-2.92-.12-1.6-1,3.28-.86-1,1.16,2.34.09-.82-.16-.09-.43.91-.74a7.08,7.08,0,0,0,2.55-.92,9.76,9.76,0,0,0-2.37.25,28.15,28.15,0,0,0-2.85.83H78a44.23,44.23,0,0,1-6.61,2c.32-.39-.51-.32.65-.78-.75.22-1.48.48-2.21.76-.25.19-.5.38.15.19a8.25,8.25,0,0,1-2.86,1.06,7.51,7.51,0,0,0-1.85.88c-1,.59-2.38,1.29-3.63,2.15s-2.53,1.62-3.42,2.26a11.64,11.64,0,0,1-1.38.94c-1.44.84-2,.65-3.24,1.79,0,.08.78-.52,2-1.29s2.8-1.92,4.43-2.85l2.31-1.4c.73-.42,1.4-.77,1.93-1.07,1.06-.58,1.58-.88,1.08-.63a22.32,22.32,0,0,0-3.23,1.57c-1.61,1-3.67,2.14-5.6,3.5S52.66,24,51.18,25a14.65,14.65,0,0,1-2.76,1.89c-1,.72-2.15,1.69-1.74,1.74-1.72,1.18.16-.82-1.17-.11,0,.05.18,0-.2.32L44,29.45c-1.16,1.16-2.65,2.5-4.21,3.8a27.47,27.47,0,0,0-4,4.23,15.15,15.15,0,0,1,2.3-3.84l.38-.15c.09-.14.44-.55.75-.93s.59-.74.48-.83a17.17,17.17,0,0,0-2.3,2,21.89,21.89,0,0,0-2.06,2.34c-.34.24-.72.53-1,.71,0,0,.08,0,.1.05-.63.41-.6.33-.49.06a.51.51,0,0,1,.06-.15c-.76.19-2.14,1.77-3.55,3.73a67.67,67.67,0,0,1-4.28,5.6c-.56,1,.06.17-.64,1.42l-1.79,2.12c-.56.68-1.05,1.36-1.57,2s-1,1.36-1.55,2.1l-1.58,2.43c-.34,1.32-.26,1.47.86.28-.56.88-1.11,1.76-1.6,2.67.45-3-3.49,4.8-2.91,1.57a15.25,15.25,0,0,0-2,4.14c.15.26.36.65-.45,2.72-1.43,2.77-1.09,2.11-2.2,4.45-.49.47-.31-.46-.58-.44-.92,3.9-1.74,3.11-2.74,6.78-.53,2.32-1.48,6.92-.91,7.14C5.91,88.59,5.52,88.53,5.13,88.15Z"/><path class="cls-2" d="M7.21,119.44c-.14-.84-.19-1.69-.29-2.54a110.2,110.2,0,0,0,6.25,24.69,125,125,0,0,1-3.31-14c-.85-4.79-1.35-9.64-1.77-14.36-.07-1.18-.15-2.35-.25-3.51s-.1-2.32-.18-3.46c-.18-2.28-.17-4.51-.32-6.68-.07-1.09-.06-2.15-.12-3.2s-.16-2.09-.17-3.1c0-2-.3-4-.42-5.86.6-.3,1.27-1.63,2-3.42s1.58-4,2.49-6.23c1.66-4.39,3.45-8.53,3.28-8.79.26-.89.49-1.79.77-2.68l.93-2.66c.58-1.79,1.39-3.51,2.12-5.27-.52,1.2-1,2.4-1.57,3.59l-1.35,3.65,1.35-3.65c.52-1.19,1-2.39,1.57-3.59a83,83,0,0,1,22.94-29.7,91.84,91.84,0,0,1,35.44-18l3-.78,3.56-.74c1.26-.3,2.61-.47,4-.71l2.16-.33,2.26-.25a98.42,98.42,0,0,1,20.06-.13,94.35,94.35,0,0,1,19.62,4,92.32,92.32,0,0,1,14.12,5.91c1.91,1.09,3.86,2.07,5.73,3.28-1.54-1-2.34-1.47-3.14-1.93s-1.57-1-3.2-1.82c1.09.4,2.12.91,3.17,1.35s2.08.9,3.06,1.41l3,1.48,2.84,1.6c1,.51,1.86,1.08,2.76,1.66s1.81,1.11,2.68,1.71c1.7,1.22,3.45,2.37,5,3.69-.45-.59-.68-1-1.09-1.56A27.15,27.15,0,0,0,164,26c1.06.95,2.18,1.83,3.19,2.83a29.32,29.32,0,0,1,3.14,2c1.14.92,2.37,2,3.61,3l3.44,3.32c1,1.09,2,2.08,2.74,2.82-.48-.19-.17.34.45,1.24s1.54,2.17,2.42,3.35l-.48-1.1a120.53,120.53,0,0,1,9.43,14.72,88.42,88.42,0,0,1,6.52,15.27,10,10,0,0,1,.57,3l.74,2.28c.25.75.42,1.53.64,2.3.42,1.54.86,3.08,1.16,4.65-.37-.31-.15,1.67,0,3.16s.13,2.52-.34.3c1.77,7,1.59,14.27,1.9,21.11a102.56,102.56,0,0,1-2.76,18.4,103.63,103.63,0,0,1-6.22,18,106.44,106.44,0,0,1-21.92,31.53l.62-.26a119.68,119.68,0,0,1-9.73,9.1,56.75,56.75,0,0,1-12.52,8,92.86,92.86,0,0,1-11.49,6.23c-2,.83-3.75,1.74-5.28,2.39a18.05,18.05,0,0,0-3.42,1.83c-2.26.58-4.18,1.13-5.95,1.56s-3.36.84-5,1.18-3.21.66-5,1-3.75.55-6.07.71c1.21.28-1,.54-3,.76s-3.63.35-1.42.62c6.27.75,6.58-.05,11.94.18l-.18-.2a104.17,104.17,0,0,0,36.2-9.32,106.45,106.45,0,0,0,31-21.83A127.07,127.07,0,0,0,198.62,159l1.68-2.92,1.56-3c1.07-2,1.93-4.07,2.88-6.1.46-1,.84-2.09,1.27-3.13s.85-2.07,1.19-3.14c.7-2.12,1.46-4.22,2-6.37a107.43,107.43,0,0,0,2.91-14.21c.25-2.42.6-4.83.69-7.25.06-1.21.15-2.42.19-3.62s0-2.4,0-3.6a102.74,102.74,0,0,0-3.55-26.53c-.27-.93-.45-1.82-.65-2.65s-.37-1.63-.52-2.42-.27-1.56-.41-2.34-.33-1.56-.52-2.37a117.71,117.71,0,0,0-10.61-22.29,103.72,103.72,0,0,0-16.38-20.27,7.35,7.35,0,0,1,.57.59c-1.62-1.53-3.1-3-4.58-4.39s-2.89-2.74-4.4-4-3-2.54-4.59-3.71l-2.46-1.81-2.7-1.72c-.06.18-1.21-.55-1.81-.82a11.22,11.22,0,0,0-2.22-1.48l-2.33-1.32-3.06-1.5A102.57,102.57,0,0,0,136,.53a110,110,0,0,0-17.83-3.21c-1.27-.12-2.45-.25-3.51-.33l-2.85-.16c-1.64-.11-2.74-.19-3.12-.24l-2.78,0A119.87,119.87,0,0,0,78.53-1.54,86.8,86.8,0,0,0,54.19,6.72L52,8.2,49.8,9.78l-2.07,1.54c-.64.53-1.24,1-1.79,1.52a9.87,9.87,0,0,0-2.6,1.72,19,19,0,0,1-2.77,2.24,32.31,32.31,0,0,0-8,5.05c-1.32,1.19-1.21,1.53.65.31A127.14,127.14,0,0,0,19.3,36.88c-1.72,2.31-3.26,4.74-4.79,7.2a13.26,13.26,0,0,1-3.18,4c-2.94,5.62-2.43,3.75-5.56,9.64a14.11,14.11,0,0,0-1.47,3c-.65,1.54-1.24,3.57-1.89,5.57S1.32,70.38.88,72,.23,74.94.06,75.38l.21-1.07C0,75.23-.29,76.1-.57,77s-.5,1.67-.74,2.48c-.51,1.6-1,3.12-1.42,4.67a53.12,53.12,0,0,0-2,10l-.38,4c-.08,1.33-.11,2.67-.17,4l-.07,2,0,2c0,1.35,0,2.7.11,4.06A111.15,111.15,0,0,0-3.1,126.28a118.91,118.91,0,0,0,4.46,15.39,127.19,127.19,0,0,0,6.2,13.89c.64-.11-2.09-3.77-1.45-4.33a138.48,138.48,0,0,0,8.33,15.12c.81,1.2,1.56,2.44,2.42,3.61l2.58,3.52c1.82,2.26,3.67,4.52,5.7,6.62,1.29,1.67,3,3.62,3.55,4.44a8,8,0,0,0,2.14,1.89,6.29,6.29,0,0,1,1.69,1.25l-.08.67a24.43,24.43,0,0,1,3.76,3.18c.51.52,1,1.05,1.59,1.56a17.8,17.8,0,0,0,2.06,1.5c.3-.08,1.43.73,2.54,1.49-.27.53,3.52,2.21,3.07,2.56l0,0c.68.46,1.21.71,2,1.3l2.95,1.26c1.48.62,3.39,1.29,5.26,2s3.82,1.23,5.34,1.71,2.7.71,3.08.8l.64.36c2,.78,3,.61,1.87.12l2.47.87-.3-.05,2.46.86c.44.21.89.61.09.66a22.89,22.89,0,0,1,4.52,1.07c-1.93-.76-4.11-1.53-6.21-2.56-1.06-.5-2.13-1-3.15-1.5l-2.93-1.63a25,25,0,0,1,3.12,1.2c1.16.47,2.34.92,3.25,1.2.5.27,1.15.59,1.9.94s1.6.64,2.5,1,1.83.71,2.77,1l2.76.86c.8.13,1.46-.33,3.18.27.79.61,2,.35,3.46.94a29.15,29.15,0,0,1-5.14-.84c.17.64,4.16,1.14,5.52,1.54.67,0,4,.56,6.19.65-1,.45,1.7.47,3,.84,1.45.18,2.39,0,1.81-.19.5-.53-5.72-.78-3.66-1.21a21,21,0,0,0,4.85.48c0-.3-1-.26,0-.53,1.68.12,3.47-.21,4.43.13a7.55,7.55,0,0,1-1.5,0c1.09,0-1.88.53-4.82.81s-5.84.45-4.39.51c-.36-.18,2.85-.36,5.91-.59s6-.67,5.28-.7c-1.33-.18.94-.53-.43-.67l-1.53.33c-1.88-.16-2.63-.72-2-.92.78,0,.62.17,0,.35a21.15,21.15,0,0,1-3,.54c-2.32.31-4.74.56-3.37.51-.36-.08-.73-.14-1.09-.25a19.75,19.75,0,0,1,5.41.38c0-.28,1.57-.35,2.86-.43l.45.06c1.33-.12,3.17,0,2.31-.42-3.86-.08-2.56-.82-1.27-1.59s2.58-1.57-1-1.75c1.52.38,1.27.54.22.61a35.64,35.64,0,0,1-4.48,0,12.78,12.78,0,0,0-4-1c-2-.2-1.19.09-1.59.22-1.08-.29-3.16-.69-2.83-1-1.6.2-2.39-.69-4.24-.86-1.65-.1.07.2-1.11.19-2.4-.57-5.75-1.37-7.59-2-.65-.53-2.67-1.72-.93-1.76,3.52,1.08-1.59.42,2.14,1.37-.69-.6.14-.41,1.24-.13a8,8,0,0,0,2.92.35,11.19,11.19,0,0,0-2.42-.86c-1-.28-2.07-.59-3.07-.82l.37.21a28,28,0,0,1-7-2.39c.53-.11-.21-.57,1.07-.21-.79-.26-1.56-.57-2.32-.9-.32,0-.65-.08,0,.24a9.85,9.85,0,0,1-3-1.25,14,14,0,0,0-2-.82c-1.16-.45-2.76-.91-4.25-1.55s-3-1.16-4.09-1.66a14.1,14.1,0,0,1-1.63-.79c-1.57-.91-1.75-1.45-3.37-2.18A50.63,50.63,0,0,0,56.68,195l2.66,1.15c.83.34,1.6.6,2.21.83,1.21.45,1.81.66,1.26.43a35.58,35.58,0,0,0-3.52-1.52c-1.81-.83-4.17-1.77-6.42-2.94s-4.46-2.37-6.16-3.34a15.88,15.88,0,0,1-3-2.13c-1.12-.74-2.42-1.69-2.35-1.27-1.69-1.52.87,0-.23-1.23-.06,0,0,.2-.38-.13l-1-1.23a36.45,36.45,0,0,1-4.74-3.81c-.78-.75-1.57-1.51-2.36-2.21s-1.56-1.34-2.29-1.92a29.7,29.7,0,0,1,4.09,2.42l.2.39c.15.08.58.44,1,.74s.85.52.93.39c-.79-.78-1.48-1.53-2.26-2.23s-1.61-1.35-2.52-2.09c-.24-.36-.53-.78-.7-1.08,0,0,0,.08-.06.1-.4-.67-.32-.63-.05-.51l.16.07c-.17-.79-1.79-2.22-3.53-4a32.74,32.74,0,0,1-4.77-5.57c-.78-.89-.18,0-1.17-1.11-.52-.89-1-1.71-1.48-2.5s-.86-1.58-1.28-2.35L17.69,156c-.42-.83-.86-1.71-1.35-2.66-1-1-1.18-1-.68.59-.51-1-1-1.93-1.46-2.92,2.19,2.16-1.94-5.8.4-3.34a20.74,20.74,0,0,0-1.85-4.26c-.29-.07-.8-.16-1.62-2.27a46.62,46.62,0,0,1-1.26-4.87c.1-.68.52.18.73,0-1.69-3.64-.43-3.5-1.53-7.06-.69-2.23-1.71-6.74-2.22-6.76C6.32,119.26,6.71,119.2,7.21,119.44Z"/></svg>