<svg id="Layer_1" data-name="Layer 1" xmlns="http://www.w3.org/2000/svg" width="313.64" height="314.84" viewBox="0 0 313.64 314.84"><defs><style>.cls-1{fill:#fff;}.cls-2{stroke:#020202;}.cls-2,.cls-3{stroke-miterlimit:10;}.cls-3{stroke:#000;stroke-width:6px;}.cls-4{fill:none;}.cls-5{fill:#ff8500;}</style></defs><title>Artboard 7</title><circle class="cls-1" cx="160.04" cy="157.86" r="148"/><path class="cls-2" d="M87.23,191c0,.37,0,.75-.06,1.15a2.83,2.83,0,0,1-.39,1.12,3.11,3.11,0,0,1-.91.94,3.59,3.59,0,0,1-1.64.56,3.59,3.59,0,0,1,1.64.56,2.91,2.91,0,0,1,.91,1,3.1,3.1,0,0,1,.39,1.18c0,.42.06.8.06,1.12v17.18a4.51,4.51,0,0,1-4.47,4.47H72.92V169.45h9.84a4.34,4.34,0,0,1,3.15,1.33A4.4,4.4,0,0,1,87.23,174Zm-5.09,3.77a2.88,2.88,0,0,0,2.16-1.5,5.67,5.67,0,0,0,.56-2.48V174.55a3.45,3.45,0,0,0-.59-2.27,2.9,2.9,0,0,0-2.2-.66H75.29v46.59h6.78a2.86,2.86,0,0,0,2.2-.67,3.42,3.42,0,0,0,.59-2.27V198.86a5.86,5.86,0,0,0-.56-2.51A2.85,2.85,0,0,0,82.14,194.81ZM76,172.32h6.08a2.11,2.11,0,0,1,1.64.52,2.61,2.61,0,0,1,.45,1.71v16.28a4.59,4.59,0,0,1-.7,2.51c-.46.75-1.44,1.12-2.93,1.12H76Zm4.54,22.84c1.49,0,2.47.38,2.93,1.15a4.8,4.8,0,0,1,.7,2.55v16.41a2.63,2.63,0,0,1-.45,1.72,2.14,2.14,0,0,1-1.64.52H76V195.16Zm1.19-2.87V174.41H78.43v17.88Zm-3.29,5v18h3.29v-18Z"/><path class="cls-2" d="M91.63,169.45h5.59V220.3H91.63Zm3.15,2.1h-.7v46.66h.7Z"/><path class="cls-2" d="M101.62,220.3V169.45h5.52v45.89h5.73v5Zm9.15-2.79H104.7v-46H104v46.66h6.77Z"/><path class="cls-2" d="M116,220.3V169.45h5.52v45.89h5.73v5Zm9.15-2.79h-6.08v-46h-.69v46.66h6.77Z"/><path class="cls-2" d="M126.56,186,128,169.25h5.24L130.61,186Zm2.65-2.1,1.54-12.57h-.7l-1.54,12.57Z"/><path class="cls-2" d="M144.72,203.82a3.46,3.46,0,0,0-.14-1,5.55,5.55,0,0,0-.49-1l-7.27-12.15a5.06,5.06,0,0,1-.66-1.68,10.25,10.25,0,0,1-.1-1.53V173.72a4,4,0,0,1,1.25-3.25,5.41,5.41,0,0,1,3.5-1h4.67a5.42,5.42,0,0,1,3.5,1,3.92,3.92,0,0,1,1.25,3.25v12.22h-5.51V174.41h-3.15v11.53a2.91,2.91,0,0,0,.18,1.08,6.64,6.64,0,0,0,.45.94l6.85,11.46a7,7,0,0,1,.63,1.12,9.43,9.43,0,0,1,.35,1,5.17,5.17,0,0,1,.17,1.12c0,.42,0,.93,0,1.54V216a3.92,3.92,0,0,1-1.25,3.25,5.42,5.42,0,0,1-3.5,1h-4.67a5.4,5.4,0,0,1-3.5-1,4,4,0,0,1-1.25-3.25V203.82h5.51v11.52h3.15Zm3.14-20v-9.15a3.45,3.45,0,0,0-.59-2.27,2.9,2.9,0,0,0-2.2-.66h-3.85a3,3,0,0,0-2.2.63,3.28,3.28,0,0,0-.59,2.23v11.11a12.08,12.08,0,0,0,.11,1.57,3.36,3.36,0,0,0,.45,1.36l7.26,12.09a6.41,6.41,0,0,1,.77,1.64,6.53,6.53,0,0,1,.21,1.78v10.89a2.63,2.63,0,0,1-.45,1.72,2.14,2.14,0,0,1-1.64.52h-3.85a2.14,2.14,0,0,1-1.64-.52,2.63,2.63,0,0,1-.45-1.72v-9.15h-.7v9.15a3.42,3.42,0,0,0,.59,2.27,2.86,2.86,0,0,0,2.2.67h3.85a2.86,2.86,0,0,0,2.2-.67,3.42,3.42,0,0,0,.59-2.27V204.17a7.48,7.48,0,0,0-.24-2,7.28,7.28,0,0,0-.88-1.81l-7.05-11.81a3.51,3.51,0,0,1-.49-1.25,8.16,8.16,0,0,1-.14-1.54V174.62a2.44,2.44,0,0,1,.45-1.67,2.17,2.17,0,0,1,1.64-.49h3.85a2.11,2.11,0,0,1,1.64.52,2.61,2.61,0,0,1,.45,1.71v9.15Z"/><path class="cls-2" d="M175.38,215.83a4.34,4.34,0,0,1-1.33,3.15,4.29,4.29,0,0,1-3.14,1.32h-9.85V169.45h9.85a4.3,4.3,0,0,1,3.14,1.33,4.41,4.41,0,0,1,1.33,3.21ZM173,174.55a3.45,3.45,0,0,0-.59-2.27,2.9,2.9,0,0,0-2.2-.66h-6.78v46.45h6.78a2.86,2.86,0,0,0,2.2-.67,3.42,3.42,0,0,0,.59-2.27Zm-.7,40.58a2.63,2.63,0,0,1-.45,1.72,2.13,2.13,0,0,1-1.64.52h-6.08V172.32h6.08a2.09,2.09,0,0,1,1.64.52,2.61,2.61,0,0,1,.45,1.71Zm-2.44-40.72h-3.28v40.93h3.28Z"/><path class="cls-2" d="M179.78,169.45h5.59V220.3h-5.59Zm3.14,2.1h-.7v46.66h.7Z"/><path class="cls-2" d="M194.66,169.45,199.82,195V169.45h5.45V220.3h-4.89L195.21,194V220.3h-5.44V169.45Zm-1.82,48.76V174.69l9.36,43.52h.7V171.62h-.7v43.51l-9.36-43.51h-.7v46.59Z"/><path class="cls-2" d="M209.46,220.3V169.45h11.6v5H215v17.88h5.1v5H215v18h6.08v5Zm9.5-2.79h-6.42V195.16H218v-.7h-5.44V172.32H219v-.7h-7.12v46.59H219Z"/><path class="cls-2" d="M234,169.45a4.38,4.38,0,0,1,3.21,1.33,4.28,4.28,0,0,1,1.33,3.14v16.91c0,.37,0,.78-.07,1.22a3.18,3.18,0,0,1-.39,1.22,2.73,2.73,0,0,1-.94,1,3.91,3.91,0,0,1-1.67.56q2.16.34,2.61,1.5a6.05,6.05,0,0,1,.46,2.27V220.3H233v-23h-3.28v23H224.2V169.45Zm2.16,48.76V198.86a5.72,5.72,0,0,0-.56-2.51,2.85,2.85,0,0,0-2.16-1.54,2.87,2.87,0,0,0,2.16-1.54,5.72,5.72,0,0,0,.56-2.51V174.69a3.45,3.45,0,0,0-.59-2.27,2.9,2.9,0,0,0-2.2-.66h-6.78v46.45h.7V195.16h4.54c1.49,0,2.47.38,2.94,1.15a4.89,4.89,0,0,1,.7,2.55v19.35Zm-8.87-45.75h6.08A2.09,2.09,0,0,1,235,173a2.61,2.61,0,0,1,.46,1.71v16.07a4.89,4.89,0,0,1-.7,2.55c-.47.77-1.45,1.15-2.94,1.15h-4.54ZM233,192.29V174.41h-3.28v17.88Z"/><path d="M47.1,152.63a5.75,5.75,0,0,0,1.71-.51C44.71,152.93,43,153.2,47.1,152.63Z"/><path d="M254.27,122a20.33,20.33,0,0,0,1.59-7.8c0-17.87-24.22-32.36-54.1-32.36-20.25,0-37.89,6.66-47.16,16.52-9.27-9.86-26.91-16.52-47.16-16.52-29.88,0-54.1,14.49-54.1,32.36a20.84,20.84,0,0,0,2.54,9.82c.19,10.8-.82,25.06-7.07,28.07,8.49-1.69,27.42-5.77,27.42-9.84a4.17,4.17,0,0,1,.29-1.5h0L79,148.32A50.41,50.41,0,0,1,86,144c1.41.37,2.86.69,4.33,1a13.21,13.21,0,0,1-.25,4.24A43.14,43.14,0,0,1,97,146q2.79.33,5.67.48a25.18,25.18,0,0,1,4.12,2.72l4.81-2.69a88.32,88.32,0,0,0,9.54-.94l.91,7.95s7.39-6.64,10.16-10.49c.91-.28,1.8-.57,2.68-.88,2.1,2.12,5.2,5.33,5.2,5.33l3.15-9,.43-.22c1,1.08,4.74,5.21,4.74,7.44,0,1.56,4.11-2.93,6.16-7.19,1.1,4.71,7.12,11.66,7.12,9.78,0-2.59,5-7.72,5-7.72l3.32,9.45s6.12-6.34,7-7.06H177l-.11.14c-1.39,1.73,11.1,13,11.1,13l1.19-10.38c1.35.19,2.72.36,4.11.49l10,5.57s4.16-3.45,7.05-3.68,9.59,3.68,9.59,3.68-1.39-6,1.39-6,9.71,5.18,9.71,5.18l2.47-7.54a3.93,3.93,0,0,1,.3,1.5c0,4.07,18.93,8.15,27.42,9.84C254,151.24,253.75,132.88,254.27,122Z"/><path d="M261.19,154.71a5.75,5.75,0,0,0,1.71.51C267,155.78,265.29,155.52,261.19,154.71Z"/><path d="M155,310A155,155,0,0,1,45.4,45.4,155,155,0,1,1,264.6,264.6,154,154,0,0,1,155,310ZM155,4.31C71.91,4.31,4.31,71.91,4.31,155S71.91,305.69,155,305.69,305.69,238.09,305.69,155,238.09,4.31,155,4.31Z"/><path class="cls-3" d="M155,290.3c-76.76,0-139.21-62.45-139.21-139.21S78.24,11.88,155,11.88,294.21,74.33,294.21,151.09,231.76,290.3,155,290.3Zm0-274.12C80.61,16.18,20.09,76.7,20.09,151.09S80.61,286,155,286s134.91-60.52,134.91-134.91S229.39,16.18,155,16.18Z"/><path d="M157,308.77c-83.29,0-151-67.76-151-151S73.71,6.66,157,6.66,308.05,74.43,308.05,157.72,240.29,308.77,157,308.77Zm0-289.19c-76.17,0-138.14,62-138.14,138.14S80.83,295.85,157,295.85s138.14-62,138.14-138.13S233.17,19.58,157,19.58Z"/><path class="cls-4" d="M157,308.77c-83.29,0-151-67.76-151-151S73.71,6.66,157,6.66,308.05,74.43,308.05,157.72,240.29,308.77,157,308.77Zm0-289.19c-76.17,0-138.14,62-138.14,138.14S80.83,295.85,157,295.85s138.14-62,138.14-138.13S233.17,19.58,157,19.58Z"/><path class="cls-5" d="M15.19,135c-.26,1.22-.38,2.47-.57,3.7a131.65,131.65,0,0,1,10-35.9,131,131,0,0,0-7.88,19.72,118.61,118.61,0,0,0-4.36,21.25c-.14,1.78-.28,3.54-.42,5.29s-.11,3.5-.14,5.21a90.76,90.76,0,0,0,.46,10c.13,1.61.42,3.19.65,4.73s.45,3,.84,4.5a62.44,62.44,0,0,0,2.41,8.14c-.41.65-.54,2.79-.36,5.64a74.64,74.64,0,0,0,1.52,9.84c1.42,6.94,3.88,13.38,4.23,13.53.61,1.25,1.19,2.53,1.82,3.78l2,3.73c1.25,2.52,2.76,4.92,4.15,7.39-1-1.7-1.93-3.39-2.88-5.08L24,215.34l2.66,5.18c1,1.69,1.92,3.38,2.88,5.08a166.67,166.67,0,0,0,35.66,42.28,148.88,148.88,0,0,0,51.22,28.34l4.42,1.34,5.25,1.3c1.85.5,3.86.83,6,1.25,1.05.19,2.12.41,3.21.6l3.36.47a146.14,146.14,0,0,0,59.75-4.08,166,166,0,0,0,21.83-8c3-1.48,6.06-2.84,9-4.54-1.24.66-2.16,1.17-2.95,1.55l-2.06,1c-1.28.58-2.52,1.25-5.1,2.34,1.59-.77,3.07-1.69,4.58-2.52s3-1.67,4.38-2.6l4.22-2.66c1.34-.95,2.68-1.88,4-2.81s2.6-1.88,3.86-2.85,2.52-1.91,3.73-2.9c2.37-2,4.79-3.95,7-6.07-.91.59-1.48.88-2.34,1.41s-2.08,1.2-4.2,2.61l2.5-1.84q1.26-.9,2.46-1.89c.92-1.09,2.23-2.44,3.73-3.91s3.07-3.22,4.72-4.9l4.61-5.1c1.37-1.67,2.59-3.19,3.51-4.4-.26.64.45.09,1.5-1.06s2.47-2.93,3.8-4.58l-1.27,1.14a130.65,130.65,0,0,0,13.52-21.18,147.51,147.51,0,0,0,9.11-22c.34-.94.63-1.77.88-2.46s.51-1.25.71-1.67l.86-3.33c.28-1.12.47-2.25.72-3.37.46-2.25.94-4.49,1.24-6.77.21.58.85-2.21,1.33-4.33s.65-3.6.42-.3c.81-10.32,1.63-20.81.23-30.58a136.6,136.6,0,0,0-46.83-94.32l.48.78c-1.15-1.07-2.38-2-3.58-3s-2.37-1.9-3.61-2.77c-2.49-1.73-4.93-3.5-7.57-5.12s-5.34-3.29-8.18-5c-1.43-.85-3-1.66-4.47-2.55s-3.12-1.76-4.78-2.66a150.31,150.31,0,0,0-16.5-6l-4-1a31.82,31.82,0,0,0-3.5-.76,29.78,29.78,0,0,0-5-.57c-1.48-.35-2.87-.62-4.16-.89s-2.5-.54-3.68-.68c-2.33-.31-4.43-.62-6.54-.82l-6.51-.46-3.67-.12c-1.29,0-2.66-.16-4.14-.12,1.51.36-1.38.48-3.9.59s-4.78.31-1.79.53c3.89.57,5.93.58,7.83.74a46.14,46.14,0,0,1,6.89.95l-.17-.24a136.35,136.35,0,0,1,80.17,41.31c14.75,14.34,26.15,34.3,32.07,54.78a134.71,134.71,0,0,1,4,17c.38,2.92.92,5.82,1.11,8.75.13,1.46.29,2.92.39,4.38s.12,2.92.18,4.36a136.26,136.26,0,0,1-2.79,32.58c-.24,1.17-.45,2.25-.76,3.26s-.65,2-1,2.87-.69,1.81-1,2.71-.77,1.78-1.18,2.71A126.22,126.22,0,0,1,270.15,227a146,146,0,0,1-19.61,25.09l.73-.69c-1,1-1.94,1.87-2.87,2.77s-1.84,1.78-2.81,2.55l-2.82,2.33-1.39,1.14L240,261.26c-1.91,1.41-3.79,2.85-5.83,4.19l-3.06,2.12-3.27,2.11c.15.12-1.24,1-1.87,1.54A18.57,18.57,0,0,0,223,272.7l-2.83,1.64-3.65,2a142.39,142.39,0,0,1-20.12,8.8,130.24,130.24,0,0,1-21.75,5.42c-1.57.23-3,.48-4.35.64l-3.54.33a23.91,23.91,0,0,1-3.9.19l-3.47.19a121.47,121.47,0,0,1-33.59-4.8,159.85,159.85,0,0,1-29.07-11.59l-3-1.21-3-1.38-2.88-1.31c-.9-.46-1.77-.89-2.58-1.28a17.36,17.36,0,0,0-3.25-2.08,28.87,28.87,0,0,1-3.7-2.37c-3.76-3.79-6.76-6.64-8.4-8s-2-1.27-.17.74a121.85,121.85,0,0,1-17.39-18c-2.36-2.69-4.49-5.53-6.68-8.4a18.77,18.77,0,0,1-3-5.6c-4.11-6.65-2.67-4.84-6.15-12.22a20.79,20.79,0,0,0-1.59-3.75c-.47-.91-.93-2-1.43-3.09s-1-2.29-1.58-3.47c-1-2.38-2-4.8-2.75-6.76s-1.18-3.51-1.29-4.08l.45,1.27c-.31-1.15-.6-2.25-.86-3.32S27.2,189,27,188s-.33-2-.48-3-.22-2-.32-2.95c-.44-3.89-.66-7.76-1.07-12.33-.1-1.59-.2-3.2-.3-4.81s-.05-3.23-.09-4.85l0-2.45.08-2.45c.07-1.63.07-3.27.18-4.91a149.18,149.18,0,0,1,2.56-19.55,145.22,145.22,0,0,1,5.29-18.62,133.94,133.94,0,0,1,7.62-16.75c-.44-.49-2.25,4.7-3.12,4.59A119.32,119.32,0,0,1,48.42,82.06c1.08-1.39,2.09-2.83,3.22-4.17l3.37-4,3.54-3.91c1.14-1.33,2.44-2.52,3.64-3.8a48.11,48.11,0,0,1,5.29-4.26A21.85,21.85,0,0,0,70,59.54a8.7,8.7,0,0,1,1.78-1.77l.7.14c.41-.43.81-.82,1.2-1.18s.79-.64,1.17-.92c.76-.56,1.5-1,2.22-1.48l2.21-1.39a24.88,24.88,0,0,0,2.46-1.72A10.21,10.21,0,0,1,84.4,49c.4.45,4.1-2.68,4.19-2.1l0-.06a16.44,16.44,0,0,1,2.44-1.38l3-2.19c1.55-1.1,3.57-2.33,5.57-3.64s4.13-2.39,5.78-3.37l3.38-1.78.85-.23c2.38-1,3.3-1.69,1.83-1.33l3-1-.34.16,3-1c.57-.15,1.29,0,.5.45a33.52,33.52,0,0,1,5.33-1.74c-2.44.54-5.23,1-8,1.72l-4.16,1-4,1.1a37.69,37.69,0,0,1,3.85-1.55c1.47-.48,3-.91,4.08-1.32.7-.13,1.57-.33,2.55-.56l3.24-.65c1.16-.23,2.35-.52,3.54-.74l3.47-.58a8,8,0,0,0,1.37-.65,5.29,5.29,0,0,1,2.35-.56c1.15.26,2.47-.46,4.35-.46-2.05.63-4.12.83-6.23,1.26.46.39,5.21-.58,6.9-.74.76-.31,4.89-.65,7.46-1.1-1.08.6,2.12.17,3.67.33,1.75-.07,2.85-.37,2.13-.49.54-.61-7,.19-4.6-.59.67.25,4.1-.17,6-.25,0-.31-1.29-.21-.09-.53,2.07,0,4.27-.41,5.46-.12a12.86,12.86,0,0,1-1.85.07c.68,0,.1.13-1.08.35s-3,.45-4.72.87l-4.52,1c-1.06.23-1.46.42-.61.26-.46-.1,3.27-.87,7-1.54,3.69-.51,7.32-1,6.42-1-1.65-.11,1.18-.58-.53-.65l-1.89.42c-2.33-.05-3.32-.57-2.5-.8,1,0,.78.13,0,.34s-2.2.49-3.6.87c-2.81.7-5.64,1.35-4,1.07-.45,0-.9-.05-1.35,0a26.83,26.83,0,0,1,6.59-.57c0-.34,1.89-.48,3.47-.63l.56,0c1.63-.19,3.92-.18,2.85-.56-4.79.15-3.25-.66-1.63-1.51s3.33-1.72-1.44-1.68c2,.28,1.67.46.32.6s-3.72.15-5.8.4a19.32,19.32,0,0,0-5.32-.32c-2.58.39-1.5.44-2,.68-1.45,0-4.21.25-3.9-.15-2,.71-3.25.29-5.64.85-2.09.57.17.16-1.29.63-3.16.65-7.6,1.56-10.07,2.26-1,0-4.15.23-2.16-.88,4.77-1.28-1.58,1.33,3.33-.19-1.16-.06-.08-.42,1.38-.87s3.36-.81,3.75-1.2a20.72,20.72,0,0,0-3.43.5c-1.35.31-2.81.78-4.14,1.19l.56-.05L117,24.8l-1.26.39-1.31.46A36.39,36.39,0,0,1,109.52,27c.51-.45-.67-.26,1-.91l-1.62.53-1.59.6c-.37.24-.75.48.18.18A17.8,17.8,0,0,1,103.37,29a13.24,13.24,0,0,0-2.69,1.25L98.14,31.6l-1.42.76-1.41.85c-1.87,1.16-3.75,2.23-5.06,3.12a20.68,20.68,0,0,1-2,1.32c-2.09,1.23-2.85,1.11-4.68,2.66a4.38,4.38,0,0,0,.78-.48c.51-.35,1.25-.83,2.15-1.38,1.81-1.1,4.14-2.71,6.53-4l3.41-2c1.07-.59,2.06-1.08,2.83-1.49,1.56-.81,2.33-1.22,1.61-.87a45.31,45.31,0,0,0-4.73,2.26c-2.36,1.36-5.39,3-8.23,4.91s-5.64,3.83-7.82,5.3a33.87,33.87,0,0,1-4,2.77c-.73.54-1.54,1.12-2.07,1.6s-.82.82-.57.8c-2.47,1.77.39-1-1.48.13,0,.07.23,0-.33.43l-1.86,1L66.83,52,63.54,54.8c-1.07,1-2.15,2-3.15,3.05-.51.5-1,1-1.45,1.5s-.85,1-1.23,1.52a27.67,27.67,0,0,1,3.7-5.21l.51-.28c.14-.19.66-.76,1.13-1.3s.91-1,.79-1.09a32.26,32.26,0,0,0-3.3,2.9,43.59,43.59,0,0,0-3.06,3.32c-.47.38-1,.82-1.38,1.11,0,0,.09,0,.11,0-.85.64-.8.54-.61.18a.85.85,0,0,1,.11-.21c-1,.42-3,2.65-5.1,5.44s-4.36,6-6.27,8c-.86,1.42,0,.21-1,2l-2.51,3.14c-.78,1-1.47,2-2.2,3s-1.45,2-2.17,3.08S35,87.29,34.2,88.56c-.65,1.84-.59,2,.89.22L33.91,90.7c-.38.65-.73,1.32-1.09,2,1-4.13-4.68,7.12-3.47,2.64a30.63,30.63,0,0,0-2.88,6c.13.33.26.83-.9,3.82-1.93,4.05-1.48,3.08-3,6.49-.58.73-.26-.6-.55-.54-1.48,5.57-2.21,4.57-3.67,9.83-.8,3.32-2.19,9.92-1.6,10.2C16,135.61,15.56,135.55,15.19,135Z"/><path class="cls-5" d="M13.26,180.72c-.23-1.24-.3-2.51-.46-3.76a156.63,156.63,0,0,0,9.45,36.62,172.32,172.32,0,0,1-5.51-20.69,206.24,206.24,0,0,1-3-21.37c-.13-1.77-.26-3.52-.38-5.25-.09-.87-.12-1.73-.14-2.6s-.07-1.71-.11-2.57c-.23-3.4-.16-6.73-.29-10,0-6.5-.06-12.56-.08-18,.64-.48,1.42-2.5,2.35-5.2s2-6.11,3.28-9.39c2.27-6.64,4.89-12.85,4.76-13.2.43-1.31.82-2.64,1.28-4l1.5-3.91c.94-2.65,2.2-5.17,3.36-7.77L26.84,95q-1.08,2.7-2.14,5.39,1.07-2.69,2.14-5.39l2.45-5.3A130.18,130.18,0,0,1,63.77,45.85a139,139,0,0,1,52.51-27.1l4.47-1.19L126,16.41c1.87-.46,3.89-.72,6-1.09,1.05-.17,2.12-.36,3.21-.52l3.37-.39a146.93,146.93,0,0,1,29.92-.36,139.08,139.08,0,0,1,50.55,14.47c2.88,1.61,5.82,3.05,8.63,4.82-1.17-.72-2-1.29-2.79-1.71L223,30.54c-1.22-.65-2.38-1.39-4.85-2.64,1.63.63,3.15,1.42,4.7,2.11l2.3,1.06c.77.36,1.49.77,2.24,1.15l4.39,2.29L235.94,37c.69.41,1.4.79,2.07,1.23l2,1.31c1.32.88,2.67,1.72,3.94,2.62,2.52,1.87,5.08,3.62,7.42,5.62-.72-.82-1.1-1.36-1.76-2.14s-1.67-1.75-3.57-3.52l2.42,2,1.21,1,1.16,1.07c1.23.78,2.78,1.91,4.5,3.22s3.44,3,5.25,4.61l5,5c1.51,1.63,2.87,3.11,4,4.24-.62-.36-.11.39.83,1.69s2.33,3.18,3.65,4.91l-.82-1.54a165.87,165.87,0,0,1,13.95,21.8,133.65,133.65,0,0,1,9.6,22.62c.16.48.31,1,.44,1.38s.19.84.26,1.22c.15.75.24,1.36.29,1.83l1.06,3.38c.35,1.13.6,2.28.91,3.42l.88,3.44c.32,1.14.5,2.31.75,3.46-.4-.48,0,2.43.27,4.64s.29,3.73-.33.42c2.29,10.36,2.24,21.18,2.33,31.3a149.35,149.35,0,0,1-4.15,27.19,151.8,151.8,0,0,1-9.33,26.5,154.27,154.27,0,0,1-32.73,46.17l.83-.48c-1.15,1.21-2.36,2.3-3.54,3.42s-2.32,2.27-3.54,3.32c-2.43,2.12-4.82,4.31-7.47,6.3s-5.41,4-8.41,6c-1.51,1-3.13,1.87-4.77,2.83-.84.47-1.66,1-2.54,1.41l-2.7,1.32a141.7,141.7,0,0,1-17,8.63l-4.13,1.71-1.89.81c-.6.26-1.2.47-1.76.69a37.63,37.63,0,0,0-5.08,2.31l-4.61,1.17c-1.44.35-2.76.77-4.06,1-2.58.54-4.9,1.12-7.23,1.57s-4.67.85-7.26,1.25l-4.11.47c-1.46.15-3,.38-4.69.43,1.75.27-1.51.55-4.4.79-1.45.14-2.78.24-3.33.32s-.35.19,1.28.31c9,.7,9.5-.12,17.2-.11l-.25-.19a151.73,151.73,0,0,0,51.92-13.88A154.46,154.46,0,0,0,270.19,267a172.25,172.25,0,0,0,22.59-30.27l2.42-4.18,2.22-4.3,1.11-2.15c.36-.72.68-1.47,1-2.2l2-4.4c.66-1.47,1.21-3,1.81-4.48s1.23-3,1.71-4.51c1-3,2.11-6.05,2.9-9.14A153.67,153.67,0,0,0,312.23,181c.37-3.48.9-6.93,1-10.41.11-1.74.24-3.47.31-5.2l.06-5.16a149.42,149.42,0,0,0-4.8-38.18c-.37-1.34-.62-2.61-.93-3.81s-.57-2.33-.81-3.46-.46-2.23-.69-3.34-.56-2.21-.87-3.37A165.31,165.31,0,0,0,290.38,76a153.25,153.25,0,0,0-23.47-29.21c.33.31.64.63.83.85-1.14-1.13-2.29-2.19-3.38-3.25s-2.12-2.12-3.23-3.06l-3.19-2.88-1.57-1.42-1.62-1.33c-2.16-1.78-4.28-3.6-6.63-5.26l-3.56-2.59-3.87-2.48c0,.19-1.69-.85-2.54-1.28a20.72,20.72,0,0,0-3.22-2.06l-3.35-1.91L227.2,18a151.69,151.69,0,0,0-24.1-9.14,159.28,159.28,0,0,0-25.63-4.91c-1.83-.18-3.52-.39-5.06-.52l-4.1-.25L163.8,2.8h-4A166.7,166.7,0,0,0,120.43,6,131.56,131.56,0,0,0,85.56,18.13l-3.24,2L79.13,22.3l-3,2.1c-.94.72-1.84,1.42-2.65,2.07a19.84,19.84,0,0,0-3.76,2.47,39.17,39.17,0,0,1-4,3.14,58.76,58.76,0,0,0-11.25,7.64c-1.9,1.7-1.84,2.08.76.23A172.77,172.77,0,0,0,35.07,61.1c-2.53,3.3-4.79,6.77-7.06,10.28a28.14,28.14,0,0,1-4.38,5.91c-4.34,8-3.44,5.45-7.87,13.95a28,28,0,0,0-2.07,4.32c-.49,1.09-.95,2.38-1.41,3.73s-1,2.79-1.46,4.22c-.9,2.9-1.69,5.84-2.36,8.18s-1,4.19-1.25,4.83L7.56,115c-.39,1.33-.78,2.59-1.17,3.81s-.68,2.43-1,3.59l-1,3.41c-.33,1.12-.57,2.24-.86,3.35A90.57,90.57,0,0,0,.91,143.51q-.25,2.82-.51,5.67c-.11,1.91-.15,3.83-.22,5.75l-.09,2.9.06,2.9c.05,1.94,0,3.89.16,5.83a162.76,162.76,0,0,0,3,23.2,171.77,171.77,0,0,0,6.37,22.09,182.07,182.07,0,0,0,8.93,19.93c.68,0-2.94-5.44-2.35-6.09a184.86,184.86,0,0,0,12.16,21.62c1.18,1.71,2.28,3.48,3.53,5.15l3.75,5,4,4.81c.66.82,1.36,1.59,2.08,2.35L44,266.9c1.91,2.35,4.45,5,5.3,6.16a14.51,14.51,0,0,0,3,2.72,13.41,13.41,0,0,1,2.38,1.84l0,.78c.58.43,1.1.84,1.59,1.24s1,.76,1.41,1.12c.88.74,1.64,1.45,2.4,2.16s1.48,1.43,2.34,2.13a35.65,35.65,0,0,0,3,2.14c.37,0,2,1.13,3.57,2.21-.24.55,5,3.17,4.5,3.48h.07c1,.66,1.71,1,2.89,1.83l4.14,1.94c2.08,1,4.76,2,7.39,3.11s5.39,1.95,7.53,2.72,3.82,1.16,4.35,1.31l.93.47c2.85,1.14,4.26,1.06,2.6.41L107,305.9l-.42-.1,3.54,1.23c.63.29,1.31.74.21.7a47.31,47.31,0,0,1,6.46,1.62c-2.8-1-6-2-9-3.4-1.54-.67-3.09-1.31-4.58-2l-4.3-2.16c1.21.37,2.85,1,4.5,1.75s3.39,1.27,4.69,1.68c.74.36,1.69.78,2.78,1.24l3.63,1.31c1.3.44,2.65.94,4,1.36l4,1.14a9.86,9.86,0,0,0,1.76.08,11.13,11.13,0,0,1,2.79.49c1.17.67,2.91.5,5,1.21a55,55,0,0,1-7.38-1.26c.3.7,6,1.48,8,2,1,0,5.81.79,8.89,1-1.4.41,2.45.52,4.26.94,2.07.22,3.42.11,2.58-.14.7-.51-8.22-1-5.29-1.34a40,40,0,0,0,7,.64c0-.31-1.48-.28-.06-.53,2.43.13,5-.18,6.38.18a16.23,16.23,0,0,1-2.16,0c.79,0,.11.15-1.28.3s-3.53.41-5.63.44l-5.48.21c-1.3.08-1.81.06-.78.15-.52-.19,4.05-.26,8.44-.4,4.41-.31,8.63-.6,7.58-.64-1.92-.2,1.37-.53-.61-.68l-2.21.32c-2.71-.18-3.79-.75-2.84-.94,1.13,0,.89.17-.05.34a33.14,33.14,0,0,1-4.25.48c-3.33.23-6.79.4-4.82.4-.53-.1-1.05-.16-1.57-.29a41.6,41.6,0,0,1,7.77.56c0-.26,2.26-.32,4.1-.38l.65.06c1.91-.1,4.57,0,3.34-.4-5.58-.11-3.71-.84-1.84-1.6s3.73-1.54-1.55-1.76c2.21.39,1.84.55.33.61a64.8,64.8,0,0,1-6.51-.11,25.66,25.66,0,0,0-5.8-1.2c-2.88-.32-1.72,0-2.29.13-1.58-.36-4.61-.87-4.16-1.17-2.29.1-3.5-.88-6.19-1.2-2.38-.22.13.21-1.58.11-3.49-.81-8.38-1.95-11.07-2.89-1-.63-4-2.1-1.53-1.93,5.15,1.54-2.21.24,3.22,1.67-1.06-.7.14-.41,1.75,0a17,17,0,0,0,4.24.66,24.67,24.67,0,0,0-3.57-1.13c-1.45-.4-3-.86-4.5-1.22l.55.27-2.34-.59-1.38-.37-1.43-.47a42,42,0,0,1-5.13-2c.73,0-.38-.62,1.48-.06l-1.72-.61-1.68-.69c-.46-.1-.93-.19,0,.25a20.4,20.4,0,0,1-4.4-1.81c-.08-.08-1.25-.55-3-1.22l-2.89-1.12L92,293l-1.63-.71c-2.17-1-4.36-1.83-5.89-2.6s-2.51-1.25-2.36-1.21c-2.29-1.33-2.65-2-5-3.13,0,0,.26.21.82.56l1,.63,1.39.74c2.05,1.05,4.7,2.57,7.42,3.74l3.85,1.76c1.21.52,2.33.93,3.2,1.29,1.76.69,2.64,1,1.84.69-.48-.32-2.47-1.12-5.15-2.28s-6.06-2.71-9.31-4.48-6.45-3.59-8.92-5a31.45,31.45,0,0,1-4.32-3.1c-.8-.56-1.7-1.16-2.35-1.59s-1.07-.66-1-.41c-2.52-2.15,1.11.18-.58-1.49-.07,0,.06.24-.52-.23L63,274.43a30.53,30.53,0,0,1-3.35-2.56l-3.54-3.08c-1.15-1.1-2.3-2.21-3.44-3.24-.57-.52-1.13-1-1.69-1.5s-1.06-1-1.58-1.39c1.27.93,2.95,1.75,5.62,3.92l.33.52c.21.13.84.68,1.44,1.14s1.2.82,1.27.68c-1.19-1.11-2.22-2.21-3.35-3.24s-2.33-2-3.62-3.15c-.38-.51-.84-1.1-1.12-1.51,0,0,0,.09,0,.11-.65-.93-.55-.86-.18-.65l.21.13c-.4-1-2.74-3.19-5.23-5.88a63.91,63.91,0,0,1-7-8.26c-1.1-1.35-.2-.05-1.6-1.73l-2.27-3.6c-.7-1.15-1.31-2.29-2-3.41s-1.31-2.24-2-3.45-1.32-2.49-2.06-3.89c-1.32-1.57-1.53-1.64-.64.67L26.15,229c-.37-.71-.7-1.44-1.06-2.15,2.83,3.4-3.24-8.34-.2-4.52A48.47,48.47,0,0,0,22.11,216c-.32-.15-.91-.35-2.11-3.47a72.13,72.13,0,0,1-2.1-7.11c0-1,.58.34.76.1-2.31-5.46-.95-5.1-2.54-10.39-1-3.33-2.49-10-3-10.11C12.34,180.39,12.73,180.34,13.26,180.72Z"/></svg>
