<svg id="Layer_1" data-name="Layer 1" xmlns="http://www.w3.org/2000/svg" width="144.5" height="144.5" viewBox="0 0 144.5 144.5"><defs><style>.cls-1{fill:#fff;}.cls-2{stroke:#000;stroke-miterlimit:10;stroke-width:6px;}.cls-3{fill:none;}.cls-4{fill:#ff8500;}</style></defs><title>Artboard 12</title><circle class="cls-1" cx="71.54" cy="76" r="65.5"/><path d="M22.75,93.24a2.68,2.68,0,0,0,.79-.24C21.63,93.38,20.85,93.5,22.75,93.24Z"/><path d="M119.31,79a9.29,9.29,0,0,0,.75-3.63c0-8.33-11.29-15.09-25.22-15.09-9.44,0-17.66,3.11-22,7.7-4.33-4.59-12.55-7.7-22-7.7C37,60.25,25.66,67,25.66,75.34a9.63,9.63,0,0,0,1.18,4.57c.09,5-.38,11.69-3.3,13.09,4-.79,12.78-2.69,12.78-4.59a1.94,1.94,0,0,1,.14-.7h0l1.15,3.51a22.88,22.88,0,0,1,3.27-2c.66.17,1.33.32,2,.46a6.09,6.09,0,0,1-.11,2A20.24,20.24,0,0,1,46,90.14c.87.1,1.75.17,2.64.22a12,12,0,0,1,1.93,1.27l2.24-1.26a39.93,39.93,0,0,0,4.45-.43l.42,3.7a45.64,45.64,0,0,0,4.74-4.89c.42-.13.84-.26,1.24-.41,1,1,2.43,2.48,2.43,2.48l1.47-4.17.2-.1C68.21,87.06,70,89,70,90c0,.73,1.91-1.37,2.87-3.35.51,2.19,3.32,5.43,3.32,4.56,0-1.21,2.33-3.6,2.33-3.6L80,92s2.85-3,3.25-3.29h0l0,.06c-.65.81,5.17,6,5.17,6L89,90c.63.09,1.27.17,1.91.23l4.65,2.6s1.93-1.61,3.28-1.72,4.47,1.72,4.47,1.72-.64-2.82.65-2.82,4.53,2.41,4.53,2.41l1.15-3.51a1.9,1.9,0,0,1,.14.7c0,1.9,8.82,3.8,12.78,4.58C119.18,92.59,119.07,84,119.31,79Z"/><path d="M122.54,94.2a2.4,2.4,0,0,0,.8.24C125.23,94.71,124.45,94.58,122.54,94.2Z"/><path d="M72.25,144.5A72.25,72.25,0,0,1,21.16,21.16,72.25,72.25,0,0,1,123.34,123.34,71.81,71.81,0,0,1,72.25,144.5ZM72.25,2a70.24,70.24,0,1,0,70.24,70.24A70.32,70.32,0,0,0,72.25,2Z"/><path class="cls-2" d="M72.25,135.32a64.89,64.89,0,1,1,64.89-64.89A65,65,0,0,1,72.25,135.32Zm0-127.78a62.89,62.89,0,1,0,62.88,62.89A63,63,0,0,0,72.25,7.54Z"/><path d="M72.25,142.66a70.41,70.41,0,1,1,70.41-70.41A70.5,70.5,0,0,1,72.25,142.66Zm0-134.8a64.39,64.39,0,1,0,64.39,64.39A64.47,64.47,0,0,0,72.25,7.86Z"/><path class="cls-3" d="M72.25,142.66a70.41,70.41,0,1,1,70.41-70.41A70.5,70.5,0,0,1,72.25,142.66Zm0-134.8a64.39,64.39,0,1,0,64.39,64.39A64.47,64.47,0,0,0,72.25,7.86Z"/><path class="cls-4" d="M3.26,61.21c-.13.6-.21,1.2-.31,1.8A59.44,59.44,0,0,1,8,45.61,56.64,56.64,0,0,0,3.55,55,47.58,47.58,0,0,0,1.06,65.4a37.65,37.65,0,0,0,.16,10.09,23.71,23.71,0,0,0,2.93,8.36c-.47.35-.77,1.43-.87,2.87a25.36,25.36,0,0,0,.29,4.94c.49,3.47,1.65,6.69,1.94,6.71l1,1.81L7.62,102c.69,1.2,1.5,2.35,2.23,3.53-.5-.82-1-1.63-1.52-2.44L6.9,100.57l1.43,2.48c.51.81,1,1.62,1.52,2.44a96.23,96.23,0,0,0,17.77,20.3A76,76,0,0,0,52.39,140a63.9,63.9,0,0,0,10.84,2.58,71.64,71.64,0,0,0,14.71.7,73.36,73.36,0,0,0,14.69-2.34,88.82,88.82,0,0,0,10.86-3.72c1.5-.7,3-1.34,4.5-2.15-1.25.62-1.89.89-2.53,1.16s-1.27.57-2.56,1.07a77.18,77.18,0,0,0,15.2-11.63,25.4,25.4,0,0,0-3.51,1.55c.82-.58,1.67-1.11,2.46-1.73a15.65,15.65,0,0,1,1.64-2.09c.66-.8,1.41-1.64,2.18-2.48l2.15-2.53c.63-.82,1.2-1.58,1.6-2.19,0,.38.36.17.91-.36s1.24-1.37,1.9-2.16l-.74.45a56.86,56.86,0,0,0,6.52-10.22,77.1,77.1,0,0,0,4.34-10.65,7.62,7.62,0,0,1,.93-1.94c.25-1.08.5-2.16.67-3.26s.39-2.18.51-3.28c.26.31.64-1,.92-2s.41-1.73.4-.11c0-5.05.64-10.11-.42-14.8A63.28,63.28,0,0,0,117.45,23l.15.45a51.15,51.15,0,0,0-7.29-4.75c-2.54-1.46-5.23-2.89-8.28-4.69a77.06,77.06,0,0,0-8-2.28c-2.61-.54-4.9-.71-6-.35-1.38-.28-2.55-.49-3.63-.61s-2.06-.18-3-.21l-3,0-3.58,0c.68.34-.64.5-1.78.65s-2.22.32-.81.55c3.48,1,3.7.24,6.58,1.23l-.06-.23A64.36,64.36,0,0,1,98,19.56,62.56,62.56,0,0,1,114,32a45.54,45.54,0,0,1,8.65,11,62.17,62.17,0,0,1,5.61,13.1,61.32,61.32,0,0,1,1.86,7.5c.19,1.29.45,2.57.56,3.86l.21,1.94c0,.65.09,1.29.13,1.93a64.2,64.2,0,0,1-.86,14.54,8.54,8.54,0,0,1-.86,2.71c-.37.8-.81,1.53-1.25,2.32A52.64,52.64,0,0,1,122.53,103a71,71,0,0,1-8.63,11.24l.34-.3c-3.42,3.52-6.7,5.29-10.59,7.94.12.14-.5.54-.75.82a3.67,3.67,0,0,0-1.33.57c-.36.2-.78.45-1.25.74l-1.61.9a70.33,70.33,0,0,1-8.84,4.22A56.15,56.15,0,0,1,80.2,132c-.7.13-1.35.26-2,.35l-1.59.18a6.47,6.47,0,0,1-1.76.06l-1.56.14a49.37,49.37,0,0,1-15-2.77,101,101,0,0,1-12.76-5.53l-1.41-.4-1.39-.47-2.61-.86c-1.11-1.13-1.73-.72-3.2-1.89a20.37,20.37,0,0,0-3.38-4.05c-.76-.6-1-.41-.32.61a48.66,48.66,0,0,1-7.84-8c-1.11-1.16-2.13-2.4-3.18-3.64A4.18,4.18,0,0,1,21.17,103c-2-2.91-1.1-2.22-2.57-5.55.08-.53-1.09-2.48-2.17-4.55-.53-1-1-2.09-1.44-3a11.33,11.33,0,0,1-.65-1.81l.25.55c-1-4.15-.41-7.12-.76-11.15a75.35,75.35,0,0,1,0-8.63A68,68,0,0,1,15,60.3a62.94,62.94,0,0,1,2.31-8.24,55.69,55.69,0,0,1,3.4-7.39c-.5-.38-.93,2.11-1.72,1.86C21.85,41,26,36.19,30.44,31.86A13.45,13.45,0,0,1,33,30.26c1.58-1.17.66-1,1.79-1.89l.51.3a4.53,4.53,0,0,1,2.05-1.51,8,8,0,0,0,2.13-1.23c0-.24.51-.7,1.09-1.06.36.47,1.78-1.19,2-.68v-.05a4.11,4.11,0,0,1,1.09-.56l1.22-1.14c.62-.57,1.44-1.22,2.26-1.91l2.38-1.82c.71-.49,1.24-.86,1.41-1l.4,0c1-.45,1.37-1,.7-.89l1.35-.42-.14.09L54.59,16c.26,0,.62.16.32.51a6.83,6.83,0,0,1,2.32-.88c-2.22.23-5,.56-7.44.92a7.83,7.83,0,0,1,1.72-.71c.67-.19,1.36-.35,1.85-.55.33,0,.73-.05,1.19-.1L56,15.07c1-.15,2.18-.27,3.18-.35.42-.11.57-.87,1.61-.76.56.37,1.1-.21,2,0a10.93,10.93,0,0,1-2.76.62c.27.47,2.35-.05,3.11,0,.32-.23,2.16-.28,3.29-.57-.45.56,1,.26,1.65.49.77,0,1.25-.24.93-.4.22-.59-3.11-.1-2.08-.78.31.26,1.83,0,2.66,0,0-.31-.58-.22-.06-.53.93.05,1.91-.35,2.45,0a2.22,2.22,0,0,1-.83,0c.6,0-1,.52-2.56,1.1s-3,1.17-2.22,1c-.22-.12,1.4-.71,3-1.25s3.25-.9,2.85-.9c-.74-.13.53-.57-.24-.66l-.85.4c-1-.09-1.5-.62-1.13-.84.89,0-.37.52-1.6,1.11s-2.47,1.11-1.76.9c-.2,0-.41-.08-.61-.1A5.54,5.54,0,0,1,69,13.18c0-.32.83-.44,1.53-.57l.25.05c.73-.18,1.76-.13,1.28-.52-2.15.08-1.48-.71-.75-1.54s1.53-1.67-.68-1.7c1.86.65-.6.66-2.5.88a4.81,4.81,0,0,0-2.49-.55c-1.19.21-.67.34-.88.53-.68-.06-2,0-1.85-.4-.87.55-1.53,0-2.62.33s.1.17-.56.49c-1.46.28-3.52.67-4.68,1-.53-.19-2.07-.37-1.22-1.14,2.25-.57-.61,1,1.66.28-.59-.23-.1-.42.59-.64s1.56-.4,1.71-.73A4.81,4.81,0,0,0,56.14,9a14.88,14.88,0,0,0-1.94.58l.28,0A18.57,18.57,0,0,1,50,10.88c.19-.34-.4-.36.39-.69-.51.14-1,.32-1.52.5-.16.16-.32.32.13.2a4,4,0,0,1-2,.71,17.59,17.59,0,0,0-3.69,2.21C41.58,15,40,16.27,40.1,16.14c-1,.58-1.45.33-2.23,1.18,0,.12,2.18-1.52,4.34-2.92,1.07-.71,2.12-1.39,2.85-1.8s1.06-.65.72-.47a10.72,10.72,0,0,0-2.2,1.11c-1.09.69-2.47,1.54-3.77,2.51s-2.55,1.94-3.55,2.66a7.1,7.1,0,0,1-1.89,1.28c-.69.49-1.45,1.17-1.12,1.28-1.2.76,0-.7-1-.29,0,.05.15.07-.11.26l-1,.32a26.57,26.57,0,0,1-2.84,2.65,13.26,13.26,0,0,0-2.63,2.95A8.22,8.22,0,0,1,27,24l.29-.08c.09-.22,1-1.13.74-1.31a11.13,11.13,0,0,0-3,3c-.25.15-.53.33-.74.44a.53.53,0,0,1,.1.06c-.48.24-.46.18-.42,0a.35.35,0,0,1,0-.12c-.61,0-1.54,1.16-2.46,2.55a28.1,28.1,0,0,1-2.9,3.89c-.36.71.07.15-.37,1-.93,1-1.7,1.85-2.43,2.78-.36.46-.74.91-1.11,1.41l-1.13,1.65c-.14,1,0,1.09.82.33-.39.6-.78,1.2-1.13,1.82.05-2.2-2.66,3.18-2.53.82a7.71,7.71,0,0,0-1.43,2.86c.17.21.42.53-.13,2-1.09,1.88-.81,1.44-1.68,3-.43.3-.34-.36-.6-.37-.52,2.75-1.41,2.1-2.09,4.67-.34,1.63-1,4.84-.43,5C4.06,61.56,3.67,61.5,3.26,61.21Z"/><path class="cls-4" d="M8.14,82.51C8,82,8,81.39,8,80.83a77.56,77.56,0,0,0,4,16.4,95.55,95.55,0,0,1-1.77-9.42c-.45-3.19-.68-6.39-.94-9.49s-.36-6.11-.63-9a58.8,58.8,0,0,0-1.15-8.12c.58-.17,1.18-1,1.8-2.18s1.27-2.62,1.94-4c1.24-2.85,2.45-5.53,2.25-5.74.14-.6.27-1.2.42-1.8l.53-1.78c.33-1.2.82-2.35,1.27-3.54l-1,2.41c-.26.81-.53,1.63-.8,2.44.27-.81.54-1.63.8-2.44l1-2.41A50.92,50.92,0,0,1,30.62,22.29,59.24,59.24,0,0,1,54.2,10.66a66.6,66.6,0,0,1,9.92-1.75A64.86,64.86,0,0,1,77.33,9,60.59,60.59,0,0,1,90.2,11.73a57.23,57.23,0,0,1,9.2,4c1.24.75,2.51,1.41,3.71,2.22-1-.7-1.5-1-2-1.33s-1-.65-2.08-1.24a57.84,57.84,0,0,1,15.11,8.07,11.13,11.13,0,0,0-2-3c.69.65,1.42,1.25,2.07,1.93a13.12,13.12,0,0,1,2.2,1.23c.79.58,1.63,1.26,2.47,2l2.34,2.17c.71.72,1.35,1.36,1.89,1.83-.38-.07-.21.31.18.93s1,1.47,1.56,2.26l-.23-.79a87,87,0,0,1,6.29,9.81A56.21,56.21,0,0,1,135.26,52a4.81,4.81,0,0,1,.27,2.05c.36,1,.71,2,1,3s.61,2,.84,3.09c-.35-.19-.25,1.14-.18,2.13s0,1.69-.36.22c1.43,4.6,1.16,9.47,1.62,14a70.06,70.06,0,0,1-5.86,24.33,73.48,73.48,0,0,1-14.41,21.38l.47-.13a89.3,89.3,0,0,1-6.38,6.38,32.45,32.45,0,0,1-8.42,5.49,60.83,60.83,0,0,1-7.67,4.55c-2.59,1.33-4.9,2.39-5.8,3.32L86.29,143l-3.39.9c-1.1.25-2.19.52-3.42.77s-2.57.44-4.16.58c.84.3-.71.53-2.09.74s-2.48.35-1,.6c4.35.8,4.56,0,8.3.39l-.14-.2a71.07,71.07,0,0,0,25.29-6.16,73,73,0,0,0,21.76-15.08,94.2,94.2,0,0,0,10.9-14.83,70.42,70.42,0,0,0,7.4-17.22,73.6,73.6,0,0,0,2-9.93c.17-1.69.4-3.37.44-5.06,0-.85.1-1.69.12-2.53s0-1.67,0-2.51A69.88,69.88,0,0,0,145.6,55a27.68,27.68,0,0,1-.77-3.53l-.21-1.65c-.08-.55-.18-1.1-.3-1.68a84.53,84.53,0,0,0-7.44-15.51,70.44,70.44,0,0,0-11.45-14.06,4.51,4.51,0,0,1,.39.42c-2.25-2.15-4.17-4.07-6.21-5.87-1-.89-2-1.79-3.16-2.62l-1.71-1.27c-.6-.4-1.23-.8-1.88-1.2-.07.17-.87-.33-1.31-.5A5.3,5.3,0,0,0,110,6.48c-.46-.27-1-.58-1.63-.92l-2.14-1A69.24,69.24,0,0,0,94.5.4a77.74,77.74,0,0,0-12.42-2l-2.43-.19-2-.09a21.21,21.21,0,0,1-2.16-.19l-1.93,0a87.77,87.77,0,0,0-19,.94,55.76,55.76,0,0,0-17,5.54L36,5.53,34.55,6.71,33.16,7.85c-.42.4-.83.78-1.19,1.15-1.83.73-1.74,1.53-3.68,2.8a17.76,17.76,0,0,0-5.77,3.26c-.91.84-.76,1.15.59.37a94.7,94.7,0,0,0-9.63,10.25c-1.17,1.63-2.2,3.34-3.23,5.07a6.52,6.52,0,0,1-2.33,2.7c-2,3.94-1.74,2.58-4,6.66a6.42,6.42,0,0,0-1,2.06c-.44,1.08-.81,2.51-1.23,3.91S1,49,.74,50.09a17,17,0,0,1-.53,2.34l.12-.74c-.2.63-.4,1.24-.61,1.82s-.37,1.16-.56,1.71c-.39,1.1-.79,2.15-1.11,3.22a30.89,30.89,0,0,0-1.6,6.91,68.28,68.28,0,0,0-.38,11.2A75.24,75.24,0,0,0-2.45,87.83,82.1,82.1,0,0,0,.67,98.56,93.88,93.88,0,0,0,5,108.27c.61-.17-1.49-2.62-.83-3.12a107.25,107.25,0,0,0,5.68,10.61,59.43,59.43,0,0,0,7.35,9.69c.87,1.2,2,2.63,2.34,3.25,1.76,2,1.35.82,2.73,2.15l-.17.6a11,11,0,0,1,2.62,2.26,9.21,9.21,0,0,0,2.51,2.21c.25-.11,1.05.45,1.83,1-.29.53,2.47,1.55,2.07,1.93l.05,0c.47.32.85.49,1.4.93l2.13.79c1.07.39,2.44.8,3.78,1.23s2.74.74,3.82,1,1.92.4,2.2.45l.43.27c1.39.55,2.15.3,1.37-.07l1.71.62-.21,0,1.71.61c.3.16.59.52,0,.63a11.71,11.71,0,0,1,3.18.68,48.79,48.79,0,0,1-8.41-4.38,11.72,11.72,0,0,1,2.16.82,21.44,21.44,0,0,0,2.25.85c.34.22.78.47,1.29.74s1.1.5,1.72.76,1.26.54,1.91.78l1.9.66c.56.08,1.06-.44,2.24.07.53.56,1.41.23,2.39.74a14.66,14.66,0,0,1-3.59-.55c.09.61,2.89.91,3.82,1.24.48-.09,2.82.38,4.33.4-.7.47,1.18.43,2,.77,1,.14,1.67,0,1.27-.23.35-.54-4-.64-2.53-1.13a10.46,10.46,0,0,0,3.37.39c0-.31-.71-.25,0-.53,1.17.1,2.41-.24,3.08.09a3.6,3.6,0,0,1-1,0c.76,0-1.31.53-3.37.87s-4.1.59-3.09.6c-.24-.16,2-.42,4.15-.71s4.19-.72,3.68-.74c-.92-.17.66-.54-.29-.67l-1.07.35c-1.3-.15-1.81-.71-1.35-.91,1.08,0-.46.59-2.09.94s-3.33.66-2.36.58c-.25-.07-.51-.13-.76-.22a9.61,9.61,0,0,1,3.77.25c0-.29,1.1-.37,2-.46l.32.06c.92-.13,2.2,0,1.6-.44-2.68,0-1.76-.8-.87-1.58s1.76-1.59-.71-1.74c2.08.7-.72.73-2.93.64a6.27,6.27,0,0,0-2.7-.95c-1.35-.12-.82.14-1.1.28-.74-.25-2.15-.56-1.91-.89-1.11.27-1.62-.55-2.89-.62s0,.19-.78.25a52.85,52.85,0,0,1-5.18-1.45c-.41-.47-1.73-1.45-.5-1.64,2.38.75-1.16.54,1.39,1.15-.44-.52.13-.41.88-.22s1.72.36,2,.13a5.56,5.56,0,0,0-1.62-.67c-.66-.2-1.4-.4-2.09-.54l.24.17a13.89,13.89,0,0,1-4.73-1.67c.38-.15-.09-.52.78-.3-.53-.18-1-.4-1.56-.63-.23,0-.46,0,0,.24a4.36,4.36,0,0,1-2-.87,39.65,39.65,0,0,0-4.31-1.46,27.17,27.17,0,0,1-4-1.52c-1.07-.61-1.12-1.1-2.27-1.51A27.88,27.88,0,0,0,40.2,134l1.83.72c.57.22,1.1.38,1.51.52.84.27,1.25.4.88.25a15.91,15.91,0,0,0-2.39-1c-1.25-.52-2.87-1.12-4.42-1.86s-3.08-1.52-4.25-2.16a7.09,7.09,0,0,1-2-1.46c-.77-.49-1.67-1.13-1.67-.77-1.13-1.06.69-.15,0-1-.05,0,0,.17-.29,0l-.59-.93a17.72,17.72,0,0,1-3.25-2.54,23,23,0,0,0-3.21-2.73,14.24,14.24,0,0,1,3,1.37l.1.3c.21.11,1.24.9,1.41.65a16.18,16.18,0,0,0-3.25-2.88c-.15-.26-.32-.56-.42-.78,0,0,0,.07-.07.1-.22-.5-.16-.48.05-.42l.12,0c0-.63-1.14-1.56-2.35-2.72a16.66,16.66,0,0,1-3.26-3.71c-.56-.58-.16,0-.87-.7l-.94-1.72c-.27-.55-.53-1.09-.8-1.62l-.82-1.63-.86-1.82c-.78-.62-.94-.62-.71.54-.34-.65-.67-1.31-1-2,1.75,1.3-1-4,.81-2.52a8.88,8.88,0,0,0-1.19-2.86c-.27,0-.73,0-1.28-1.44a27.17,27.17,0,0,1-.68-3.31c.16-.49.48.07.7-.08-1.25-2.39-.07-2.41-.81-4.76-.49-1.47-1.18-4.46-1.7-4.44C7.26,82.44,7.66,82.38,8.14,82.51Z"/></svg>
