<?xml version="1.0" encoding="utf-8"?>
<!-- Generator: Adobe Illustrator 23.0.0, SVG Export Plug-In . SVG Version: 6.00 Build 0)  -->
<svg version="1.1" id="Layer_1" xmlns="http://www.w3.org/2000/svg" xmlns:xlink="http://www.w3.org/1999/xlink" x="0px" y="0px"
	 viewBox="0 0 424.3 257.5" style="enable-background:new 0 0 424.3 257.5;" xml:space="preserve">
<style type="text/css">
	.st0{fill:none;stroke:#00A099;stroke-width:6;stroke-miterlimit:10;}
	.st1{fill:none;stroke:#FFFFFF;stroke-width:2;stroke-miterlimit:10;}
	.st2{fill:#E50069;}
	.st3{fill:#FF89FF;}
</style>
<g>
	<g>

			<image style="overflow:visible;" width="1768" height="649" xlink:href="6285A6D662749F8C.png"  transform="matrix(0.24 0 0 0.24 -618.2062 -483.7404)">
		</image>
	</g>
	<rect x="-577.6" y="-435.7" style="fill:none;" width="348.6" height="71.6"/>

		<text transform="matrix(1 0 0 1 -577.5944 -403.2328)" style="fill:none;stroke:#E50069;stroke-width:3;stroke-miterlimit:10; font-family:'flottflott'; font-size:50px;">JOE’S DINER</text>
	<rect x="-577.6" y="-435.7" style="fill:none;" width="348.6" height="71.6"/>

		<text transform="matrix(1 0 0 1 -577.5944 -403.2328)" style="fill:none;stroke:#FF89FF;stroke-miterlimit:10; font-family:'flottflott'; font-size:50px;">JOE’S DINER</text>
	<g>

			<image style="overflow:visible;" width="1406" height="554" xlink:href="6285A6D662749F8D.png"  transform="matrix(0.24 0 0 0.24 -592.5262 -427.3404)">
		</image>
	</g>
	<path class="st0" d="M-296.8-391.1c0.1,30.2-56.8,54.8-126.9,55s-127.1-24.2-127.1-54.5"/>
	<path class="st1" d="M-296.8-391.1c0.1,30.2-56.8,54.8-126.9,55s-127.1-24.2-127.1-54.5"/>
	<g>

			<image style="overflow:visible;" width="1405" height="559" xlink:href="6285A6D662749F82.png"  transform="matrix(0.24 0 0 0.24 -594.0135 -551.9783)">
		</image>
	</g>
	<path class="st0" d="M-551.8-457.4c0-30.2,56.9-54.6,127.1-54.6c70.2,0.1,127,24.7,127,54.9"/>
	<path class="st1" d="M-552.8-456c0-30.2,56.8-54.8,127-54.9s127.1,24.4,127.1,54.6"/>
</g>
<g>

		<image style="overflow:visible;" width="1768" height="649" xlink:href="6285A6D662749F83.png"  transform="matrix(0.24 0 0 0.24 3.384027e-02 54.3396)">
	</image>
</g>
<g>
	<g>
		<path class="st2" d="M46.6,150.8c-0.8,0-1.7-0.1-2.5-0.4c-0.8-0.3-1.6-0.7-2.2-1.2c-0.7-0.5-1.2-1.2-1.7-1.9
			c-0.5-0.8-0.7-1.7-0.7-2.7c0-1.8,0.6-3.5,1.9-5c1.1-1.4,2.5-2.7,4-3.8c1.5-1.1,3.1-2.1,4.7-3c1.6-0.9,3-1.6,4.1-2.1
			c0.5-0.2,0.9-0.4,1.4-0.6c0.4-0.1,0.7-0.2,1-0.4c0.2-0.1,0.4-0.2,0.6-0.4c0,0,0.1-0.2,0.2-0.3l-1.6-0.5c-0.9-0.3-1.7-0.6-2.6-0.9
			c-0.9-0.3-1.8-0.6-2.7-1c-0.9-0.3-1.6-1-1.8-2c-0.1-0.4-0.2-0.8-0.3-1.2c-0.4-1.2-0.7-2.6-0.9-4c-0.2-1.4-0.3-2.7-0.3-4
			c0-2.1,0.6-3.9,1.6-5.5c0.9-1.5,2.2-2.8,3.7-3.9c1.3-1,2.6-1.8,3.9-2.6c1.3-0.8,2.6-1.5,3.9-2.1c1.3-0.6,2.7-1.2,4.1-1.6
			c1.4-0.5,2.9-0.9,4.6-1.2c0.5-0.1,1-0.2,1.4-0.2l0,0c1.6,0,2.9,0.6,3.8,1.6c1,1,1.5,2.4,1.4,3.9c0,0.7-0.2,1.8-0.7,3.2
			c-0.4,1.3-1,2.8-1.6,4.5c-0.7,1.7-1.4,3.4-2.2,5.3c-0.8,1.9-1.6,3.6-2.3,5.3c-0.7,1.7-1.4,3.2-2,4.6c-0.2,0.5-0.4,0.9-0.6,1.3
			c0.1,0,0.2,0,0.3,0h1l0.4,0.9c0.4,0.9,0.7,1.7,1.1,2.5c0.4,0.9,0.8,1.9,1,2.9l0.5,2.3l-2.3-0.5c-1.6-0.4-3.2-0.6-4.9-0.6
			c-0.1,0-0.2,0-0.4,0.1c0,0-0.1,0.1-0.3,0.5c-0.2,0.4-0.3,0.8-0.5,1.2c-0.2,0.5-0.4,0.9-0.5,1.4c-0.2,0.4-0.4,0.8-0.5,1.1l-0.1,0.1
			c-0.8,1.5-1.6,2.9-2.4,4.1c-0.8,1.4-1.8,2.6-2.9,3.6c-1.1,1-2.5,1.8-3.9,2.4C50.5,150.5,48.7,150.8,46.6,150.8z M70.2,103.5
			l-0.1,1.7c0,0.6-0.2,1.4-0.5,2.4c-0.3,0.9-0.7,1.9-1.1,3c-0.4,1.1-0.9,2.2-1.4,3.5c-0.5,1.2-1,2.4-1.5,3.5c-0.5,1.1-1,2.1-1.4,3.1
			c-0.4,0.9-0.7,1.7-1,2.3c-0.4,1.2-1,2.3-1.5,3.4c-0.5,1-0.9,2-1.3,3.1c-0.2,0.7-0.5,1.3-1,1.8c-0.4,0.4-0.9,0.7-1.4,0.9
			c-0.4,0.2-0.9,0.4-1.3,0.5c-0.3,0.1-0.7,0.2-1,0.4c-1.1,0.6-2.5,1.3-4,2.1c-1.5,0.8-3,1.7-4.3,2.8c-1.3,1-2.5,2.1-3.4,3.3
			c-0.8,1-1.2,2.1-1.2,3.2c0,0.5,0.1,0.9,0.3,1.2c0.2,0.4,0.5,0.8,0.9,1c0.4,0.3,0.8,0.5,1.4,0.7c0.5,0.2,1,0.3,1.5,0.3
			c1.7,0,3.1-0.2,4.3-0.7c1.1-0.4,2.2-1.1,3-1.8c0.9-0.8,1.7-1.8,2.4-2.9c0.7-1.2,1.5-2.5,2.3-4c0.1-0.3,0.3-0.6,0.4-1
			c0.2-0.4,0.3-0.8,0.5-1.3c0.2-0.5,0.3-0.9,0.5-1.3c0.2-0.5,0.5-1,0.7-1.3c0.3-0.4,0.8-0.7,1.4-0.9c0.5-0.1,0.9-0.2,1.3-0.2
			c1,0,2,0.1,3,0.2c0,0,0-0.1,0-0.1c-0.3-0.6-0.5-1.1-0.8-1.7c-0.1,0-0.2,0-0.3,0c-0.5,0-1-0.1-1.5-0.2l-1.6-0.4l0.6-1.6
			c0.3-0.8,0.7-1.9,1.4-3.3c0.6-1.4,1.3-2.9,2.1-4.6c0.7-1.7,1.5-3.4,2.3-5.3c0.8-1.8,1.5-3.6,2.1-5.2c0.6-1.6,1.2-3.1,1.6-4.3
			c0.5-1.5,0.5-2.1,0.5-2.3c0-0.8-0.2-1.4-0.6-1.8c-0.4-0.4-1-0.7-1.7-0.7c-0.2,0-0.4,0-0.7,0.1c-1.6,0.3-3,0.7-4.3,1.1
			c-1.3,0.4-2.5,0.9-3.8,1.5c-1.2,0.6-2.4,1.2-3.6,2c-1.2,0.7-2.4,1.6-3.7,2.5c-1.2,0.9-2.2,2-3,3.1c-0.7,1.1-1.1,2.4-1.1,3.9
			c0,1.1,0.1,2.3,0.2,3.6c0.2,1.3,0.4,2.4,0.7,3.5c0.1,0.4,0.2,0.8,0.3,1.3c0.8,0.3,1.5,0.6,2.3,0.8c-0.3-0.8-0.5-1.7-0.8-2.5
			c-0.3-0.9-0.5-1.9-0.7-2.8c-0.2-1-0.3-2-0.3-3c0-0.4,0-0.7,0-1.1c0-0.5,0.1-1,0.3-1.5c0.2-0.8,0.7-1.6,1.5-2.4
			c0.7-0.7,1.5-1.5,2.5-2.2c0.9-0.7,2-1.3,3.1-2c1.1-0.6,2.2-1.2,3.2-1.6c1.1-0.5,2.1-0.9,3-1.2c1-0.3,1.9-0.5,2.6-0.6L70.2,103.5z
			 M66.6,107.1c-0.8,0.3-1.6,0.6-2.5,1c-1,0.4-2,1-3,1.5c-1,0.6-1.9,1.1-2.7,1.7c-0.8,0.6-1.5,1.2-2.1,1.8c-0.6,0.6-0.8,1-0.8,1.3
			l-0.1,0.2c-0.1,0.1-0.1,0.3-0.1,0.5c0,0.4,0,0.7,0,1c0,0.8,0.1,1.7,0.2,2.5c0.2,0.8,0.4,1.7,0.6,2.6c0.2,0.9,0.5,1.7,0.8,2.6
			c0.3,0.9,0.6,1.8,0.9,2.7l0.2,0.7c0.3-0.7,0.6-1.4,0.9-2.1c0.5-1,1-2,1.4-3.1c0.2-0.6,0.6-1.4,1-2.4c0.4-1,0.9-2,1.4-3.1
			c0.5-1.1,1-2.3,1.5-3.5c0.5-1.2,1-2.3,1.4-3.4C66,108.7,66.3,107.9,66.6,107.1z M47.9,146.2c-0.8,0-1.7-0.2-2.5-0.5l-1.4-0.5
			l0.5-1.4c0.3-1,1-1.9,2-2.9c0.9-0.9,1.8-1.7,2.9-2.5c1.1-0.8,2.1-1.5,3.2-2.2c1.1-0.7,2-1.2,2.8-1.5l2.8-1.2l-0.8,3
			c-0.3,0.9-0.7,2-1.2,3.1c-0.5,1.1-1.2,2.2-2,3.1c-0.8,1-1.7,1.8-2.7,2.4C50.4,145.8,49.2,146.2,47.9,146.2z M52.7,139.6
			c-0.5,0.4-1,0.7-1.6,1.1c-1,0.7-1.8,1.5-2.6,2.2c0,0-0.1,0.1-0.1,0.1c0.5-0.1,1-0.3,1.5-0.6c0.7-0.5,1.4-1.1,2-1.8
			C52.2,140.4,52.5,140,52.7,139.6z"/>
	</g>
	<g>
		<path class="st2" d="M81.1,136.6c-2,0-3.8-0.4-5.4-1.1c-1.6-0.7-2.9-1.7-4-3c-1.1-1.2-2-2.7-2.5-4.4c-0.5-1.6-0.8-3.4-0.8-5.2
			c0-1,0.1-1.9,0.2-2.8c0.1-0.8,0.4-1.7,0.6-2.5c0.3-0.8,0.6-1.5,0.9-2.3c0.3-0.7,0.7-1.5,1-2.3c1-2.3,2.4-4.4,4.2-6.1
			c1.7-1.6,3.5-3.1,5.5-4.5c1.2-0.8,2.5-1.5,3.9-2c1.3-0.4,2.6-0.8,4-1.2c0.4-0.1,0.9-0.2,1.4-0.2c0.4,0,0.9-0.1,1.3-0.1
			c1.5,0,2.9,0.3,4.4,0.8c1.4,0.5,2.7,1.3,3.8,2.2c1.2,0.9,2.1,2,2.9,3.3c0.6,0.9,1,1.9,1.3,2.9h3l0.3,1.2c0.2,0.9,0.4,1.8,0.5,2.7
			c0.1,0.9,0.2,1.8,0.3,2.7l0.1,1.6h-1.6c-0.5,0-1,0-1.5-0.1c-0.5,0-1-0.1-1.5,0c-0.4,1.3-0.8,2.6-1.4,3.9c-0.7,1.6-1.6,3.3-2.7,4.8
			c-1.1,1.6-2.3,3-3.6,4.4c-1.3,1.4-2.8,2.6-4.3,3.6c-1.5,1-3.2,1.9-4.9,2.5C84.8,136.2,82.9,136.6,81.1,136.6z M91.5,102.1
			c-0.3,0-0.7,0-1,0c-0.3,0-0.6,0.1-0.9,0.2c-1.3,0.3-2.6,0.7-3.8,1.1c-1.1,0.4-2.2,0.9-3.2,1.6c-1.9,1.3-3.6,2.6-5.1,4.2
			c-1.5,1.4-2.7,3.2-3.6,5.2c-0.4,0.8-0.7,1.5-1,2.2c-0.3,0.7-0.6,1.4-0.8,2c-0.2,0.7-0.4,1.3-0.5,2c-0.1,0.7-0.2,1.4-0.2,2.2
			c0,1.5,0.2,2.9,0.7,4.2c0.4,1.3,1.1,2.4,1.9,3.3c0.8,0.9,1.9,1.7,3.1,2.3c2.3,1.1,5.6,1.1,8.5,0.1c1.5-0.5,2.9-1.2,4.3-2.1
			c1.4-0.9,2.6-2,3.8-3.2c1.2-1.2,2.3-2.6,3.2-4c1-1.4,1.8-2.9,2.4-4.4c0.7-1.5,1.2-3,1.5-4.4l0.2-1l1-0.1c0.3,0,0.5-0.1,0.8-0.1
			c0.7,0,1.3,0,1.9,0c0-0.3-0.1-0.6-0.1-0.8c-0.1-0.4-0.1-0.9-0.2-1.3h-3l-0.2-1.2c-0.2-1.1-0.6-2.1-1.2-3.1c-0.6-1-1.4-1.8-2.3-2.6
			c-0.9-0.7-1.9-1.3-3-1.7C93.7,102.3,92.6,102.1,91.5,102.1z M81,131.2c-1.3,0-2.4-0.2-3.4-0.7c-1-0.5-1.8-1.1-2.5-1.9
			c-0.7-0.8-1.2-1.7-1.5-2.7c-0.3-1-0.5-2.1-0.5-3.2c0-1.3,0.2-2.5,0.7-3.7c0.4-1,0.8-2,1.3-3c0.7-1.4,1.6-2.8,2.8-4.3
			c1.2-1.4,2.5-2.7,3.9-3.8c1.5-1.2,3-2.1,4.7-2.8c3-1.3,6.2-1.6,9-0.3l1.4,0.6l-0.6,1.4c-0.4,0.9-0.9,1.9-1.5,2.8
			c-0.4,0.7-0.6,1.4-0.6,2.1c0,0.6,0.1,0.9,0.2,1c0.1,0.2,0.2,0.3,0.4,0.4c0.3,0.1,0.6,0.2,0.9,0.3c0.5,0.1,1,0.2,1.5,0.2l1.7,0.2
			l-0.4,1.6c-0.4,1.8-1.2,3.7-2.3,5.5c-1.1,1.8-2.4,3.5-4,5c-1.6,1.5-3.3,2.8-5.2,3.7C85.1,130.7,83.1,131.2,81,131.2z M91.7,107
			c-1.3,0-2.7,0.3-4,0.9c-1.4,0.6-2.8,1.5-4,2.5c-1.3,1-2.4,2.2-3.5,3.4c-1,1.2-1.8,2.5-2.4,3.7c-0.4,0.9-0.9,1.9-1.2,2.8
			c-0.3,0.8-0.5,1.6-0.5,2.5c0,0.8,0.1,1.6,0.3,2.2c0.2,0.7,0.5,1.2,1,1.7c0.4,0.5,0.9,0.8,1.5,1.1c0.6,0.3,1.3,0.4,2.1,0.4
			c1.6,0,3.2-0.4,4.7-1.2c1.6-0.8,3.1-1.9,4.4-3.2c1.4-1.3,2.5-2.8,3.5-4.4c0.6-1,1.1-2.1,1.5-3.1c-0.7-0.1-1.3-0.3-1.8-0.6
			c-0.6-0.4-1.2-0.9-1.6-1.5c-0.4-0.7-0.6-1.5-0.6-2.5c0-1.2,0.3-2.4,1-3.6c0.2-0.4,0.4-0.7,0.6-1.1C92.4,107,92.1,107,91.7,107z"/>
	</g>
	<g>
		<path class="st2" d="M124,136.2l-16-0.1c-0.8,0-1.6-0.1-2.3-0.2c-0.8-0.1-1.6-0.4-2.3-0.8c-0.8-0.4-1.4-1-1.9-1.8
			c-0.5-0.8-0.8-1.7-0.8-2.9c0-0.5,0.1-1.1,0.2-1.7c0.1-0.6,0.4-1.2,0.6-1.7c0.4-0.7,1.2-1.5,2.4-2.5c1-0.9,2.2-1.8,3.4-2.7
			c1.2-0.9,2.5-1.8,3.7-2.6c0.6-0.4,1.2-0.8,1.6-1.1c0-0.1-0.1-0.1-0.1-0.2c-0.3-0.4-0.5-0.9-0.7-1.3c-0.2-0.5-0.4-1-0.5-1.6
			c-0.1-0.6-0.2-1.3-0.2-2.2c0-1.5,0.4-3,1.1-4.4c0.7-1.3,1.6-2.5,2.7-3.6c1.1-1,2.3-2,3.7-2.8c1.3-0.8,2.7-1.5,4.2-2
			c1.4-0.6,2.9-1,4.3-1.3c2.4-0.5,4.4-0.6,6.5-0.1c0.9,0.2,1.7,0.6,2.4,1.1c0.7,0.5,1.3,1.2,1.7,2c0.5,0.8,0.7,1.8,0.7,2.8
			c0,1.3-0.2,2.5-0.6,3.8c-0.4,1.3-1.1,2.4-2.1,3.4c-1.1,1.1-2.3,2.2-3.6,3.1c-1.3,1-2.6,1.9-3.9,2.7l-0.8,0.5l-0.8-0.4
			c-0.7-0.4-1.4-0.8-2.2-1.1c-0.8-0.3-1.6-0.7-2.3-1.1l-2-1l1.7-1.5c0.8-0.7,1.7-1.4,2.7-2.1c1-0.7,1.9-1.3,2.8-2
			c0.9-0.7,1.7-1.4,2.4-2.1c0.1-0.1,0.3-0.3,0.4-0.4c-0.5,0-1,0.1-1.5,0.3c-0.8,0.2-1.6,0.5-2.4,0.8c-0.8,0.3-1.6,0.7-2.3,1.1
			c-0.7,0.4-1.4,0.8-1.9,1.2c-0.2,0.2-0.5,0.4-0.8,0.7c-0.3,0.3-0.6,0.7-0.9,1.1c-0.3,0.4-0.5,0.7-0.7,1.1c-0.1,0.3-0.2,0.5-0.2,0.7
			c0,0.4,0.1,0.8,0.3,1.1c0.3,0.5,0.6,1,1,1.4c0.4,0.5,0.8,1,1.1,1.4c0.6,0.7,0.9,1.5,0.9,2.2c0,0.6-0.2,1.3-0.6,1.9
			c-0.3,0.5-0.7,0.9-1,1.3c-0.6,0.5-1.3,1-2.1,1.5l-2,1.3c-1.4,0.9-2.8,1.8-4.1,2.7c0,0-0.1,0.1-0.1,0.1c2,0,3.9,0,5.8,0
			c3.5,0,7-0.1,10.6-0.1l1.9,0l-0.4,1.9c-0.2,1-0.7,2-1.3,2.9c-0.5,0.8-1.1,1.6-1.6,2.3c-0.5,0.7-1.3,1-2.2,1.1
			C124.9,136.2,124.4,136.2,124,136.2z M103.7,131.1c0,0.3,0.1,0.5,0.2,0.7c0.2,0.3,0.5,0.6,0.8,0.7c0.4,0.2,0.9,0.4,1.4,0.5
			c0.6,0.1,1.2,0.2,1.8,0.2l16,0.1c0.4,0,0.8,0,1.2,0c0.5-0.6,1-1.3,1.5-2c0,0,0-0.1,0.1-0.1c-2.8,0-5.6,0.1-8.3,0.1
			c-3.5,0-7.1,0-10.6,0L103.7,131.1z M130.9,101.4c-1,0-2.2,0.1-3.4,0.4c-1.2,0.2-2.5,0.6-3.8,1.1c-1.3,0.5-2.5,1.1-3.7,1.8
			c-1.2,0.7-2.2,1.5-3.1,2.3c-0.9,0.8-1.6,1.8-2.1,2.8c-0.5,1-0.7,2-0.7,3c0,0.8,0.1,1.3,0.1,1.5c0.1,0.4,0.2,0.7,0.3,0.9
			c0.1,0.3,0.3,0.7,0.5,1c0.3,0.5,0.5,1,0.8,1.7l0.4,1.1l-1,0.7c-0.6,0.4-1.5,1-2.7,1.8c-1.2,0.8-2.3,1.6-3.5,2.5
			c-1.2,0.9-2.3,1.8-3.3,2.6c-1.2,1-1.6,1.5-1.7,1.7c-0.1,0.2-0.2,0.5-0.3,0.9c-0.1,0.4-0.1,0.7-0.1,1.1c0,0.1,0,0.2,0,0.3l3.3-2.4
			c1.3-1,2.7-1.9,4.1-2.8c1.4-0.9,2.7-1.8,4.1-2.7l2-1.3c0.6-0.4,1.2-0.8,1.7-1.2c0.1-0.1,0.3-0.3,0.4-0.5c0.1-0.1,0.1-0.3,0.1-0.3
			c0-0.1-0.1-0.2-0.2-0.4c-0.3-0.4-0.7-0.9-1.1-1.4c-0.4-0.5-0.9-1.1-1.2-1.8c-0.5-0.8-0.7-1.7-0.7-2.7c0-0.6,0.2-1.3,0.5-1.9
			c0.3-0.6,0.6-1.1,1-1.6c0.4-0.5,0.8-1,1.2-1.4c0.4-0.4,0.8-0.7,1.1-1c0.7-0.5,1.5-1,2.3-1.4c0.9-0.5,1.7-0.9,2.6-1.2
			c0.9-0.4,1.9-0.7,2.8-0.9c1.9-0.5,3.5-0.5,5.1,0l1.4,0.5l-0.4,1.4c-0.4,1.2-1,2.3-1.9,3.3c-0.8,0.9-1.7,1.7-2.7,2.5
			c-0.9,0.7-1.9,1.4-2.9,2.1c-0.2,0.1-0.4,0.3-0.6,0.4c0.5,0.2,1.1,0.5,1.6,0.8c1-0.6,2-1.3,3-2.1c1.2-0.9,2.3-1.9,3.3-2.9
			c0.6-0.6,1-1.3,1.3-2.2c0.3-0.9,0.5-1.9,0.5-2.8c0-0.5-0.1-1-0.3-1.4c-0.2-0.4-0.5-0.7-0.9-1c-0.4-0.3-0.8-0.5-1.4-0.6
			C132.1,101.5,131.5,101.4,130.9,101.4z"/>
	</g>
	<g>
		<path class="st2" d="M140,111.4l-1.5-2.3l0.6-0.8c0.4-0.6,0.9-1.2,1.3-1.8c-0.1,0-0.1,0-0.2-0.1l-1.5-0.4l0.4-1.5
			c0.2-0.9,0.6-1.7,1.2-2.4c0.4-0.6,0.8-1.2,1.2-1.8c0.3-0.5,0.7-0.9,1.3-1.1c0.8-0.4,1.9-0.3,3-0.2c0.7,0,1.3,0.2,1.9,0.4
			c0.7,0.3,1.2,0.7,1.7,1.3c0.5,0.6,0.7,1.4,0.7,2.4c0,0.5-0.2,1.2-0.6,2c-0.3,0.6-0.7,1.3-1.1,2c-0.4,0.7-0.8,1.4-1.2,2
			c-0.4,0.7-0.8,1.1-1.1,1.5l-0.4,0.5h-0.7c-0.7,0-1.4,0-2.1,0c-0.6,0-1.3,0.1-1.9,0.2L140,111.4z M142.8,103.7
			C142.9,103.7,142.9,103.7,142.8,103.7h2.7l-1.3,2.2c-0.4,0.7-0.9,1.5-1.3,2.2c0.4,0,0.9,0,1.3,0c0.1-0.2,0.3-0.4,0.4-0.6
			c0.4-0.6,0.8-1.2,1.1-1.8c0.4-0.6,0.7-1.2,0.9-1.8c0.3-0.6,0.3-0.8,0.3-0.8c0-0.4-0.1-0.6-0.1-0.6c-0.1-0.1-0.2-0.2-0.4-0.3
			c-0.2-0.1-0.6-0.2-0.9-0.2c-0.5,0-1,0-1.5,0c-0.1,0-0.1,0-0.1,0C143.6,102.6,143.2,103.1,142.8,103.7z"/>
	</g>
	<g>
		<path class="st2" d="M136.8,135.9c-0.9,0-1.8,0-2.8,0l-2.3,0l0.9-2.1c0.4-1,0.9-1.9,1.5-2.7c0.5-0.8,1.1-1.6,1.6-2.4l0.4-0.7
			l13.8,0.1c0.4,0,0.9,0,1.5-0.1c0.5-0.1,1-0.2,1.4-0.4c0.4-0.2,0.7-0.4,1-0.6c0.1,0,0.2-0.2,0.2-0.5c0-0.3-0.1-0.6-0.4-0.9
			c-0.4-0.5-0.8-1.1-1.4-1.7c-0.6-0.6-1.2-1.2-1.9-1.9c-0.8-0.7-1.5-1.5-2.1-2.2c-0.7-0.8-1.3-1.7-1.7-2.6c-0.5-1-0.8-2.1-0.8-3.2
			c0-0.7,0.1-1.4,0.3-2.1c0.2-0.6,0.4-1.3,0.8-1.8c1.1-1.9,2.5-3.5,4.2-5c1.7-1.4,3.6-2.7,5.6-3.7c2-1,4.1-1.8,6.3-2.4
			c2.2-0.6,4.3-0.8,6.3-0.8c2,0,3.2,0.9,3.8,1.7c0.8,1,1.2,2.3,1.2,3.7c0,1.2-0.4,2.5-1.1,4c-0.6,1.3-1.4,2.6-2.3,3.9
			c-0.9,1.3-1.8,2.6-2.8,3.7c-0.9,1.1-1.7,2.1-2.4,2.8l-0.4,0.5h-6.9c0.6,0.6,1.2,1.3,1.7,2c0.7,0.8,1.2,1.7,1.7,2.6
			c0.5,1,0.8,2.1,0.8,3.1c0,0.8-0.1,1.6-0.4,2.5c-0.2,0.8-0.6,1.5-1,2.2c-0.4,0.7-0.9,1.4-1.4,2c-0.6,0.6-1.2,1.2-1.8,1.6
			c-0.6,0.4-1.2,0.7-1.9,0.9c-0.6,0.2-1.3,0.4-2,0.5c-0.7,0.1-1.3,0.2-2,0.2c-0.6,0-1.2,0-1.7,0c-2.7,0-5.5,0-8.2,0.1
			C140.5,135.9,138.6,135.9,136.8,135.9z M136.6,132.9c1.9,0,3.8,0,5.7-0.1c2.7-0.1,5.5-0.1,8.2-0.1c0.5,0,1.1,0,1.7,0
			c0.5,0,1.1-0.1,1.6-0.2c0.5-0.1,1-0.2,1.5-0.4c0.4-0.1,0.8-0.3,1.2-0.6c0.4-0.3,0.8-0.6,1.2-1c0.4-0.4,0.7-1,1-1.5
			c0.3-0.5,0.5-1.1,0.7-1.7c0.2-0.5,0.2-1,0.2-1.5c0-0.6-0.1-1.2-0.4-1.8c-0.3-0.7-0.8-1.4-1.3-2.1c-0.6-0.7-1.2-1.4-1.8-2.1
			c-0.7-0.7-1.3-1.4-1.9-2c-0.7-0.7-1.2-1.4-1.6-2c-0.5-0.8-0.8-1.6-0.8-2.4c0-1,0.3-2,1-2.9c0.6-0.8,1.3-1.6,2.1-2.3
			c0.8-0.7,1.8-1.4,2.8-2c1-0.6,2-1.1,3-1.5c1-0.4,2-0.8,3-1c1-0.3,1.9-0.4,2.6-0.4h2.3l-0.4,1.8c-0.2,1-0.7,2.1-1.4,3.3
			c-0.7,1.1-1.5,2.2-2.3,3.4c-0.9,1.1-1.7,2.2-2.6,3.2c-0.1,0.1-0.1,0.2-0.2,0.2h2.3c0.5-0.6,1.2-1.4,1.9-2.3
			c0.9-1.1,1.8-2.3,2.6-3.5c0.8-1.2,1.5-2.4,2.1-3.6c0.5-1,0.8-1.9,0.8-2.7c0-0.8-0.1-1.3-0.5-1.8c-0.2-0.2-0.5-0.5-1.5-0.5
			c-1.8,0-3.6,0.3-5.6,0.8c-2,0.5-3.9,1.2-5.7,2.1c-1.8,0.9-3.5,2-5,3.3c-1.5,1.3-2.7,2.7-3.5,4.2c-0.2,0.4-0.4,0.8-0.5,1.3
			c-0.1,0.4-0.2,0.8-0.2,1.2c0,0.7,0.1,1.3,0.4,1.9c0.3,0.7,0.8,1.4,1.3,2c0.6,0.7,1.2,1.3,1.9,2c0.7,0.7,1.4,1.4,2,2
			c0.6,0.7,1.2,1.4,1.7,2c0.6,0.9,0.9,1.8,0.9,2.7c0,1.1-0.4,2-1.1,2.7c-0.6,0.5-1.2,1-1.9,1.3c-0.7,0.3-1.4,0.5-2.2,0.6
			c-0.7,0.1-1.4,0.1-1.9,0.1l-12.2,0c-0.4,0.6-0.8,1.2-1.2,1.8C136.7,132.8,136.6,132.9,136.6,132.9z M164.4,106.6
			c-0.8,0.2-1.6,0.5-2.5,0.9c-0.9,0.4-1.8,0.9-2.7,1.4c-0.9,0.5-1.7,1.1-2.4,1.6c-0.7,0.6-1.2,1.1-1.6,1.7c-0.3,0.4-0.5,0.9-0.5,1.3
			c0,0.1,0,0.4,0.3,0.8c0.3,0.5,0.8,1.1,1.3,1.6l0.7,0.7l0.5-0.7c0.5-0.8,1.2-1.8,2.1-2.8c0.8-1,1.7-2.1,2.5-3.2
			c0.8-1.1,1.5-2.1,2.2-3.1C164.3,106.7,164.3,106.6,164.4,106.6z"/>
	</g>
	<g>
		<path class="st2" d="M182.3,136.6c-0.3,0-0.5-0.1-0.9-0.2c-0.3-0.1-0.5-0.2-0.8-0.3c-0.2-0.1-0.3-0.2-0.5-0.3l-1.3-0.7l0.1-1.1
			c0.3-2.3,0.9-4.6,1.7-6.8c0.8-2.1,1.5-4.2,2.2-6.3c0.5-1.4,0.9-2.8,1.4-4.3c0.4-1.4,1-2.7,1.7-3.9c-0.2,0.1-0.5,0.2-0.7,0.4
			c-0.9,0.4-1.8,0.8-2.8,1.2l-2,0.7v-2.1c0-2.3,0.4-4.4,1.3-6.4l0.1-0.3l0.2-0.2c0.5-0.5,1.1-0.9,1.8-1.2c0.5-0.2,1-0.4,1.5-0.6
			c1.9-0.6,3.8-1.2,5.7-1.8c1.9-0.6,3.9-1.2,5.9-1.7c2-0.5,4-0.9,6-1.3c2-0.3,4.1-0.6,6.1-0.6l0.6,0c2.4,0,4.4,0.8,5.9,2.3
			c1.5,1.5,2.3,3.5,2.3,5.9c0,1.1-0.2,2.3-0.6,3.6c-0.4,1.2-0.8,2.3-1.4,3.5c-0.6,1.1-1.2,2.2-1.9,3.2c-0.7,1-1.4,1.9-2.1,2.7
			c-0.9,1.1-1.9,2.2-2.8,3.3c-1,1.2-2.2,2.3-3.4,3.3c-1,0.7-2.2,1.6-3.6,2.5c-1.4,0.9-2.8,1.8-4.4,2.7c-1.5,0.9-3,1.7-4.5,2.4
			c-1.5,0.7-2.9,1.2-4.1,1.6c-1.1,0.3-2.2,0.5-3.5,0.6C184.6,136.5,183.4,136.6,182.3,136.6z M182.2,133.5c0.1,0,0.2,0.1,0.3,0.1
			l0,0c1,0,2-0.1,3-0.2c1.1-0.1,2.1-0.3,3-0.6c1-0.3,2.3-0.7,3.6-1.4c1.4-0.7,2.8-1.4,4.3-2.3c1.5-0.9,2.9-1.7,4.2-2.6
			c1.3-0.9,2.5-1.7,3.4-2.4c1.1-0.8,2-1.7,2.9-2.8c0.9-1.2,1.9-2.3,2.9-3.4c0.6-0.7,1.2-1.5,1.8-2.4c0.6-0.9,1.2-1.9,1.7-2.9
			c0.5-1,0.9-2,1.2-3c0.3-1,0.5-1.8,0.5-2.6c0-1.6-0.5-2.8-1.4-3.8c-1-1-2.2-1.4-3.8-1.4h-0.6c-1.8,0.1-3.8,0.3-5.6,0.6
			c-1.9,0.3-3.8,0.7-5.8,1.2c-1.9,0.5-3.8,1-5.7,1.6c-1.9,0.6-3.8,1.2-5.7,1.8c-0.4,0.1-0.9,0.3-1.4,0.5c-0.2,0.1-0.4,0.2-0.6,0.3
			c-0.3,0.8-0.6,1.7-0.8,2.6c0.1,0,0.2-0.1,0.3-0.1c0.9-0.4,1.8-0.8,2.7-1.2c2.6-0.9,5.1-1.7,7.6-2.4c2.5-0.7,5.1-1.4,7.6-2
			c0.9-0.2,1.9-0.5,2.8-0.7c1.1-0.3,2.2-0.4,3.3-0.4c0.3,0,0.7,0,1.1,0.1c0.5,0,1.1,0.2,1.5,0.3c0.5,0.2,1,0.5,1.4,0.9
			c0.4,0.4,0.8,1,0.8,2.1c0,1.8-0.5,3.7-1.6,5.6c-1,1.8-2.2,3.5-3.7,5.1c-1.4,1.6-3,3.1-4.6,4.4c-1.6,1.3-3,2.4-4.3,3.2
			c-1.7,1-3.5,2.1-5.4,3.1c-2,1.1-4,1.9-6.1,2.4l-2.3,0.5l0.4-2.3c0.2-1.3,0.7-2.8,1.3-4.5c0.6-1.7,1.2-3.5,1.9-5.2
			c0.7-1.8,1.5-3.5,2.2-5.1c0.2-0.5,0.5-1,0.7-1.5c-0.2,0-0.4,0.1-0.5,0.1c-0.6,0.1-1.1,0.3-1.6,0.6c-0.4,0.2-0.5,0.3-0.5,0.3
			c-0.7,1.2-1.3,2.4-1.7,3.8c-0.5,1.5-0.9,2.9-1.4,4.3c-0.7,2.1-1.5,4.2-2.3,6.4C182.9,130,182.5,131.7,182.2,133.5z M196.9,109.2
			l-1.4,2.4c-0.6,1-1.2,2.3-2,3.9c-0.7,1.6-1.5,3.3-2.1,5c-0.7,1.7-1.3,3.4-1.9,5.1c-0.2,0.6-0.4,1.1-0.5,1.6c1-0.4,1.9-0.8,2.9-1.3
			c1.8-1,3.6-2.1,5.3-3.1c1.2-0.7,2.5-1.7,4-2.9c1.5-1.2,2.9-2.6,4.2-4.1c1.3-1.5,2.4-3,3.3-4.6c0.8-1.4,1.2-2.8,1.2-4.1
			c0,0,0,0,0,0c-0.1-0.1-0.2-0.1-0.3-0.2c-0.2-0.1-0.5-0.1-0.7-0.2c-0.4,0-0.7,0-0.9,0c-0.9,0-1.7,0.1-2.5,0.3
			c-0.9,0.3-1.9,0.5-2.9,0.7C200.7,108.3,198.8,108.7,196.9,109.2z"/>
	</g>
	<g>
		<path class="st2" d="M209.8,136h-2l0.6-1.9c0.4-1.2,0.9-2.3,1.7-3.2c0.6-0.7,1.1-1.5,1.6-2.3l0.4-0.8h0.9c1.7,0,3.4,0,5,0
			c1.7,0,3.4-0.1,5.1-0.1c0.7,0,1.4,0,2-0.1l-1-1.6c-0.9-1.4-1.7-3-2.5-4.6c-0.8-1.7-1.2-3.6-1.2-5.5c0-0.5,0-1.1,0.1-1.6
			c0.1-0.6,0.3-1.2,0.5-1.7c0.4-1,1-2.1,1.9-3.2c0.8-1.1,1.8-2.1,2.8-3.1c1-1,2.2-2,3.4-2.9c1.2-0.9,2.5-1.7,3.8-2.4
			c1.3-0.7,2.5-1.3,3.8-1.8c1.3-0.5,2.5-0.8,3.6-1c0.3-0.1,0.7-0.1,1.2-0.2c0.4,0,0.8-0.1,1.2-0.1c1.6,0,3,0.6,4.1,1.8
			c1,1.1,1.5,2.5,1.5,4c0,0.7-0.2,1.7-0.6,3c-0.3,1.2-0.8,2.4-1.3,3.8c-0.5,1.3-1,2.6-1.5,3.8c-0.5,1.2-0.9,2.1-1.1,2.7
			c-0.8,1.8-1.5,3.7-2.3,5.6c-0.8,2-1.9,3.8-3.1,5.5c-1.2,1.7-2.7,3.3-4.3,4.5c-1.7,1.3-3.8,2.2-6.2,2.6c-1.2,0.2-2.4,0.4-3.6,0.4
			l-3.4,0.2C217.2,136,213.5,136,209.8,136z M213.9,130.8c-0.4,0.7-0.9,1.4-1.5,2c-0.1,0.1-0.1,0.1-0.2,0.2c2.8,0,5.7-0.1,8.5-0.1
			l3.4-0.2c1.1-0.1,2.2-0.2,3.2-0.4c2-0.4,3.6-1.1,5-2.1c1.4-1.1,2.6-2.4,3.7-3.8c1.1-1.5,2-3.2,2.7-5c0.8-1.9,1.6-3.7,2.3-5.6
			c0.3-0.6,0.6-1.5,1.1-2.7c0.5-1.2,1-2.4,1.4-3.7c0.5-1.3,0.9-2.5,1.2-3.6c0.4-1.3,0.5-1.9,0.5-2.1c0-0.8-0.2-1.5-0.8-2.1
			c-0.5-0.5-1-0.8-1.8-0.8c-0.3,0-0.6,0-1,0c-0.3,0-0.6,0.1-1,0.1c-0.9,0.1-1.9,0.4-3,0.8c-1.1,0.4-2.2,1-3.4,1.6
			c-1.2,0.6-2.3,1.4-3.4,2.2c-1.1,0.8-2.2,1.7-3.1,2.6c-0.9,0.9-1.8,1.8-2.5,2.8c-0.7,0.9-1.2,1.7-1.5,2.5c-0.1,0.3-0.2,0.7-0.3,1
			c-0.1,0.4-0.1,0.8-0.1,1.2c0,1.5,0.3,2.9,0.9,4.2c0.4,0.9,0.8,1.7,1.3,2.5c0.2-0.2,0.4-0.4,0.6-0.6c0.4-0.4,0.7-0.8,1.1-1.2
			c-0.3-0.5-0.7-1-1-1.6c-0.7-1.1-1-2.3-1-3.5c0-0.7,0.3-1.5,1-2.4c0.5-0.7,1.1-1.4,1.8-2.2c0.7-0.7,1.3-1.4,1.9-2
			c0.6-0.6,1.1-1.1,1.4-1.3c0.6-0.5,1.2-1,1.8-1.5c0.7-0.6,1.4-1.1,2.2-1.5c0.8-0.5,1.6-0.9,2.4-1.2c0.9-0.3,1.8-0.5,2.8-0.5h0.3
			l0.3,0.1c0.9,0.4,1.4,1.2,1.4,2.2c0,0.4-0.1,0.9-0.2,1.3c-0.1,0.2-0.1,0.4-0.1,0.7l0,0.2l-0.1,0.2c-0.7,1.8-1.4,3.6-2.2,5.4
			c-0.7,1.8-1.5,3.5-2.3,5.3c-0.4,0.9-0.7,1.8-1.1,2.6c-0.4,0.9-0.8,1.7-1.2,2.5c-0.5,0.8-1,1.6-1.6,2.4c-0.6,0.8-1.4,1.5-2.4,2.2
			c-1.3,1-2.7,1.7-4,2c-1.3,0.3-2.7,0.5-4.4,0.5c-1.7,0-3.4,0-5,0.1C216.7,130.8,215.3,130.8,213.9,130.8z M239.6,106.3
			c-0.2,0-0.4,0.1-0.5,0.2c-0.7,0.2-1.3,0.6-1.9,0.9c-0.6,0.4-1.3,0.8-1.9,1.3c-0.6,0.5-1.2,1-1.8,1.4c-0.2,0.2-0.7,0.6-1.3,1.2
			c-0.6,0.6-1.2,1.2-1.8,1.9c-0.6,0.6-1.1,1.3-1.6,1.9c-0.4,0.5-0.4,0.8-0.4,0.8c0,0.6,0.2,1.3,0.6,1.9c0.5,0.8,1,1.6,1.5,2.3l0.7,1
			l-0.8,0.9c-0.6,0.7-1.3,1.4-1.9,2.2c-0.6,0.7-1.2,1.3-1.9,2l-1.2,1.4c0.5-0.1,1-0.2,1.4-0.3c1-0.2,2-0.8,3-1.5
			c0.8-0.6,1.4-1.1,1.9-1.7c0.5-0.6,0.9-1.3,1.3-1.9c0.4-0.7,0.7-1.4,1-2.2c0.3-0.8,0.7-1.7,1.1-2.7c0.8-1.8,1.6-3.5,2.3-5.3
			c0.7-1.7,1.4-3.4,2.1-5.1C239.5,106.6,239.5,106.5,239.6,106.3z"/>
	</g>
	<g>
		<path class="st2" d="M262,136.4c-0.9,0-1.7-0.4-2.3-1.1c-0.4-0.5-0.7-1.1-0.9-1.7c-0.1-0.6-0.2-1.1-0.2-1.8c0-0.5,0-1,0-1.3
			c0-1.4,0.1-2.9,0.3-4.3c0.2-1.4,0.5-2.7,0.8-4.1l0.1-0.4c-2.2,3.4-4.5,6.7-7.1,9.8c-0.3,0.4-0.6,0.9-1,1.4
			c-0.4,0.5-0.8,0.9-1.2,1.4c-0.3,0.4-0.7,0.7-1,1c-0.5,0.5-1.2,0.8-2,0.9c-0.6,0.1-1.2,0.1-1.8,0c-0.9-0.1-1.8-0.1-2.7-0.1
			c-0.5,0-1-0.1-1.5-0.2l-2.8-0.6l2.1-1.9c2.8-2.6,5.4-5.4,7.8-8.5c2.4-3.1,4.7-6.2,6.9-9.4c1.7-2.3,3.2-4.7,4.6-7.2
			c1.4-2.5,2.9-5,4.5-7.5l0.3-0.5l0.5-0.2c1.1-0.3,2.1-0.6,3.2-0.8c1-0.2,2.1-0.4,3.2-0.6l2.8-0.5l-1.1,2.6c-0.9,2-1.7,4.1-2.5,6.3
			c-0.8,2.2-1.5,4.5-2.2,6.8c-0.6,2.3-1.2,4.6-1.6,6.9c-0.2,0.9-0.3,1.8-0.4,2.7c0.1-0.1,0.1-0.1,0.2-0.2c0.9-1.2,1.8-2.5,2.6-3.7
			c1-1.3,1.9-2.7,2.8-4.1c0.9-1.4,1.7-2.9,2.4-4.3c0.3-0.6,0.6-1.1,0.8-1.7c0.3-0.6,0.6-1.3,1-1.9c0.8-1.4,1.5-2.9,2.2-4.3
			c0.6-1.4,1.2-2.9,1.7-4.4l1-2.9l1.7,2.6c0.1,0.2,0.4,0.5,0.7,1c0.3,0.5,0.7,1,1,1.5c0.4,0.5,0.7,1.1,1,1.6
			c0.4,0.7,0.6,1.2,0.6,1.7c0,0.6-0.1,1.1-0.3,1.6c-0.2,0.4-0.3,0.7-0.5,1c-1,2-2,4-3,6c-1,2-2.2,4-3.4,5.9
			c-1.2,1.9-2.5,3.8-3.8,5.6c-1.4,1.8-2.8,3.6-4.4,5.3c-0.4,0.4-0.9,1-1.5,1.7c-0.7,0.7-1.4,1.5-2.1,2.2c-0.8,0.7-1.6,1.4-2.4,1.9
			C263.8,136.1,262.9,136.4,262,136.4z M265,109.2l-0.8,5.4c-0.2,1.4-0.5,2.8-0.7,4.1l-0.8,4c-0.3,1.3-0.5,2.6-0.7,4
			c-0.2,1.3-0.3,2.6-0.3,3.8c0,0.4,0,0.8,0,1.2c0,0.4,0.1,0.8,0.2,1.1c0.1,0.2,0.1,0.4,0.2,0.5c0.2,0,0.6-0.1,1.2-0.5
			c0.7-0.4,1.4-1,2-1.6c0.7-0.7,1.4-1.3,2-2c0.6-0.7,1.1-1.3,1.5-1.7c1.5-1.6,2.9-3.4,4.2-5.1c1.3-1.7,2.5-3.6,3.7-5.4
			c1.1-1.8,2.2-3.8,3.2-5.7c1-2,2-4,3-6l0.1-0.2c0.1-0.2,0.2-0.4,0.4-0.7c0-0.1,0.1-0.2,0.1-0.3c0-0.1-0.1-0.2-0.2-0.4
			c-0.2-0.4-0.5-0.9-0.8-1.3c0,0,0-0.1-0.1-0.1c-0.3,0.7-0.6,1.4-0.9,2c-0.7,1.5-1.5,3-2.3,4.5c-0.3,0.6-0.6,1.1-0.8,1.6
			c-0.3,0.6-0.6,1.3-0.9,1.8c-0.8,1.5-1.6,3.1-2.5,4.5c-0.9,1.5-1.9,2.9-2.9,4.3c-0.9,1.2-1.7,2.4-2.6,3.6c-1,1.4-2.2,2.5-3.5,3.5
			l-2.5,1.7l0.1-3c0.1-2.2,0.3-4.6,0.7-7c0.4-2.4,1-4.8,1.6-7.2c0.7-2.4,1.4-4.8,2.3-7c0.5-1.3,1-2.6,1.5-3.9c-0.1,0-0.2,0-0.3,0.1
			c-0.8,0.2-1.6,0.4-2.4,0.6c-1.4,2.3-2.8,4.6-4.1,6.9c-1.4,2.5-3,5-4.7,7.4c-2.2,3.2-4.6,6.4-7,9.5c-1.7,2.3-3.6,4.5-5.7,6.5
			c0.3,0,0.5,0,0.8,0.1c0.4,0,0.7,0,1.1,0c0.2,0,0.3-0.1,0.4-0.2c0.3-0.2,0.5-0.5,0.8-0.8c0.3-0.4,0.7-0.8,1-1.2
			c0.3-0.4,0.7-0.9,1-1.3c2.7-3.4,5.2-6.9,7.5-10.5c0.6-0.9,1.2-1.8,1.7-2.8c0.6-1,1.3-2,2-2.9L265,109.2z M283.3,104.4L283.3,104.4
			L283.3,104.4z"/>
	</g>
	<g>
		<path class="st2" d="M299.5,136.2l-16-0.1c-0.8,0-1.6-0.1-2.3-0.2c-0.8-0.1-1.6-0.4-2.3-0.8c-0.8-0.4-1.4-1-1.9-1.8
			c-0.5-0.8-0.8-1.7-0.8-2.9c0-0.5,0.1-1.1,0.2-1.7c0.1-0.6,0.4-1.2,0.6-1.7c0.4-0.7,1.2-1.5,2.4-2.5c1-0.9,2.2-1.8,3.4-2.7
			c1.2-0.9,2.5-1.8,3.7-2.6c0.6-0.4,1.2-0.8,1.6-1.1c0-0.1-0.1-0.1-0.1-0.2c-0.3-0.4-0.5-0.9-0.7-1.3c-0.2-0.5-0.4-1-0.5-1.6
			c-0.1-0.6-0.2-1.3-0.2-2.2c0-1.5,0.4-3,1.1-4.4c0.7-1.3,1.6-2.5,2.7-3.6c1.1-1,2.3-2,3.7-2.8c1.3-0.8,2.7-1.5,4.2-2
			c1.4-0.6,2.9-1,4.3-1.3c2.4-0.5,4.4-0.6,6.5-0.1c0.9,0.2,1.7,0.6,2.4,1.1c0.7,0.5,1.3,1.2,1.7,2c0.5,0.8,0.7,1.8,0.7,2.8
			c0,1.3-0.2,2.5-0.6,3.8c-0.4,1.3-1.1,2.4-2.1,3.4c-1.1,1.1-2.3,2.2-3.6,3.1c-1.3,1-2.6,1.9-3.9,2.7l-0.8,0.5l-0.8-0.4
			c-0.7-0.4-1.4-0.8-2.2-1.1c-0.8-0.3-1.6-0.7-2.3-1.1l-2-1l1.7-1.5c0.8-0.7,1.7-1.4,2.7-2.1c1-0.7,1.9-1.3,2.8-2
			c0.9-0.7,1.7-1.4,2.4-2.1c0.1-0.1,0.3-0.3,0.4-0.4c-0.5,0-1,0.1-1.5,0.3c-0.8,0.2-1.6,0.5-2.4,0.8c-0.8,0.3-1.6,0.7-2.3,1.1
			c-0.7,0.4-1.4,0.8-1.9,1.2c-0.2,0.2-0.5,0.4-0.8,0.7c-0.3,0.3-0.6,0.7-0.9,1.1c-0.3,0.4-0.5,0.7-0.7,1.1c-0.1,0.3-0.2,0.5-0.2,0.7
			c0,0.4,0.1,0.8,0.3,1.1c0.3,0.5,0.6,1,1,1.4c0.4,0.5,0.8,1,1.1,1.4c0.6,0.7,0.9,1.5,0.9,2.2c0,0.6-0.2,1.3-0.6,1.9
			c-0.3,0.5-0.7,0.9-1,1.3c-0.6,0.5-1.3,1-2.1,1.5l-2,1.3c-1.4,0.9-2.8,1.8-4.1,2.7c0,0-0.1,0.1-0.1,0.1c2,0,3.9,0,5.8,0
			c3.5,0,7-0.1,10.6-0.1l1.9,0l-0.4,1.9c-0.2,1-0.7,2-1.3,2.9c-0.5,0.8-1.1,1.6-1.6,2.3c-0.5,0.7-1.3,1-2.2,1.1
			C300.4,136.2,299.9,136.2,299.5,136.2z M279.2,131.1c0,0.3,0.1,0.5,0.2,0.7c0.2,0.3,0.5,0.6,0.8,0.7c0.4,0.2,0.9,0.4,1.4,0.5
			c0.6,0.1,1.2,0.2,1.8,0.2l16,0.1c0.4,0,0.8,0,1.2,0c0.5-0.6,1-1.3,1.5-2c0,0,0-0.1,0.1-0.1c-2.8,0-5.6,0.1-8.3,0.1
			c-3.5,0-7.1,0-10.6,0L279.2,131.1z M306.4,101.4c-1,0-2.2,0.1-3.4,0.4c-1.2,0.2-2.5,0.6-3.8,1.1c-1.3,0.5-2.5,1.1-3.7,1.8
			c-1.2,0.7-2.2,1.5-3.1,2.3c-0.9,0.8-1.6,1.8-2.1,2.8c-0.5,1-0.7,2-0.7,3c0,0.8,0.1,1.3,0.1,1.5c0.1,0.4,0.2,0.7,0.3,0.9
			c0.1,0.3,0.3,0.7,0.5,1c0.3,0.5,0.5,1,0.8,1.7l0.4,1.1l-1,0.7c-0.6,0.4-1.5,1-2.7,1.8c-1.2,0.8-2.3,1.6-3.5,2.5
			c-1.2,0.9-2.3,1.8-3.3,2.6c-1.2,1-1.6,1.5-1.7,1.7c-0.1,0.2-0.2,0.5-0.3,0.9c-0.1,0.4-0.1,0.7-0.1,1.1c0,0.1,0,0.2,0,0.3l3.3-2.4
			c1.3-1,2.7-1.9,4.1-2.8c1.4-0.9,2.7-1.8,4.1-2.7l2-1.3c0.6-0.4,1.2-0.8,1.7-1.2c0.1-0.1,0.3-0.3,0.4-0.5c0.1-0.1,0.1-0.3,0.1-0.3
			c0-0.1-0.1-0.2-0.2-0.4c-0.3-0.4-0.7-0.9-1.1-1.4c-0.4-0.5-0.9-1.1-1.2-1.8c-0.5-0.8-0.7-1.7-0.7-2.7c0-0.6,0.2-1.3,0.5-1.9
			c0.3-0.6,0.6-1.1,1-1.6c0.4-0.5,0.8-1,1.2-1.4c0.4-0.4,0.8-0.7,1.1-1c0.7-0.5,1.5-1,2.3-1.4c0.9-0.5,1.7-0.9,2.6-1.2
			c0.9-0.4,1.9-0.7,2.8-0.9c1.9-0.5,3.5-0.5,5.1,0l1.4,0.5l-0.4,1.4c-0.4,1.2-1,2.3-1.9,3.3c-0.8,0.9-1.7,1.7-2.7,2.5
			c-0.9,0.7-1.9,1.4-2.9,2.1c-0.2,0.1-0.4,0.3-0.6,0.4c0.5,0.2,1.1,0.5,1.6,0.8c1-0.6,2-1.3,3-2.1c1.2-0.9,2.3-1.9,3.3-2.9
			c0.6-0.6,1-1.3,1.3-2.2c0.3-0.9,0.5-1.9,0.5-2.8c0-0.5-0.1-1-0.3-1.4c-0.2-0.4-0.5-0.7-0.9-1c-0.4-0.3-0.8-0.5-1.4-0.6
			C307.6,101.5,307,101.4,306.4,101.4z"/>
	</g>
	<g>
		<path class="st2" d="M344.6,136.3h-6.4c-0.9,0-1.8,0-2.7-0.1c-0.9,0-1.7-0.1-2.2-0.2c-0.7-0.1-1.4-0.7-1.8-1.5
			c-0.2-0.4-0.4-0.7-0.5-1c-0.7-1.3-1.4-2.5-2.2-3.6c-0.7-1-1.5-1.9-2.5-2.8c-0.5-0.2-1.1-0.2-1.6-0.2c-1,0.1-2-0.1-3-0.3l-0.8-0.2
			c-0.2,0.4-0.5,0.8-0.7,1.2c-0.4,0.7-0.9,1.5-1.4,2.3c-0.5,0.8-1,1.6-1.5,2.2c-0.5,0.7-1,1.3-1.4,1.8c-0.6,0.7-1.1,1.1-1.7,1.3
			c-1.1,0.4-2.3,0.7-3.6,0.8c-1.2,0.2-2.4,0.2-3.7,0.2l-2-0.1l0.6-1.9c0.2-0.7,0.7-1.6,1.5-2.8c0.7-1.1,1.5-2.2,2.3-3.4
			c0.8-1.2,1.7-2.3,2.5-3.3c0.8-1.1,1.5-1.9,1.9-2.5c1.9-2.4,3.6-5,4.9-7.7c1.3-2.7,2.5-5.6,3.4-8.6c0-0.1,0.1-0.2,0.1-0.3
			c-0.4,0-0.7,0-1.1,0.1c-0.5,0.1-1,0.1-1.5,0.1h-1l-0.4-0.9c-0.1-0.2-0.2-0.5-0.3-1c-0.1-0.4-0.3-0.9-0.4-1.3
			c-0.1-0.5-0.3-0.9-0.4-1.3c-0.1-0.5-0.2-0.9-0.2-1.2c0-0.5,0.1-1,0.4-1.4c0.6-0.9,1.6-1.3,2.7-0.8c1,0,2.1,0,3.2,0
			c1.3,0,2.6,0.2,3.8,0.5c1.6,0.4,2.3,1.4,2.6,2.2c0.4,0.9,0.5,1.8,0.5,2.8c0,0.8-0.1,1.7-0.4,2.5c0,0.1,0,0.2-0.1,0.2
			c0,0,0.1-0.1,0.1-0.1c1-0.9,2-1.8,3-2.7c1.1-0.9,2.2-1.7,3.2-2.4c1.1-0.7,2.2-1.4,3.2-1.8c2.6-1.2,5-1,6.7,0.1
			c0.9,0.6,1.6,1.3,2.1,2.2c0.5,0.8,0.9,1.8,1.1,2.8c0.2,1,0.3,1.9,0.3,2.9c0,2.3-0.4,4.6-1.3,6.7c-0.8,2-1.9,3.9-3.3,5.7
			c-1.4,1.9-3.1,3.5-5.1,4.6c-1.3,0.7-2.6,1.3-4.1,1.7c0.2,0.2,0.3,0.5,0.5,0.7c0.4,0.6,0.8,1.3,1.2,2c0.3,0,0.6,0,0.9,0
			c0.4,0,0.9-0.1,1.3-0.1c0.8,0,1.6,0.1,2.2,0.3l0.7,0.2l0.2,0.7c0.3,0.8,0.6,1.5,0.9,2.3c0.4,0.9,0.6,1.9,0.8,2.9L344.6,136.3z
			 M334.2,133.1c0.3,0.1,0.7,0.1,1.4,0.1c0.8,0,1.7,0,2.6,0h2.8c0-0.1-0.1-0.2-0.1-0.4c-0.2-0.5-0.5-1.1-0.7-1.7
			c-0.5-0.1-1.1,0-1.6,0c-0.9,0.1-1.8,0.1-2.3,0l-0.7-0.1l-0.3-0.6c-0.4-0.9-0.9-1.7-1.5-2.5c-0.5-0.8-1.1-1.5-1.7-2.3l-1.7-2
			l2.6-0.5c2-0.3,3.8-1,5.4-1.9c1.6-0.9,3-2.2,4.2-3.8c1.2-1.6,2.2-3.3,2.9-5.1c0.7-1.7,1.1-3.6,1.1-5.5c0-0.7-0.1-1.5-0.3-2.2
			c-0.2-0.7-0.4-1.4-0.8-1.9c-0.3-0.5-0.7-0.9-1.2-1.2c-0.8-0.5-2.1-0.6-3.8,0.1c-0.9,0.4-1.8,0.9-2.8,1.6c-1,0.7-2,1.4-3,2.3
			c-1,0.9-2,1.7-2.9,2.6c-0.9,0.9-1.8,1.7-2.6,2.5c-0.8,0.8-1.5,1.5-2.1,2.1l-3.8,3.8l1.2-5.2c0.2-0.8,0.4-1.5,0.7-2.3
			c0.3-0.7,0.5-1.4,0.8-2.1c0.3-0.7,0.5-1.3,0.7-2c0.2-0.6,0.2-1.1,0.2-1.7c0-0.6-0.1-1.1-0.3-1.5c-0.1-0.2-0.2-0.3-0.6-0.4
			c-1-0.2-2-0.4-3.1-0.4c-1.1,0-2.1,0-3.1,0c0.1,0.3,0.2,0.6,0.3,0.9c0.1,0.4,0.2,0.7,0.3,1c0,0,0,0,0,0c1.1-0.2,2.2-0.2,3.4,0.2
			l0.7,0.2l0.2,0.7c0.2,0.5,0.2,0.9,0.2,1.5c0,0.5-0.1,1-0.2,1.4c-1,3.1-2.2,6.2-3.6,9c-1.4,2.9-3.2,5.6-5.3,8.2
			c-0.5,0.6-1.1,1.4-1.9,2.4c-0.8,1-1.6,2.1-2.4,3.3c-0.8,1.1-1.5,2.2-2.2,3.3c0,0-0.1,0.1-0.1,0.1c0.3,0,0.5-0.1,0.8-0.1
			c1-0.1,2-0.4,3-0.7c0.1,0,0.2-0.2,0.4-0.4c0.4-0.4,0.8-1,1.2-1.6c0.4-0.6,0.9-1.3,1.4-2.1c0.5-0.8,0.9-1.5,1.4-2.3
			c0.4-0.7,0.8-1.4,1.2-2c0.4-0.6,0.7-1.1,0.9-1.4c1.1-1.6,2.4-3.2,3.9-4.7c1.4-1.4,2.8-2.8,4.1-4.2c0.6-0.6,1.4-1.5,2.5-2.6
			c1.1-1.1,2.3-2.3,3.6-3.4c1.3-1.1,2.6-2.1,3.9-2.9c1.5-1,2.8-1.4,4-1.4c0.3,0,0.6,0,0.8,0.1c0.2,0,0.4,0.1,0.6,0.2l0.3,0.1
			l0.2,0.2c0.5,0.5,0.9,1.1,1.1,1.7c0.2,0.6,0.3,1.2,0.3,1.8c0,1.8-0.4,3.6-1.3,5.4c-0.8,1.7-2,3.3-3.3,4.6
			c-1.4,1.4-2.9,2.5-4.6,3.3c-1.8,0.9-3.6,1.3-5.4,1.3c-0.6,0-1.1,0-1.7-0.1c-0.3,0-0.7,0-1,0c-0.8,0.5-1.6,1.1-2.3,1.7
			c-0.1,0-0.1,0.1-0.2,0.1c0.8,0,1.6,0.2,2.4,0.5l0.3,0.1l0.2,0.2c1.2,1.1,2.3,2.3,3.1,3.5c0.8,1.2,1.6,2.5,2.4,3.9
			C333.8,132.3,334,132.7,334.2,133.1z M334,133.1C334,133.1,334.1,133.1,334,133.1C334.1,133.1,334,133.1,334,133.1z M313.4,132.3
			L313.4,132.3L313.4,132.3z M313.5,132.3C313.5,132.3,313.5,132.3,313.5,132.3C313.5,132.3,313.5,132.3,313.5,132.3z M341.8,106.3
			c-0.5,0-1.2,0.2-2.4,0.9c-1.2,0.8-2.3,1.7-3.5,2.7c-1.2,1.1-2.4,2.1-3.4,3.2c-1.1,1.1-1.9,2-2.5,2.6c-1,1.1-2.1,2.2-3.2,3.3l0.3,0
			c0.6-0.1,1.3-0.1,1.9-0.1c0.5,0,1,0,1.5,0c1.4,0,2.7-0.3,4.1-1c1.4-0.7,2.7-1.6,3.8-2.7s2-2.4,2.7-3.8c0.7-1.4,1-2.7,1-4
			c0-0.3,0-0.6-0.1-0.9C341.9,106.5,341.9,106.4,341.8,106.3z"/>
	</g>
</g>
<g>
	<g>
		<path class="st3" d="M46.6,149.6c-0.7,0-1.4-0.1-2.2-0.4c-0.7-0.2-1.4-0.6-1.9-1c-0.6-0.4-1-1-1.4-1.6c-0.4-0.7-0.6-1.4-0.6-2.2
			c0-1.5,0.6-3,1.7-4.4c1.1-1.3,2.3-2.6,3.8-3.7c1.5-1.1,3-2.1,4.6-2.9c1.6-0.8,2.9-1.6,4.1-2.1c0.4-0.2,0.9-0.4,1.3-0.5
			c0.4-0.1,0.8-0.3,1.1-0.4c0.3-0.1,0.6-0.3,0.8-0.6c0.2-0.2,0.4-0.5,0.5-0.9c0.4-1.2,0.9-2.4,1.4-3.4c0.5-1,1-2.1,1.5-3.2
			c0.2-0.6,0.6-1.4,1-2.4c0.4-1,0.9-2,1.4-3.1c0.5-1.1,1-2.3,1.5-3.5c0.5-1.2,1-2.3,1.4-3.4c0.4-1.1,0.8-2.1,1.1-2.9
			c0.2-0.5,0.3-1,0.4-1.3c-0.4,0.1-0.9,0.2-1.5,0.4c-0.9,0.3-1.8,0.7-2.8,1.1c-1,0.5-2,1-3.1,1.6c-1,0.6-2,1.2-2.8,1.8
			c-0.9,0.6-1.6,1.3-2.2,1.9c-0.6,0.6-0.9,1.2-1.1,1.7c-0.1,0.3-0.2,0.6-0.2,0.9c0,0.4,0,0.7,0,1.1c0,0.9,0.1,1.8,0.3,2.7
			c0.2,0.9,0.4,1.8,0.6,2.6c0.2,0.9,0.5,1.8,0.8,2.6c0.3,0.9,0.6,1.8,0.9,2.6l0.3,0.9l-0.9-0.3c-0.9-0.3-1.7-0.6-2.6-0.9
			c-0.9-0.3-1.8-0.6-2.6-0.9c-0.6-0.2-1-0.7-1.2-1.3c-0.1-0.4-0.2-0.8-0.3-1.3c-0.4-1.2-0.6-2.5-0.8-3.9c-0.2-1.4-0.3-2.7-0.3-3.9
			c0-1.9,0.5-3.6,1.4-4.9c0.9-1.4,2.1-2.6,3.5-3.7c1.3-0.9,2.6-1.8,3.8-2.6c1.2-0.8,2.5-1.5,3.8-2.1c1.3-0.6,2.6-1.1,4-1.6
			c1.4-0.5,2.9-0.9,4.5-1.2c0.4-0.1,0.8-0.2,1.2-0.2h0c1.3,0,2.4,0.5,3.1,1.3c0.8,0.8,1.2,1.9,1.1,3.2c0,0.6-0.2,1.6-0.7,2.9
			c-0.4,1.3-1,2.8-1.6,4.4c-0.6,1.6-1.4,3.4-2.2,5.3c-0.8,1.9-1.6,3.6-2.3,5.3c-0.8,1.7-1.4,3.2-2,4.6c-0.5,1.1-0.8,1.9-1.1,2.6
			c0.2,0,0.4,0,0.5,0.1c0.4,0,0.8,0,1.2,0H67l0.1,0.3c0.4,0.9,0.7,1.7,1.1,2.6c0.4,0.9,0.7,1.8,0.9,2.7l0.2,0.8l-0.8-0.2
			c-1.7-0.4-3.4-0.6-5.1-0.6c-0.2,0-0.5,0-0.7,0.1c-0.2,0.1-0.4,0.2-0.5,0.3c-0.1,0.2-0.3,0.4-0.4,0.8c-0.2,0.4-0.3,0.8-0.5,1.3
			c-0.2,0.5-0.3,0.9-0.5,1.3c-0.2,0.4-0.3,0.8-0.5,1.1c-0.8,1.5-1.6,2.9-2.4,4.1c-0.8,1.3-1.7,2.4-2.7,3.3c-1,0.9-2.3,1.7-3.6,2.2
			C50.3,149.4,48.6,149.6,46.6,149.6z M69.2,104.4l0,0.6c0,0.5-0.2,1.3-0.5,2.2c-0.3,0.9-0.6,1.9-1.1,3c-0.4,1.1-0.9,2.2-1.4,3.4
			c-0.5,1.2-1,2.4-1.5,3.5c-0.5,1.1-1,2.2-1.4,3.1c-0.4,1-0.7,1.7-1,2.3c-0.4,1.1-0.9,2.3-1.5,3.3c-0.5,1-1,2.1-1.3,3.2
			c-0.2,0.6-0.4,1-0.8,1.4c-0.3,0.3-0.7,0.6-1.1,0.7c-0.4,0.2-0.8,0.3-1.2,0.5c-0.4,0.1-0.8,0.3-1.2,0.5c-1.1,0.6-2.5,1.3-4,2.1
			c-1.5,0.8-3,1.8-4.5,2.9c-1.4,1.1-2.6,2.2-3.6,3.5c-1,1.2-1.4,2.5-1.4,3.8c0,0.6,0.1,1.2,0.4,1.7c0.3,0.5,0.7,1,1.1,1.3
			c0.5,0.4,1,0.7,1.6,0.9c0.6,0.2,1.2,0.3,1.8,0.3c1.8,0,3.4-0.2,4.6-0.7c1.3-0.5,2.4-1.2,3.3-2c1-0.9,1.8-1.9,2.6-3.1
			c0.8-1.2,1.5-2.6,2.3-4.1c0.1-0.3,0.3-0.6,0.5-1.1c0.2-0.4,0.4-0.9,0.5-1.3c0.2-0.5,0.3-0.9,0.5-1.3c0.2-0.5,0.4-0.8,0.6-1
			c0.2-0.3,0.5-0.5,1-0.6c0.4-0.1,0.7-0.2,1-0.2c1.5,0,3,0.1,4.5,0.4c-0.2-0.6-0.4-1.2-0.6-1.8c-0.3-0.8-0.7-1.5-1-2.3
			c-0.3,0-0.6,0-0.9,0c-0.4,0-0.9-0.1-1.3-0.2l-0.5-0.1l0.2-0.5c0.3-0.7,0.7-1.8,1.3-3.2c0.6-1.4,1.3-2.9,2-4.6
			c0.7-1.7,1.5-3.4,2.3-5.3c0.8-1.8,1.5-3.6,2.1-5.2c0.6-1.6,1.2-3.1,1.6-4.3c0.4-1.2,0.6-2.1,0.6-2.6c0-1.1-0.3-1.9-0.9-2.5
			c-0.6-0.6-1.4-1-2.4-1c-0.3,0-0.6,0-1,0.1c-1.6,0.3-3.1,0.7-4.4,1.2c-1.3,0.4-2.6,1-3.9,1.6c-1.2,0.6-2.5,1.3-3.7,2
			c-1.2,0.8-2.5,1.6-3.8,2.5c-1.3,1-2.4,2.1-3.2,3.4c-0.8,1.2-1.2,2.7-1.2,4.4c0,1.2,0.1,2.4,0.2,3.8c0.2,1.3,0.4,2.6,0.8,3.7
			c0.1,0.4,0.3,0.9,0.4,1.3c0,0.2,0.1,0.4,0.5,0.5c0.9,0.3,1.7,0.6,2.6,0.9c0.6,0.2,1.1,0.4,1.7,0.6c-0.2-0.6-0.4-1.1-0.5-1.7
			c-0.3-0.9-0.6-1.8-0.8-2.7c-0.3-0.9-0.5-1.8-0.7-2.7c-0.2-0.9-0.3-1.9-0.3-2.8c0-0.3,0-0.7,0-1.1c0-0.4,0.1-0.8,0.3-1.2
			c0.2-0.6,0.6-1.3,1.3-2c0.6-0.7,1.4-1.4,2.3-2c0.9-0.7,1.9-1.3,3-1.9c1.1-0.6,2.1-1.1,3.1-1.6c1-0.5,2-0.9,2.9-1.2
			c0.9-0.3,1.7-0.5,2.4-0.5L69.2,104.4z M47.9,145c-0.7,0-1.4-0.1-2.2-0.4l-0.5-0.2l0.2-0.5c0.3-0.8,0.9-1.6,1.7-2.5
			c0.8-0.8,1.8-1.6,2.8-2.4c1-0.8,2.1-1.5,3.1-2.1c1-0.6,1.9-1.1,2.7-1.4l0.9-0.4l-0.3,1c-0.2,0.9-0.6,1.9-1.1,2.9
			c-0.5,1-1.1,2-1.8,2.9c-0.7,0.9-1.6,1.6-2.5,2.2C50,144.7,49,145,47.9,145z M46.5,143.8c1.5,0.4,2.8,0.2,3.9-0.6
			c0.8-0.5,1.6-1.2,2.2-2c0.7-0.8,1.2-1.7,1.7-2.7c0.3-0.6,0.5-1.1,0.7-1.7c-0.5,0.2-1,0.5-1.5,0.9c-1,0.6-2,1.3-3,2.1
			c-1,0.7-1.9,1.5-2.7,2.3C47.3,142.7,46.8,143.3,46.5,143.8z"/>
	</g>
	<g>
		<path class="st3" d="M81.1,135.4c-1.8,0-3.5-0.3-4.9-1c-1.4-0.7-2.7-1.6-3.7-2.7c-1-1.1-1.8-2.5-2.3-4c-0.5-1.5-0.8-3.2-0.8-4.9
			c0-0.9,0.1-1.8,0.2-2.6c0.1-0.8,0.3-1.6,0.6-2.3c0.3-0.7,0.5-1.5,0.9-2.2c0.3-0.7,0.7-1.5,1-2.2c1-2.2,2.3-4.2,4-5.8
			c1.6-1.6,3.4-3.1,5.4-4.4c1.1-0.8,2.4-1.4,3.7-1.9c1.3-0.4,2.6-0.8,3.9-1.2c0.4-0.1,0.8-0.2,1.2-0.2c0.4,0,0.8-0.1,1.2-0.1
			c1.4,0,2.7,0.3,4,0.8c1.3,0.5,2.5,1.2,3.6,2c1.1,0.9,2,1.9,2.7,3.1c0.7,1.1,1.1,2.2,1.4,3.4h3l0.1,0.4c0.2,0.9,0.4,1.8,0.5,2.6
			c0.1,0.9,0.2,1.8,0.3,2.6l0,0.5h-0.5c-0.5,0-0.9,0-1.4-0.1c-0.7,0-1.3-0.1-2,0c-0.1,0-0.2,0-0.4,0c-0.4,1.4-0.9,2.9-1.5,4.4
			c-0.7,1.6-1.6,3.2-2.6,4.7c-1,1.5-2.2,3-3.5,4.3c-1.3,1.3-2.7,2.5-4.1,3.5c-1.5,1-3.1,1.8-4.7,2.4
			C84.5,135.1,82.8,135.4,81.1,135.4z M91.5,100.9c-0.4,0-0.7,0-1.1,0c-0.4,0-0.7,0.1-1.1,0.2c-1.3,0.3-2.6,0.7-3.8,1.1
			c-1.2,0.4-2.4,1-3.5,1.7c-1.9,1.3-3.7,2.7-5.3,4.3c-1.6,1.5-2.8,3.4-3.8,5.5c-0.4,0.8-0.7,1.5-1,2.2c-0.3,0.7-0.6,1.4-0.8,2.1
			c-0.2,0.7-0.4,1.4-0.6,2.2c-0.1,0.7-0.2,1.5-0.2,2.4c0,1.6,0.2,3.1,0.7,4.6c0.5,1.4,1.2,2.7,2.1,3.7c0.9,1,2.1,1.9,3.4,2.5
			c2.6,1.2,6.1,1.2,9.3,0.1c1.6-0.6,3.1-1.3,4.5-2.2c1.4-0.9,2.7-2.1,4-3.4c1.2-1.3,2.3-2.7,3.3-4.2c1-1.5,1.8-3,2.5-4.5
			c0.7-1.5,1.2-3.1,1.6-4.6l0.1-0.3l0.3,0c0.2,0,0.5-0.1,0.8-0.1c0.8,0,1.5,0,2.2,0c0.3,0,0.5,0,0.8,0c-0.1-0.7-0.1-1.3-0.2-2
			c-0.1-0.7-0.2-1.5-0.4-2.2h-3l-0.1-0.4c-0.2-1.2-0.7-2.4-1.3-3.5c-0.7-1.1-1.5-2-2.5-2.8c-1-0.8-2.1-1.4-3.3-1.9
			C93.9,101.1,92.7,100.9,91.5,100.9z M81,130c-1.1,0-2.1-0.2-2.9-0.6c-0.8-0.4-1.6-0.9-2.2-1.6c-0.6-0.7-1-1.5-1.3-2.4
			c-0.3-0.9-0.5-1.9-0.5-2.9c0-1.2,0.2-2.3,0.6-3.3c0.4-1,0.8-2,1.3-2.9c0.6-1.3,1.5-2.7,2.7-4.1c1.1-1.4,2.4-2.6,3.8-3.7
			c1.4-1.1,2.9-2,4.5-2.7c2.8-1.2,5.6-1.5,8.2-0.3l0.5,0.2l-0.2,0.5c-0.4,0.9-0.9,1.8-1.4,2.7c-0.5,0.9-0.7,1.7-0.7,2.6
			c0,0.6,0.1,1.1,0.3,1.5c0.2,0.4,0.5,0.6,0.8,0.8c0.4,0.2,0.8,0.3,1.2,0.4c0.5,0.1,1,0.2,1.6,0.2l0.6,0.1l-0.1,0.5
			c-0.4,1.7-1.2,3.5-2.2,5.2c-1.1,1.7-2.3,3.4-3.8,4.8c-1.5,1.4-3.1,2.6-4.9,3.5C84.8,129.6,82.9,130,81,130z M91.7,105.8
			c-1.5,0-2.9,0.3-4.4,1c-1.5,0.7-2.9,1.5-4.2,2.6c-1.3,1.1-2.6,2.3-3.6,3.6c-1.1,1.3-1.9,2.6-2.5,3.9c-0.5,1-0.9,1.9-1.3,2.9
			c-0.4,0.9-0.5,1.9-0.5,2.9c0,0.9,0.1,1.8,0.4,2.6c0.3,0.8,0.6,1.5,1.2,2.1c0.5,0.6,1.1,1,1.8,1.4c0.7,0.3,1.6,0.5,2.5,0.5
			c1.7,0,3.5-0.4,5.1-1.3c1.7-0.9,3.3-2,4.7-3.4c1.4-1.4,2.6-2.9,3.6-4.6c0.9-1.5,1.5-3,2-4.4c-0.4-0.1-0.7-0.1-1.1-0.2
			c-0.6-0.1-1.1-0.3-1.5-0.5c-0.5-0.3-0.9-0.7-1.2-1.2c-0.3-0.5-0.4-1.2-0.4-2c0-1,0.3-2.1,0.9-3.1c0.4-0.8,0.8-1.5,1.2-2.2
			C93.4,106,92.6,105.8,91.7,105.8z"/>
	</g>
	<g>
		<path class="st3" d="M124,135l-16-0.1c-0.7,0-1.4-0.1-2.2-0.2c-0.7-0.1-1.4-0.4-2-0.7c-0.6-0.3-1.2-0.8-1.6-1.4
			c-0.4-0.6-0.6-1.4-0.6-2.3c0-0.5,0.1-1,0.2-1.5c0.1-0.5,0.3-1,0.5-1.4c0.3-0.6,1-1.3,2.1-2.2c1-0.9,2.2-1.8,3.4-2.7
			c1.2-0.9,2.4-1.8,3.6-2.6c1-0.7,1.8-1.2,2.3-1.6c-0.2-0.4-0.3-0.8-0.5-1.1c-0.2-0.4-0.4-0.8-0.6-1.2c-0.2-0.4-0.3-0.9-0.4-1.4
			c-0.1-0.5-0.2-1.1-0.2-2c0-1.4,0.3-2.7,1-3.9c0.6-1.2,1.5-2.3,2.5-3.3c1-1,2.2-1.9,3.5-2.6c1.3-0.8,2.6-1.4,4-2
			c1.4-0.5,2.8-1,4.1-1.2c2.2-0.4,4.1-0.6,6-0.1c0.8,0.2,1.4,0.5,2,1c0.6,0.4,1.1,1,1.5,1.6c0.4,0.7,0.6,1.5,0.6,2.3
			c0,1.2-0.2,2.3-0.6,3.4c-0.4,1.2-1,2.2-1.8,3c-1.1,1.1-2.3,2.1-3.5,3c-1.2,0.9-2.5,1.8-3.8,2.6l-0.3,0.2l-0.3-0.1
			c-0.8-0.4-1.5-0.8-2.3-1.1c-0.8-0.3-1.5-0.7-2.3-1.1l-0.7-0.3l0.6-0.5c0.7-0.6,1.6-1.3,2.6-2c1-0.7,1.9-1.4,2.9-2.1
			c0.9-0.7,1.8-1.5,2.5-2.2c0.6-0.6,1-1.3,1.3-2c-1.1-0.3-2.2-0.1-3.5,0.2c-0.9,0.2-1.7,0.5-2.5,0.8c-0.8,0.3-1.6,0.7-2.4,1.2
			c-0.8,0.4-1.5,0.8-2,1.3c-0.3,0.2-0.6,0.5-0.9,0.8c-0.4,0.3-0.7,0.7-1,1.2c-0.3,0.4-0.6,0.9-0.8,1.3c-0.2,0.4-0.3,0.8-0.3,1.1
			c0,0.6,0.1,1.2,0.4,1.6c0.3,0.5,0.7,1,1.1,1.5c0.4,0.5,0.8,0.9,1.1,1.4c0.4,0.5,0.6,1.1,0.6,1.6c0,0.5-0.1,0.9-0.4,1.4
			c-0.3,0.4-0.5,0.8-0.8,1c-0.6,0.5-1.2,1-1.9,1.4l-2,1.3c-1.4,0.9-2.8,1.8-4.1,2.7c-0.9,0.6-1.9,1.2-2.8,1.9c3,0,6.1,0,9.1,0
			c3.6,0,7.1-0.1,10.6-0.1l0.6,0l-0.1,0.6c-0.2,0.9-0.6,1.8-1.1,2.6c-0.5,0.8-1,1.5-1.6,2.2c-0.4,0.4-0.8,0.7-1.5,0.7
			C124.8,135,124.4,135,124,135z M130.9,100.3c-1.1,0-2.3,0.1-3.6,0.4c-1.3,0.3-2.6,0.7-4,1.2c-1.3,0.5-2.6,1.2-3.9,1.9
			c-1.2,0.7-2.3,1.6-3.3,2.5c-0.9,0.9-1.7,1.9-2.3,3c-0.6,1.1-0.8,2.3-0.8,3.5c0,0.7,0,1.3,0.1,1.7c0.1,0.4,0.2,0.8,0.4,1.1
			c0.2,0.4,0.4,0.7,0.6,1.1c0.2,0.4,0.5,1,0.7,1.6l0.1,0.4l-0.3,0.2c-0.6,0.4-1.5,1-2.7,1.8c-1.2,0.8-2.4,1.7-3.6,2.6
			c-1.2,0.9-2.3,1.8-3.4,2.7c-1.2,1-1.7,1.6-1.9,2c-0.2,0.3-0.3,0.7-0.4,1.2c-0.1,0.5-0.2,0.9-0.2,1.3c0,0.7,0.1,1.3,0.4,1.8
			c0.3,0.5,0.7,0.8,1.2,1.1c0.5,0.3,1.1,0.5,1.7,0.6c0.7,0.1,1.3,0.2,2,0.2l16,0.1c0.4,0,0.8,0,1.3,0c0.3,0,0.6-0.1,0.7-0.4
			c0.5-0.7,1-1.4,1.5-2.1c0.3-0.5,0.6-1.1,0.8-1.7c-3.3,0.1-6.6,0.1-9.9,0.1c-3.5,0-7,0-10.6,0l-1.5,0l1.2-0.9
			c1.3-1,2.7-1.9,4.1-2.8c1.4-0.9,2.7-1.8,4.1-2.7l2-1.3c0.7-0.4,1.3-0.9,1.8-1.3c0.2-0.2,0.4-0.5,0.6-0.8c0.2-0.3,0.3-0.6,0.3-0.9
			c0-0.3-0.1-0.6-0.4-1c-0.3-0.4-0.7-0.9-1.1-1.4c-0.4-0.5-0.8-1.1-1.1-1.6c-0.4-0.6-0.6-1.4-0.6-2.2c0-0.5,0.1-1,0.4-1.5
			c0.2-0.5,0.5-1,0.9-1.5c0.3-0.5,0.7-0.9,1.1-1.3c0.4-0.4,0.7-0.7,1-0.9c0.6-0.5,1.4-0.9,2.2-1.3c0.8-0.4,1.7-0.8,2.5-1.2
			c0.9-0.4,1.8-0.6,2.7-0.9c1.7-0.4,3.1-0.5,4.5,0l0.5,0.2l-0.1,0.5c-0.3,1-0.9,2-1.7,2.9c-0.8,0.8-1.7,1.6-2.6,2.4
			c-0.9,0.7-1.9,1.4-2.9,2.1c-0.7,0.5-1.4,1-1.9,1.4c0.5,0.2,1,0.5,1.5,0.7c0.7,0.3,1.4,0.6,2.1,1c1.2-0.7,2.4-1.6,3.5-2.4
			c1.2-0.9,2.4-1.9,3.4-3c0.7-0.7,1.2-1.6,1.6-2.6c0.3-1,0.5-2.1,0.5-3.1c0-0.7-0.1-1.3-0.4-1.8c-0.3-0.5-0.7-1-1.2-1.3
			c-0.5-0.4-1.1-0.6-1.7-0.8C132.2,100.3,131.6,100.3,130.9,100.3z"/>
	</g>
	<g>
		<path class="st3" d="M140.5,110.1l-0.8-1.2l0.2-0.3c0.8-1,1.5-2.1,2.1-3.2c-0.1,0-0.2,0-0.4,0c-0.4,0-0.9-0.1-1.3-0.2l-0.5-0.1
			l0.1-0.5c0.2-0.8,0.6-1.5,1-2.1c0.4-0.6,0.8-1.2,1.2-1.8c0.2-0.3,0.5-0.6,0.8-0.7c0.7-0.3,1.6-0.2,2.5-0.2c0.6,0,1.1,0.1,1.6,0.3
			c0.5,0.2,0.9,0.5,1.2,0.9c0.3,0.4,0.5,1.1,0.5,1.8c0,0.4-0.1,0.9-0.5,1.6c-0.3,0.6-0.6,1.3-1,2c-0.4,0.7-0.8,1.3-1.2,1.9
			c-0.4,0.6-0.7,1.1-1,1.4l-0.1,0.2h-0.2c-0.7,0-1.4,0-2.1,0c-0.7,0-1.4,0.1-2,0.2L140.5,110.1z M140.9,109L140.9,109
			c0.6,0,1.3-0.1,1.9-0.1c0.6,0,1.3,0,1.9,0c0.2-0.3,0.5-0.6,0.8-1.1c0.4-0.6,0.8-1.2,1.2-1.9c0.4-0.7,0.7-1.3,1-1.9
			c0.3-0.7,0.4-1,0.4-1.2c0-0.6-0.1-1-0.3-1.2c-0.2-0.3-0.5-0.5-0.8-0.6c-0.4-0.1-0.8-0.2-1.2-0.2c-0.5,0-1,0-1.5,0
			c-0.2,0-0.4,0-0.6,0.1c-0.1,0.1-0.3,0.2-0.4,0.4c-0.4,0.6-0.8,1.2-1.3,1.8c-0.3,0.4-0.5,0.9-0.7,1.3c0.2,0,0.4,0,0.6,0.1
			c0.4,0,0.8,0,1.2,0h0.9l-0.4,0.7C142.6,106.5,141.8,107.8,140.9,109z"/>
	</g>
	<g>
		<path class="st3" d="M136.8,134.8c-0.9,0-1.8,0-2.7,0l-0.8,0l0.3-0.7c0.4-0.9,0.9-1.8,1.4-2.6c0.5-0.8,1.1-1.6,1.6-2.4l0.1-0.2
			l13.3,0.1c0.5,0,1,0,1.7-0.1c0.6-0.1,1.2-0.2,1.7-0.4c0.5-0.2,0.9-0.5,1.3-0.8c0.3-0.3,0.5-0.7,0.5-1.2c0-0.5-0.2-1-0.5-1.5
			c-0.4-0.6-0.9-1.2-1.5-1.8c-0.6-0.6-1.2-1.3-2-1.9c-0.7-0.7-1.4-1.4-2-2.1c-0.6-0.8-1.2-1.6-1.6-2.4c-0.4-0.9-0.7-1.8-0.7-2.8
			c0-0.6,0.1-1.2,0.3-1.8c0.2-0.6,0.4-1.1,0.7-1.7c1-1.7,2.3-3.3,4-4.7c1.6-1.4,3.4-2.6,5.4-3.6c1.9-1,4-1.8,6.1-2.3
			c2.1-0.5,4.1-0.8,6.1-0.8c1.3,0,2.3,0.4,3,1.3c0.7,0.8,1,1.8,0.9,3c0,1.1-0.3,2.3-1,3.6c-0.6,1.3-1.4,2.6-2.2,3.8
			c-0.9,1.3-1.8,2.5-2.7,3.6c-0.9,1.1-1.7,2.1-2.4,2.8l-0.1,0.2h-7.2l0.5-0.8c0.5-0.8,1.2-1.7,2.1-2.7c0.8-1,1.7-2.1,2.5-3.2
			c0.8-1.1,1.6-2.2,2.2-3.2c0.5-0.7,0.8-1.4,1-2c-0.5,0-1.2,0.1-1.9,0.3c-0.9,0.2-1.8,0.5-2.7,1c-0.9,0.4-1.9,0.9-2.8,1.4
			c-0.9,0.5-1.8,1.1-2.5,1.7c-0.7,0.6-1.3,1.3-1.8,1.9c-0.4,0.6-0.6,1.2-0.6,1.8c0,0.4,0.2,0.9,0.5,1.4c0.4,0.6,0.8,1.1,1.4,1.8
			c0.6,0.6,1.2,1.3,1.9,2c0.7,0.7,1.3,1.5,1.9,2.2c0.6,0.8,1.1,1.6,1.5,2.4c0.4,0.9,0.6,1.8,0.6,2.7c0,0.7-0.1,1.4-0.3,2.2
			c-0.2,0.7-0.5,1.4-0.9,2c-0.4,0.7-0.8,1.3-1.3,1.8c-0.5,0.6-1,1-1.6,1.4c-0.5,0.3-1.1,0.6-1.7,0.8c-0.6,0.2-1.2,0.3-1.8,0.4
			c-0.6,0.1-1.2,0.2-1.9,0.2c-0.6,0-1.2,0-1.7,0c-2.7,0-5.4,0-8.2,0.1C140.5,134.7,138.6,134.8,136.8,134.8z M134.9,133.8
			c2.5,0,4.9,0,7.4-0.1c2.8-0.1,5.5-0.1,8.2-0.1c0.5,0,1.1,0,1.7,0c0.6,0,1.2-0.1,1.7-0.2c0.6-0.1,1.1-0.2,1.7-0.4
			c0.5-0.2,1-0.4,1.4-0.7c0.5-0.3,1-0.7,1.4-1.2c0.4-0.5,0.8-1.1,1.2-1.7c0.3-0.6,0.6-1.2,0.8-1.9c0.2-0.6,0.3-1.2,0.3-1.8
			c0-0.8-0.2-1.5-0.5-2.2c-0.4-0.8-0.9-1.5-1.4-2.2c-0.6-0.7-1.2-1.5-1.9-2.2c-0.7-0.7-1.3-1.4-1.9-2c-0.6-0.7-1.1-1.3-1.5-1.9
			c-0.4-0.7-0.7-1.3-0.7-1.9c0-0.8,0.3-1.6,0.8-2.4c0.5-0.7,1.2-1.4,1.9-2.1c0.8-0.7,1.7-1.3,2.7-1.9c1-0.6,2-1.1,2.9-1.5
			c1-0.4,1.9-0.8,2.8-1c0.9-0.2,1.7-0.4,2.4-0.4h1.1l-0.1,0.6c-0.2,0.9-0.6,1.9-1.3,3c-0.7,1.1-1.4,2.2-2.3,3.3
			c-0.8,1.1-1.7,2.2-2.5,3.2c-0.6,0.7-1.1,1.3-1.5,1.9h4.8c0.6-0.7,1.3-1.6,2.2-2.6c0.9-1.1,1.8-2.3,2.6-3.6
			c0.8-1.2,1.6-2.5,2.2-3.7c0.6-1.2,0.9-2.2,0.9-3.2c0-1-0.2-1.7-0.7-2.4c-0.5-0.6-1.2-0.9-2.2-0.9c-1.8,0-3.8,0.3-5.8,0.8
			c-2,0.5-4,1.3-5.9,2.2c-1.9,0.9-3.6,2.1-5.2,3.4c-1.6,1.3-2.8,2.8-3.7,4.4c-0.2,0.5-0.4,1-0.6,1.5c-0.2,0.5-0.2,1-0.2,1.5
			c0,0.8,0.2,1.6,0.5,2.4c0.4,0.8,0.9,1.5,1.5,2.2c0.6,0.7,1.3,1.4,2,2.1c0.7,0.7,1.4,1.3,2,2c0.6,0.6,1.1,1.3,1.6,1.9
			c0.5,0.7,0.7,1.4,0.7,2.1c0,0.8-0.3,1.5-0.8,2c-0.5,0.4-1,0.8-1.6,1.1c-0.6,0.3-1.3,0.4-2,0.5c-0.7,0.1-1.3,0.1-1.8,0.1l-12.7,0
			c-0.5,0.7-1,1.5-1.5,2.2C135.5,132.6,135.2,133.1,134.9,133.8z"/>
	</g>
	<g>
		<path class="st3" d="M182.3,135.5c-0.1,0-0.3,0-0.5-0.1c-0.2-0.1-0.4-0.2-0.6-0.3c-0.2-0.1-0.3-0.2-0.5-0.3l-0.7-0.3l0-0.3
			c0.3-2.2,0.9-4.4,1.6-6.6c0.8-2.1,1.5-4.2,2.2-6.3c0.5-1.4,0.9-2.8,1.4-4.3c0.5-1.5,1.1-2.9,1.9-4.2c0.3-0.4,0.7-0.8,1.4-1.1
			c0.6-0.3,1.2-0.5,1.9-0.7c0.7-0.2,1.4-0.3,2-0.4c0.7-0.1,1.2-0.2,1.6-0.2l0.9-0.1l-0.5,0.8c-0.6,1.1-1.3,2.4-2,4
			c-0.7,1.6-1.5,3.3-2.2,5c-0.7,1.7-1.3,3.5-1.9,5.1c-0.4,1.3-0.8,2.5-1,3.5c1.6-0.5,3.3-1.1,4.8-2c1.8-1,3.6-2,5.3-3.1
			c1.2-0.8,2.6-1.8,4.1-3s3-2.6,4.3-4.2c1.4-1.5,2.5-3.1,3.4-4.7c0.9-1.6,1.3-3.1,1.3-4.6c0-0.3-0.1-0.5-0.2-0.7
			c-0.2-0.2-0.4-0.4-0.7-0.5c-0.3-0.1-0.6-0.2-1-0.2c-0.4,0-0.7,0-1,0c-1,0-1.9,0.1-2.8,0.3c-0.9,0.3-1.9,0.5-2.9,0.7
			c-2.5,0.6-5.1,1.2-7.5,1.9c-2.4,0.7-4.9,1.5-7.4,2.4c-0.8,0.3-1.7,0.7-2.5,1.1c-0.9,0.4-1.8,0.8-2.7,1.1l-0.7,0.2v-0.7
			c0-2.1,0.4-4.1,1.2-6l0.1-0.1c0.4-0.4,0.9-0.7,1.5-1c0.5-0.2,1-0.4,1.5-0.6c1.9-0.6,3.8-1.2,5.7-1.8c1.9-0.6,3.9-1.2,5.8-1.7
			c1.9-0.5,3.9-0.9,5.9-1.3c2-0.3,4-0.5,6-0.6h0.6c2.1,0,3.9,0.7,5.2,2c1.3,1.3,2,3.1,2,5.2c0,1-0.2,2.1-0.5,3.3
			c-0.4,1.1-0.8,2.2-1.4,3.3c-0.5,1.1-1.2,2.1-1.8,3.1c-0.7,1-1.3,1.8-2,2.6c-1,1.1-1.9,2.2-2.8,3.3c-1,1.2-2,2.2-3.2,3.1
			c-1,0.7-2.2,1.6-3.5,2.5c-1.4,0.9-2.8,1.8-4.3,2.7c-1.5,0.9-3,1.7-4.4,2.3c-1.5,0.7-2.8,1.2-4,1.5c-1,0.3-2.1,0.5-3.3,0.6
			C184.5,135.4,183.4,135.5,182.3,135.5z M181.1,133.9L181.1,133.9c0.2,0.1,0.4,0.2,0.6,0.3c0.2,0.1,0.3,0.2,0.5,0.2
			c0.1,0,0.2,0.1,0.2,0.1c1,0,2.1-0.1,3.3-0.2c1.1-0.1,2.2-0.3,3.2-0.6c1.1-0.3,2.4-0.8,3.8-1.4c1.4-0.7,2.9-1.4,4.4-2.3
			c1.5-0.9,2.9-1.8,4.2-2.7c1.3-0.9,2.5-1.7,3.5-2.5c1.1-0.8,2.2-1.8,3.1-2.9c0.9-1.1,1.9-2.3,2.9-3.4c0.6-0.7,1.3-1.5,1.9-2.5
			c0.7-0.9,1.2-1.9,1.8-3c0.5-1,1-2.1,1.3-3.2c0.3-1,0.5-2,0.5-2.9c0-1.9-0.6-3.3-1.7-4.5c-1.2-1.1-2.6-1.7-4.5-1.7h-0.6
			c-1.9,0.1-3.9,0.3-5.8,0.6c-1.9,0.3-3.9,0.7-5.8,1.2c-1.9,0.5-3.9,1-5.8,1.6c-1.9,0.6-3.8,1.2-5.7,1.8c-0.4,0.2-0.9,0.3-1.4,0.5
			c-0.4,0.2-0.8,0.4-1.1,0.7c-0.7,1.5-1,3.1-1.1,4.8c0.6-0.2,1.3-0.5,1.9-0.8c0.9-0.4,1.7-0.8,2.6-1.1c2.5-0.9,5-1.7,7.5-2.4
			c2.5-0.7,5-1.4,7.6-2c1-0.2,1.9-0.5,2.8-0.7c1-0.3,2-0.4,3-0.3c0,0,0,0,0,0c0.3,0,0.7,0,1.1,0.1c0.4,0,0.9,0.1,1.3,0.3
			c0.4,0.2,0.8,0.4,1.1,0.7c0.3,0.3,0.5,0.8,0.5,1.4c0,1.6-0.5,3.4-1.5,5.1c-0.9,1.7-2.1,3.3-3.5,4.9c-1.4,1.6-2.9,3-4.5,4.3
			c-1.6,1.3-3,2.3-4.2,3.1c-1.7,1.1-3.5,2.1-5.3,3.1c-1.9,1.1-3.8,1.8-5.9,2.3l-0.8,0.2l0.1-0.8c0.2-1.2,0.6-2.7,1.2-4.4
			c0.6-1.7,1.2-3.4,1.9-5.2c0.7-1.8,1.4-3.5,2.2-5.1c0.6-1.2,1.1-2.3,1.6-3.2c-0.2,0-0.4,0.1-0.6,0.1c-0.6,0.1-1.3,0.2-2,0.4
			c-0.6,0.2-1.2,0.4-1.8,0.6c-0.5,0.2-0.8,0.5-0.9,0.7c-0.7,1.2-1.4,2.6-1.8,4c-0.5,1.5-0.9,2.9-1.4,4.3c-0.7,2.1-1.5,4.2-2.3,6.3
			C181.9,129.8,181.4,131.8,181.1,133.9z"/>
	</g>
	<g>
		<path class="st3" d="M209.8,134.8h-0.7l0.2-0.6c0.3-1.1,0.8-2,1.5-2.9c0.6-0.8,1.2-1.6,1.7-2.4l0.1-0.3h0.3c1.7,0,3.4,0,5.1,0
			c1.7,0,3.4,0,5.1,0c1.4,0,2.7-0.1,3.8-0.4c1.1-0.3,2.2-0.9,3.4-1.7c0.8-0.6,1.5-1.2,2-1.9c0.5-0.7,1-1.4,1.4-2.1
			c0.4-0.7,0.8-1.5,1.1-2.3c0.3-0.8,0.7-1.7,1.1-2.7c0.8-1.8,1.6-3.5,2.3-5.3c0.7-1.7,1.4-3.5,2.1-5.3c0-0.3,0.1-0.6,0.2-0.9
			c0.1-0.3,0.1-0.5,0.1-0.8c0-0.2,0-0.3-0.1-0.3c-0.6,0-1.3,0.1-1.9,0.4c-0.7,0.3-1.4,0.6-2.1,1c-0.7,0.4-1.3,0.9-2,1.4
			c-0.6,0.5-1.2,1-1.8,1.4c-0.3,0.2-0.7,0.7-1.3,1.3c-0.6,0.6-1.2,1.2-1.9,1.9c-0.6,0.7-1.2,1.3-1.6,2c-0.6,0.8-0.6,1.1-0.6,1.3
			c0,0.9,0.2,1.7,0.7,2.5c0.5,0.8,1,1.7,1.6,2.4l0.2,0.3l-0.3,0.3c-0.6,0.7-1.3,1.4-1.9,2.1c-0.6,0.7-1.3,1.4-1.9,2.1l-0.4,0.5
			l-0.4-0.6c-0.9-1.4-1.7-2.9-2.4-4.5c-0.7-1.6-1.1-3.3-1.1-5.1c0-0.5,0-1,0.1-1.5c0.1-0.5,0.2-1,0.4-1.5c0.4-1,1-2,1.8-3
			c0.8-1,1.7-2,2.7-3c1-1,2.1-1.9,3.3-2.8c1.2-0.9,2.4-1.7,3.7-2.4c1.2-0.7,2.4-1.3,3.6-1.8c1.2-0.5,2.3-0.8,3.4-0.9
			c0.4-0.1,0.7-0.1,1.1-0.2c0.4,0,0.8-0.1,1.1-0.1c1.3,0,2.5,0.5,3.3,1.5c0.8,1,1.2,2.1,1.2,3.4c0,0.6-0.2,1.5-0.5,2.7
			c-0.3,1.1-0.8,2.4-1.3,3.7c-0.5,1.3-1,2.6-1.5,3.7c-0.5,1.2-0.9,2.1-1.1,2.7c-0.8,1.8-1.5,3.7-2.3,5.6c-0.8,1.9-1.8,3.7-3,5.3
			c-1.2,1.6-2.5,3.1-4.1,4.3c-1.6,1.2-3.5,2-5.8,2.4c-1.1,0.2-2.3,0.3-3.4,0.4l-3.4,0.2C217.2,134.8,213.5,134.8,209.8,134.8z
			 M213.3,129.6c-0.5,0.8-1,1.6-1.7,2.3c-0.5,0.6-0.8,1.2-1.1,1.8c3.4,0,6.9-0.1,10.3-0.1l3.4-0.2c1.1-0.1,2.2-0.2,3.3-0.4
			c2.1-0.4,3.9-1.1,5.4-2.3c1.5-1.1,2.8-2.5,3.9-4.1c1.1-1.6,2.1-3.3,2.8-5.2c0.8-1.9,1.6-3.7,2.3-5.6c0.3-0.6,0.6-1.5,1.1-2.7
			c0.5-1.2,1-2.4,1.4-3.7c0.5-1.3,0.9-2.5,1.2-3.6c0.3-1.1,0.5-1.9,0.5-2.4c0-1.1-0.3-1.9-1-2.7c-0.7-0.8-1.5-1.1-2.5-1.1
			c-0.4,0-0.7,0-1.1,0c-0.4,0-0.7,0.1-1.1,0.1c-1,0.1-2,0.4-3.2,0.9c-1.1,0.5-2.3,1-3.5,1.7c-1.2,0.7-2.4,1.4-3.5,2.3
			c-1.2,0.8-2.2,1.8-3.2,2.7c-1,0.9-1.9,1.9-2.6,2.9c-0.7,1-1.3,1.9-1.6,2.8c-0.2,0.4-0.3,0.8-0.3,1.2c-0.1,0.5-0.1,0.9-0.1,1.3
			c0,1.6,0.3,3.2,1,4.6c0.6,1.3,1.3,2.6,2,3.8c0.5-0.6,1-1.1,1.5-1.6c0.5-0.6,1.1-1.2,1.6-1.8c-0.5-0.7-1-1.4-1.4-2.2
			c-0.6-0.9-0.8-2-0.8-3c0-0.5,0.3-1.1,0.8-1.8c0.5-0.7,1.1-1.4,1.7-2.1c0.6-0.7,1.3-1.3,1.9-1.9c0.6-0.6,1.1-1,1.4-1.3
			c0.6-0.4,1.1-0.9,1.8-1.4c0.7-0.5,1.4-1,2.1-1.5c0.7-0.4,1.5-0.8,2.3-1.1c0.8-0.3,1.6-0.5,2.4-0.5l0.2,0c0.5,0.2,0.8,0.7,0.8,1.3
			c0,0.3,0,0.7-0.1,1c-0.1,0.3-0.1,0.6-0.2,0.8l0,0.1c-0.7,1.8-1.4,3.6-2.2,5.3c-0.7,1.8-1.5,3.5-2.3,5.3c-0.4,0.9-0.8,1.8-1.1,2.6
			c-0.3,0.8-0.7,1.7-1.2,2.4c-0.4,0.8-0.9,1.5-1.5,2.2c-0.6,0.7-1.3,1.4-2.2,2.1c-1.2,0.9-2.5,1.6-3.7,1.9c-1.2,0.3-2.6,0.5-4.1,0.5
			c-1.7,0-3.4,0-5.1,0C216.5,129.6,214.9,129.6,213.3,129.6z"/>
	</g>
	<g>
		<path class="st3" d="M262,135.3c-0.6,0-1.1-0.2-1.5-0.7c-0.3-0.4-0.5-0.8-0.7-1.4c-0.1-0.5-0.2-1-0.2-1.5c0-0.5,0-0.9,0-1.3
			c0-1.4,0.1-2.8,0.3-4.2c0.2-1.4,0.5-2.7,0.8-4l0.8-4c0.1-0.6,0.3-1.3,0.4-1.9c-0.2,0.3-0.4,0.7-0.6,1c-0.6,1-1.2,1.9-1.8,2.8
			c-2.3,3.7-4.8,7.2-7.6,10.6c-0.3,0.4-0.7,0.9-1,1.4c-0.4,0.5-0.7,0.9-1.1,1.3c-0.3,0.3-0.6,0.7-1,1c-0.4,0.3-0.9,0.6-1.4,0.6
			c-0.5,0.1-1,0.1-1.6,0c-1-0.1-1.8-0.1-2.7-0.1c-0.5,0-0.9-0.1-1.4-0.2l-0.9-0.2l0.7-0.6c2.9-2.6,5.5-5.5,7.9-8.6
			c2.4-3.1,4.7-6.3,6.9-9.5c1.7-2.4,3.2-4.8,4.6-7.3c1.4-2.5,2.9-5,4.5-7.5l0.1-0.2l0.2-0.1c1-0.3,2.1-0.6,3.1-0.8
			c1-0.2,2.1-0.4,3.1-0.6l0.9-0.2l-0.4,0.9c-0.9,2-1.7,4.1-2.5,6.4c-0.8,2.2-1.6,4.5-2.2,6.9c-0.6,2.3-1.2,4.7-1.6,7
			c-0.3,1.9-0.6,3.8-0.7,5.7c0.8-0.7,1.6-1.5,2.2-2.4c0.9-1.2,1.8-2.5,2.6-3.7c1-1.3,1.9-2.8,2.8-4.2c0.9-1.4,1.7-2.9,2.5-4.4
			c0.3-0.6,0.6-1.1,0.8-1.7c0.3-0.6,0.6-1.2,0.9-1.8c0.8-1.5,1.6-2.9,2.2-4.4c0.7-1.4,1.3-2.9,1.8-4.5l0.3-1l0.6,0.9
			c0.1,0.2,0.4,0.5,0.7,1c0.3,0.5,0.7,1,1,1.5c0.4,0.5,0.7,1,0.9,1.5c0.3,0.6,0.4,0.9,0.4,1.2c0,0.4-0.1,0.8-0.2,1.2
			c-0.2,0.3-0.3,0.6-0.5,0.9c-0.9,2-2,4-3,6c-1,2-2.2,3.9-3.3,5.8c-1.2,1.9-2.4,3.8-3.7,5.6c-1.3,1.8-2.8,3.6-4.3,5.2
			c-0.4,0.5-0.9,1-1.5,1.7c-0.6,0.7-1.3,1.4-2.1,2.1c-0.8,0.7-1.5,1.3-2.3,1.8C263.4,135,262.7,135.3,262,135.3z M263.5,112.5
			l-0.3,1.8c-0.2,1.4-0.4,2.7-0.7,4.1l-0.8,4c-0.3,1.3-0.5,2.7-0.7,4c-0.2,1.3-0.3,2.7-0.3,4c0,0.4,0,0.8,0,1.3
			c0,0.5,0.1,0.9,0.2,1.3c0.1,0.4,0.3,0.7,0.5,1c0.4,0.5,1.4,0.4,2.5-0.3c0.7-0.5,1.4-1,2.2-1.7c0.7-0.7,1.4-1.4,2-2
			c0.6-0.7,1.1-1.3,1.5-1.7c1.5-1.7,2.9-3.4,4.3-5.2c1.3-1.8,2.5-3.6,3.7-5.5c1.2-1.9,2.3-3.8,3.3-5.8c1-2,2-4,3-6
			c0.2-0.3,0.3-0.5,0.4-0.8c0.1-0.2,0.2-0.5,0.2-0.8c0,0,0-0.2-0.3-0.8c-0.2-0.5-0.5-0.9-0.9-1.4c-0.3-0.5-0.7-1-1-1.5
			c0-0.1-0.1-0.1-0.1-0.2c-0.5,1.3-1,2.5-1.5,3.7c-0.7,1.4-1.4,2.9-2.3,4.4c-0.3,0.6-0.6,1.1-0.9,1.7c-0.3,0.6-0.6,1.2-0.9,1.8
			c-0.8,1.5-1.6,3-2.5,4.5c-0.9,1.4-1.8,2.9-2.8,4.2c-0.9,1.2-1.7,2.4-2.6,3.6c-0.9,1.3-2,2.4-3.3,3.3l-0.8,0.6l0-1
			c0.1-2.2,0.3-4.5,0.7-6.9c0.4-2.4,1-4.8,1.6-7.1c0.7-2.4,1.4-4.7,2.2-7c0.7-1.9,1.4-3.8,2.2-5.6c-0.7,0.1-1.5,0.3-2.2,0.4
			c-0.9,0.2-1.9,0.4-2.9,0.7c-1.5,2.4-3,4.8-4.3,7.3c-1.4,2.5-3,5-4.7,7.3c-2.2,3.2-4.6,6.4-6.9,9.5c-2.2,2.8-4.6,5.5-7.2,8
			c0.1,0,0.2,0,0.3,0c0.9,0.1,1.8,0,2.8,0.1c0.5,0,0.9,0,1.3,0c0.4-0.1,0.7-0.2,0.9-0.4c0.3-0.3,0.6-0.6,0.9-0.9
			c0.4-0.4,0.7-0.8,1.1-1.2c0.3-0.4,0.7-0.9,1-1.4c2.7-3.4,5.3-6.9,7.5-10.5c0.6-0.9,1.2-1.8,1.7-2.8c0.6-1,1.2-1.9,1.9-2.8
			L263.5,112.5z"/>
	</g>
	<g>
		<path class="st3" d="M299.5,135l-16-0.1c-0.7,0-1.4-0.1-2.2-0.2c-0.7-0.1-1.4-0.4-2-0.7c-0.6-0.3-1.2-0.8-1.6-1.4
			c-0.4-0.6-0.6-1.4-0.6-2.3c0-0.5,0.1-1,0.2-1.5c0.1-0.5,0.3-1,0.5-1.4c0.3-0.6,1-1.3,2.1-2.2c1-0.9,2.2-1.8,3.4-2.7
			c1.2-0.9,2.4-1.8,3.6-2.6c1-0.7,1.8-1.2,2.3-1.6c-0.2-0.4-0.3-0.8-0.5-1.1c-0.2-0.4-0.4-0.8-0.6-1.2c-0.2-0.4-0.3-0.9-0.4-1.4
			c-0.1-0.5-0.2-1.1-0.2-2c0-1.4,0.3-2.7,1-3.9c0.6-1.2,1.5-2.3,2.5-3.3c1-1,2.2-1.9,3.5-2.6c1.3-0.8,2.6-1.4,4-2
			c1.4-0.5,2.8-1,4.1-1.2c2.2-0.4,4.1-0.6,6-0.1c0.8,0.2,1.4,0.5,2,1c0.6,0.4,1.1,1,1.5,1.6c0.4,0.7,0.6,1.5,0.6,2.3
			c0,1.2-0.2,2.3-0.6,3.4c-0.4,1.2-1,2.2-1.8,3c-1.1,1.1-2.3,2.1-3.5,3c-1.2,0.9-2.5,1.8-3.8,2.6l-0.3,0.2l-0.3-0.1
			c-0.8-0.4-1.5-0.8-2.3-1.1c-0.8-0.3-1.5-0.7-2.3-1.1l-0.7-0.3l0.6-0.5c0.7-0.6,1.6-1.3,2.6-2c1-0.7,1.9-1.4,2.9-2.1
			c0.9-0.7,1.8-1.5,2.5-2.2c0.6-0.6,1-1.3,1.3-2c-1.1-0.3-2.2-0.1-3.5,0.2c-0.9,0.2-1.7,0.5-2.5,0.8c-0.8,0.3-1.6,0.7-2.4,1.2
			c-0.8,0.4-1.5,0.8-2,1.3c-0.3,0.2-0.6,0.5-0.9,0.8c-0.4,0.3-0.7,0.7-1,1.2c-0.3,0.4-0.6,0.9-0.8,1.3c-0.2,0.4-0.3,0.8-0.3,1.1
			c0,0.6,0.1,1.2,0.4,1.6c0.3,0.5,0.7,1,1.1,1.5c0.4,0.5,0.8,0.9,1.1,1.4c0.4,0.5,0.6,1.1,0.6,1.6c0,0.5-0.1,0.9-0.4,1.4
			c-0.3,0.4-0.5,0.8-0.8,1c-0.6,0.5-1.2,1-1.9,1.4l-2,1.3c-1.4,0.9-2.8,1.8-4.1,2.7c-0.9,0.6-1.9,1.2-2.8,1.9c3,0,6.1,0,9.1,0
			c3.6,0,7.1-0.1,10.6-0.1l0.6,0l-0.1,0.6c-0.2,0.9-0.6,1.8-1.1,2.6c-0.5,0.8-1,1.5-1.6,2.2c-0.4,0.4-0.8,0.7-1.5,0.7
			C300.3,135,299.9,135,299.5,135z M306.4,100.3c-1.1,0-2.3,0.1-3.6,0.4c-1.3,0.3-2.6,0.7-4,1.2c-1.3,0.5-2.6,1.2-3.9,1.9
			c-1.2,0.7-2.3,1.6-3.3,2.5c-0.9,0.9-1.7,1.9-2.3,3c-0.6,1.1-0.8,2.3-0.8,3.5c0,0.7,0,1.3,0.1,1.7c0.1,0.4,0.2,0.8,0.4,1.1
			c0.2,0.4,0.4,0.7,0.6,1.1c0.2,0.4,0.5,1,0.7,1.6l0.1,0.4l-0.3,0.2c-0.6,0.4-1.5,1-2.7,1.8c-1.2,0.8-2.4,1.7-3.6,2.6
			c-1.2,0.9-2.3,1.8-3.4,2.7c-1.2,1-1.7,1.6-1.9,2c-0.2,0.3-0.3,0.7-0.4,1.2c-0.1,0.5-0.2,0.9-0.2,1.3c0,0.7,0.1,1.3,0.4,1.8
			c0.3,0.5,0.7,0.8,1.2,1.1c0.5,0.3,1.1,0.5,1.7,0.6c0.7,0.1,1.3,0.2,2,0.2l16,0.1c0.4,0,0.8,0,1.3,0c0.3,0,0.6-0.1,0.7-0.4
			c0.5-0.7,1-1.4,1.5-2.1c0.3-0.5,0.6-1.1,0.8-1.7c-3.3,0.1-6.6,0.1-9.9,0.1c-3.5,0-7,0-10.6,0l-1.5,0l1.2-0.9
			c1.3-1,2.7-1.9,4.1-2.8c1.4-0.9,2.7-1.8,4.1-2.7l2-1.3c0.7-0.4,1.3-0.9,1.8-1.3c0.2-0.2,0.4-0.5,0.6-0.8c0.2-0.3,0.3-0.6,0.3-0.9
			c0-0.3-0.1-0.6-0.4-1c-0.3-0.4-0.7-0.9-1.1-1.4c-0.4-0.5-0.8-1.1-1.1-1.6c-0.4-0.6-0.6-1.4-0.6-2.2c0-0.5,0.1-1,0.4-1.5
			c0.2-0.5,0.5-1,0.9-1.5c0.3-0.5,0.7-0.9,1.1-1.3c0.4-0.4,0.7-0.7,1-0.9c0.6-0.5,1.4-0.9,2.2-1.3c0.8-0.4,1.7-0.8,2.5-1.2
			c0.9-0.4,1.8-0.6,2.7-0.9c1.7-0.4,3.1-0.5,4.5,0l0.5,0.2l-0.1,0.5c-0.3,1-0.9,2-1.7,2.9c-0.8,0.8-1.7,1.6-2.6,2.4
			c-0.9,0.7-1.9,1.4-2.9,2.1c-0.7,0.5-1.4,1-1.9,1.4c0.5,0.2,1,0.5,1.5,0.7c0.7,0.3,1.4,0.6,2.1,1c1.2-0.7,2.4-1.6,3.5-2.4
			c1.2-0.9,2.4-1.9,3.4-3c0.7-0.7,1.2-1.6,1.6-2.6c0.3-1,0.5-2.1,0.5-3.1c0-0.7-0.1-1.3-0.4-1.8c-0.3-0.5-0.7-1-1.2-1.3
			c-0.5-0.4-1.1-0.6-1.7-0.8C307.7,100.3,307.1,100.3,306.4,100.3z"/>
	</g>
	<g>
		<path class="st3" d="M343.5,135.1h-5.3c-0.9,0-1.8,0-2.6,0c-0.9,0-1.5-0.1-2-0.2c-0.3-0.1-0.8-0.3-1.2-1c-0.2-0.4-0.4-0.8-0.5-1
			c-0.7-1.4-1.4-2.6-2.2-3.7c-0.8-1.1-1.7-2.1-2.8-3.1c-0.7-0.3-1.4-0.4-2.2-0.3c-0.9,0.1-1.8,0-2.7-0.3l-0.7-0.2l0.4-0.6
			c0.7-1,1.5-1.8,2.4-2.6c0.9-0.7,1.8-1.4,2.8-2.1l0.1-0.1l0.1,0c0.6-0.1,1.1-0.1,1.7-0.1c0.5,0,1,0,1.6,0c1.5,0,3-0.4,4.5-1.1
			c1.5-0.7,2.9-1.7,4.1-2.9c1.2-1.2,2.2-2.6,2.9-4.1c0.7-1.5,1.1-3,1.1-4.5c0-0.4-0.1-0.8-0.2-1.2c-0.1-0.3-0.3-0.6-0.5-0.8
			c-0.1,0-0.2-0.1-0.3-0.1c-0.1,0-0.2,0-0.3,0c-0.8,0-1.8,0.4-2.9,1.1c-1.2,0.8-2.4,1.7-3.6,2.8c-1.2,1.1-2.4,2.2-3.5,3.3
			c-1.1,1.1-1.9,2-2.5,2.6c-1.3,1.4-2.7,2.8-4.1,4.3c-1.4,1.4-2.6,2.9-3.7,4.4c-0.2,0.3-0.5,0.7-0.8,1.3c-0.4,0.6-0.7,1.2-1.2,2
			c-0.4,0.7-0.9,1.5-1.4,2.3c-0.5,0.8-1,1.5-1.4,2.2c-0.5,0.7-0.9,1.2-1.3,1.7c-0.5,0.6-0.9,0.9-1.2,1c-1.1,0.4-2.3,0.6-3.4,0.8
			c-1.2,0.2-2.3,0.2-3.5,0.2l-0.7,0l0.2-0.6c0.2-0.6,0.7-1.5,1.4-2.6c0.7-1.1,1.4-2.2,2.2-3.4c0.8-1.1,1.6-2.3,2.4-3.3
			c0.8-1.1,1.4-1.9,1.9-2.4c2-2.5,3.7-5.1,5.1-7.9c1.4-2.7,2.5-5.7,3.5-8.7c0.1-0.3,0.1-0.6,0.1-0.8c0-0.2,0-0.4-0.1-0.6
			c-0.8-0.2-1.5-0.2-2.2-0.1c-0.5,0.1-0.9,0.1-1.4,0.1h-0.3l-0.1-0.3c-0.1-0.2-0.2-0.5-0.3-0.9c-0.1-0.4-0.3-0.9-0.4-1.3
			c-0.1-0.5-0.3-0.9-0.4-1.3c-0.1-0.6-0.2-0.8-0.2-0.9c0-0.3,0.1-0.6,0.3-0.9c0.3-0.5,0.9-0.8,1.6-0.4c1.1,0,2.2,0,3.4,0
			c1.3,0,2.5,0.2,3.6,0.4c1,0.2,1.6,0.8,2,1.6c0.3,0.7,0.5,1.5,0.4,2.3c0,0.8-0.1,1.5-0.3,2.3c-0.2,0.7-0.4,1.4-0.7,2.1
			c-0.3,0.7-0.5,1.4-0.8,2.1c0,0,0,0.1,0,0.1c0.2-0.2,0.4-0.4,0.6-0.6c0.8-0.8,1.7-1.7,2.6-2.6c0.9-0.9,2-1.8,3-2.6
			c1-0.9,2.1-1.7,3.1-2.4c1.1-0.7,2.1-1.3,3.1-1.7c2.3-1,4.3-0.9,5.7,0.1c0.7,0.5,1.4,1.1,1.8,1.9c0.4,0.7,0.8,1.6,1,2.5
			c0.2,0.9,0.3,1.8,0.3,2.7c0,2.2-0.4,4.3-1.2,6.3c-0.8,1.9-1.9,3.8-3.2,5.5c-1.3,1.8-3,3.3-4.8,4.4c-1.6,0.9-3.4,1.6-5.2,2
			c0.5,0.6,0.9,1.2,1.3,1.8c0.5,0.8,1,1.6,1.4,2.4c0.1,0,0.2,0,0.4,0c0.4,0,0.8,0,1.1,0c1.1-0.1,2.3-0.1,3.1,0.2l0.2,0.1l0.1,0.2
			c0.3,0.8,0.6,1.6,0.9,2.3c0.4,0.8,0.6,1.7,0.7,2.6L343.5,135.1z M325.1,124.7c0.8,0,1.6,0.1,2.3,0.4l0.2,0.1
			c1.2,1.1,2.2,2.2,3,3.3c0.8,1.1,1.6,2.4,2.3,3.8c0.2,0.3,0.4,0.7,0.6,1.1c0.2,0.4,0.4,0.4,0.5,0.4c0.4,0.1,1,0.2,1.8,0.2
			c0.8,0,1.7,0,2.6,0h4.1c-0.1-0.6-0.3-1.2-0.5-1.8c-0.3-0.7-0.6-1.4-0.9-2.1c-0.7-0.2-1.6-0.2-2.5-0.1c-0.8,0.1-1.6,0.1-2.1,0
			l-0.2,0l-0.1-0.2c-0.5-0.9-1-1.8-1.5-2.6c-0.5-0.8-1.1-1.6-1.8-2.4l-0.6-0.7l0.9-0.2c2.1-0.4,4-1,5.8-2.1c1.7-1,3.3-2.4,4.5-4.1
			c1.2-1.7,2.3-3.5,3-5.3c0.8-1.8,1.2-3.8,1.2-5.9c0-0.8-0.1-1.6-0.3-2.4c-0.2-0.8-0.5-1.6-0.9-2.2c-0.4-0.6-0.9-1.2-1.5-1.6
			c-1.1-0.7-2.8-0.9-4.7,0c-0.9,0.4-1.9,1-2.9,1.7c-1,0.7-2,1.5-3.1,2.3c-1,0.9-2,1.7-3,2.6c-0.9,0.9-1.8,1.7-2.6,2.5
			c-0.8,0.8-1.5,1.5-2.1,2.1l-1.3,1.3l0.4-1.7c0.2-0.7,0.4-1.4,0.7-2.1c0.3-0.7,0.5-1.4,0.8-2.1c0.3-0.7,0.5-1.4,0.7-2.1
			c0.2-0.7,0.3-1.3,0.3-2c0-0.7-0.1-1.3-0.3-1.9c-0.2-0.5-0.6-0.8-1.3-1c-1-0.3-2.1-0.4-3.3-0.4c-1.2,0-2.4,0-3.5,0h-0.2l-0.1-0.1
			c-0.2-0.1-0.2-0.1-0.2-0.1c0,0-0.1,0-0.1,0.1c-0.1,0.1-0.1,0.3-0.1,0.4c0,0,0,0.2,0.1,0.7c0.1,0.4,0.2,0.8,0.3,1.3
			c0.1,0.4,0.3,0.9,0.4,1.3c0.1,0.2,0.1,0.4,0.2,0.5c0.3,0,0.6,0,0.9-0.1c0.9-0.1,1.9-0.2,2.9,0.2l0.2,0.1l0.1,0.2
			c0.1,0.4,0.2,0.7,0.2,1.2c0,0.4-0.1,0.8-0.2,1.1c-1,3.1-2.2,6.1-3.6,8.9c-1.4,2.8-3.1,5.5-5.2,8.1c-0.5,0.6-1.1,1.4-1.9,2.4
			c-0.8,1.1-1.6,2.2-2.4,3.3c-0.8,1.1-1.5,2.2-2.2,3.3c-0.4,0.7-0.8,1.3-1,1.7c0.9,0,1.8-0.1,2.6-0.2c1.1-0.1,2.2-0.4,3.3-0.8
			c0,0,0.2-0.1,0.7-0.7c0.4-0.4,0.8-1,1.3-1.6c0.5-0.6,0.9-1.3,1.4-2.1c0.5-0.8,0.9-1.5,1.4-2.3c0.4-0.7,0.8-1.4,1.2-2
			c0.4-0.6,0.6-1,0.8-1.3c1.1-1.6,2.4-3.1,3.8-4.6c1.4-1.4,2.8-2.8,4.1-4.2c0.6-0.6,1.4-1.5,2.5-2.6c1.1-1.1,2.3-2.2,3.5-3.3
			c1.3-1.1,2.5-2.1,3.8-2.9c1.3-0.9,2.4-1.3,3.4-1.3c0.2,0,0.4,0,0.6,0.1c0.2,0,0.3,0.1,0.5,0.2l0.2,0.1c0.4,0.4,0.7,0.8,0.8,1.3
			c0.1,0.5,0.2,1,0.2,1.5c0,1.6-0.4,3.3-1.2,4.9c-0.8,1.6-1.8,3.1-3.1,4.4c-1.3,1.3-2.8,2.3-4.4,3.1c-1.6,0.8-3.3,1.2-5,1.2
			c-0.5,0-1.1,0-1.6-0.1c-0.5,0-0.9,0-1.4,0c-0.9,0.6-1.8,1.3-2.6,1.9c-0.6,0.5-1.2,1.1-1.7,1.8c0.5,0.1,1.1,0.1,1.6,0.1
			C324.8,124.7,325,124.7,325.1,124.7z"/>
	</g>
</g>
<g>

		<image style="overflow:visible;" width="1405" height="553" xlink:href="6285A6D662749F84.png"  transform="matrix(0.24 0 0 0.24 25.68 101.7418)">
	</image>
</g>
<path class="st0" d="M321.3,137.9c0.1,30.2-56.8,54.8-126.9,55c-70.2,0.1-127.1-24.2-127.1-54.5"/>
<path class="st1" d="M321.3,137.9c0.1,30.2-56.8,54.8-126.9,55c-70.2,0.1-127.1-24.2-127.1-54.5"/>
<g>

		<image style="overflow:visible;" width="1406" height="560" xlink:href="6285A6D662749F87.png"  transform="matrix(0.24 0 0 0.24 24 -2.593681e-02)">
	</image>
</g>
<path class="st0" d="M66.4,94.7c0-30.2,56.9-54.6,127.1-54.6s127,24.7,126.9,54.9"/>
<g>
	<path class="st1" d="M65.3,96c0-30.2,56.8-54.8,127-54.9s127.1,24.4,127.1,54.6"/>
</g>
<g>

		<image style="overflow:visible;" width="1768" height="650" xlink:href="6285A6D662749F86.png"  transform="matrix(0.24 0 0 0.24 -3.8062 -323.9004)">
	</image>
</g>
<rect x="36.8" y="-275.7" style="fill:none;" width="348.6" height="71.6"/>
<text transform="matrix(1 0 0 1 36.7594 -243.2469)" style="fill:none;stroke:#E50069;stroke-width:3;stroke-miterlimit:10; font-family:'flottflott'; font-size:50px;">JOE’S DINER</text>
<rect x="36.8" y="-275.7" style="fill:none;" width="348.6" height="71.6"/>
<text transform="matrix(1 0 0 1 36.7594 -243.2469)" style="fill:none;stroke:#FF89FF;stroke-miterlimit:10; font-family:'flottflott'; font-size:50px;">JOE’S DINER</text>
<g>

		<image style="overflow:visible;" width="1405" height="553" xlink:href="6285A6D662749F81.png"  transform="matrix(0.24 0 0 0.24 21.8738 -267.2604)">
	</image>
</g>
<path class="st0" d="M317.5-231.1c0.1,30.2-56.8,54.8-126.9,55c-70.2,0.1-127.1-24.2-127.1-54.5"/>
<path class="st1" d="M317.5-231.1c0.1,30.2-56.8,54.8-126.9,55c-70.2,0.1-127.1-24.2-127.1-54.5"/>
<g>

		<image style="overflow:visible;" width="1406" height="560" xlink:href="6285A6D662749F99.png"  transform="matrix(0.24 0 0 0.24 20.1938 -392.0604)">
	</image>
</g>
<path class="st0" d="M62.6-297.4c0-30.2,56.9-54.6,127.1-54.6c70.2,0.1,127,24.7,126.9,54.9"/>
<g>
	<path class="st1" d="M61.5-296.1c0-30.2,56.8-54.8,127-54.9c70.2-0.1,127.1,24.4,127.1,54.6"/>
</g>
</svg>
